<?xml version="1.0" encoding="UTF-8"?>
<svg version="1.1" xmlns="http://www.w3.org/2000/svg" width="2000" height="2000">
<path d="M0 0 C660 0 1320 0 2000 0 C2000 660 2000 1320 2000 2000 C1340 2000 680 2000 0 2000 C0 1340 0 680 0 0 Z " fill="#1A1A19" transform="translate(0,0)"/>
<path d="M0 0 C2.14941137 0.00707879 4.29880202 0.00976765 6.44822311 0.01227951 C30.15650479 0.06201734 53.42480166 1.26284968 76.79444504 5.50693893 C77.55311874 5.64460678 78.31179245 5.78227463 79.09345627 5.92411423 C93.93725443 8.65301516 108.76381027 11.7510915 123.15382004 16.35068893 C126.26071979 17.33742963 129.37810646 18.21715816 132.5232048 19.07139206 C154.70897502 25.22413133 176.09665633 34.5450531 196.79444504 44.50693893 C197.70710129 44.9394194 198.61975754 45.37189987 199.56007004 45.81748581 C226.69276265 58.7055148 252.33276075 74.74443165 275.79444504 93.50693893 C276.42447433 94.00693405 277.05450363 94.50692917 277.70362473 95.02207565 C285.70483035 101.38166127 293.49587843 107.87975438 300.95069504 114.87412643 C303.09827655 116.86240931 305.26731026 118.78094582 307.48585129 120.68662643 C312.61678533 125.15878584 317.41907197 129.94753585 322.23194504 134.75693893 C323.12204269 135.6347905 324.01214035 136.51264206 324.92921066 137.41709518 C330.23564601 142.71190212 335.13468183 148.17192109 339.7942009 154.04526901 C341.74530951 156.44646859 343.79221967 158.69909363 345.91944504 160.94443893 C384.06967112 203.11394617 413.52244603 259.25950702 429.79444504 313.50693893 C430.19542404 314.82951706 430.19542404 314.82951706 430.60450363 316.17881393 C437.39142658 338.79931525 443.37870209 362.3253224 446.11914158 385.82633209 C446.44892748 388.64502527 446.78805174 391.45985692 447.16991556 394.27200747 C450.8633381 421.66202759 450.22060243 449.27449091 450.17539201 476.85002824 C450.1635503 484.46076599 450.16960374 492.07146699 450.17593657 499.6822076 C450.18778648 514.58731415 450.18283546 529.49237803 450.1706583 544.39748218 C450.16007708 557.43953808 450.15558852 570.48157952 450.15695381 583.52363968 C450.15707986 584.82674296 450.15707986 584.82674296 450.15720845 586.15617156 C450.15756076 589.68356106 450.15794479 593.21095055 450.15837403 596.73834004 C450.16232901 629.75081785 450.14966819 662.76327012 450.12884746 695.77574063 C450.11047485 725.04405665 450.10466785 754.31234823 450.11011887 783.5806694 C450.1104653 785.46085516 450.1108114 787.34104091 450.11115716 789.22122666 C450.11141365 790.61558502 450.11141365 790.61558502 450.11167532 792.03811224 C450.112529 796.71841403 450.11335277 801.39871583 450.11414433 806.07901764 C450.11430141 807.00256776 450.11445849 807.92611788 450.11462033 808.87765437 C450.11861823 833.40761591 450.11312438 857.93757513 450.10463303 882.46753526 C450.10372609 885.10965525 450.10282044 887.75177525 450.1019178 890.39389525 C450.1013167 892.14625485 450.10070808 893.89861445 450.10009189 895.65097404 C450.095886 907.8205068 450.09528575 919.99003493 450.09719739 932.15956818 C450.09964958 947.84653897 450.09549438 963.53348504 450.07998738 979.22044912 C450.07199157 987.49775786 450.0692949 995.77502547 450.07462974 1004.05233659 C450.07799546 1010.26067606 450.07073764 1016.46896316 450.05960467 1022.67729262 C450.05670753 1025.16740701 450.05706375 1027.65752811 450.06124774 1030.14764068 C450.11996243 1068.62366612 445.26944676 1105.26181249 435.79444504 1142.50693893 C435.57739914 1143.36054001 435.36035324 1144.21414108 435.13673019 1145.09360886 C418.22403423 1209.28800423 386.28779496 1269.41943596 342.79444504 1319.50693893 C342.16022629 1320.24170456 341.52600754 1320.97647018 340.87257004 1321.73350143 C339.19169927 1323.66881595 337.49452454 1325.58848187 335.79444504 1327.50693893 C335.17013596 1328.21608444 334.54582687 1328.92522995 333.90259933 1329.65586472 C328.37529002 1335.87513368 322.62198393 1341.83487948 316.72828293 1347.70347214 C315.22637579 1349.19998819 313.72993442 1350.70182193 312.23389816 1352.20420456 C306.92791622 1357.5146159 301.54390976 1362.67367585 295.79444504 1367.50693893 C295.15047775 1368.05229294 294.50651047 1368.59764694 293.84302902 1369.15952682 C271.9781827 1387.56255114 248.84288128 1403.76357795 224.13526535 1418.14268112 C222.64386133 1419.01188906 221.15583226 1419.88693264 219.67237473 1420.76963425 C197.49894915 1433.95068063 173.1396427 1444.11298252 148.79444504 1452.50693893 C147.71163254 1452.88157272 146.62882004 1453.25620651 145.51319504 1453.64219284 C121.6416969 1461.81037892 97.54966453 1467.76970095 72.66944504 1471.81943893 C71.53697845 1472.004505 71.53697845 1472.004505 70.38163376 1472.19330978 C65.19457097 1473.03153641 59.99913375 1473.7871731 54.79444504 1474.50693893 C54.10855301 1474.60725418 53.42266098 1474.70756943 52.71598434 1474.81092453 C37.32544429 1477.01411812 21.82106197 1476.84804345 6.30933762 1476.82261276 C3.27012401 1476.81799513 0.23131191 1476.82486465 -2.80784988 1476.84312057 C-20.92273491 1476.95098399 -38.59253545 1476.43092879 -56.57089615 1473.87824631 C-59.15747693 1473.51371466 -61.74619664 1473.18253629 -64.3386116 1472.86240768 C-87.11605465 1470.0208331 -110.25588734 1464.3526643 -132.05076981 1457.21152878 C-134.23884953 1456.496052 -136.43406647 1455.80689718 -138.63133621 1455.12022018 C-175.47665337 1443.43074683 -211.02514198 1425.83209738 -243.20555496 1404.50693893 C-243.89552567 1404.05109421 -244.58549637 1403.59524948 -245.29637527 1403.12559128 C-262.93082778 1391.40724037 -279.85047477 1378.43060555 -295.40477371 1364.06162643 C-296.88076068 1362.7153287 -298.36164588 1361.37349133 -299.88011551 1360.07529831 C-305.86044308 1354.96239392 -311.43634322 1349.46228108 -316.99583817 1343.90195847 C-318.63131378 1342.26866445 -320.27463204 1340.64355423 -321.91844559 1339.01865768 C-327.68274913 1333.2848899 -333.07263496 1327.4427832 -338.13988113 1321.06943893 C-340.12856899 1318.60244121 -342.19593937 1316.24578693 -344.32274246 1313.89756393 C-348.24400004 1309.5285503 -351.82406676 1304.96286496 -355.33055496 1300.25693893 C-355.96944656 1299.40140427 -356.60833817 1298.5458696 -357.26659012 1297.66440964 C-367.7378589 1283.50747053 -377.44897935 1268.78554471 -386.20555496 1253.50693893 C-386.59130692 1252.8369487 -386.97705887 1252.16695847 -387.37450027 1251.4766655 C-390.40014324 1246.19700372 -393.33171512 1240.87065124 -396.20555496 1235.50693893 C-396.64125809 1234.69434616 -397.07696121 1233.88175339 -397.52586746 1233.04453659 C-410.44924111 1208.68567771 -420.05209644 1182.80764371 -428.20555496 1156.50693893 C-428.52363113 1155.48890182 -428.84170731 1154.47086472 -429.16942215 1153.421978 C-434.62808179 1135.71127979 -438.08958824 1117.74333394 -441.20555496 1099.50693893 C-441.37571121 1098.538853 -441.54586746 1097.57076706 -441.72117996 1096.57334518 C-445.82446035 1073.05022915 -446.50614328 1049.25792066 -446.46625137 1025.43081284 C-446.46928091 1022.81789139 -446.47317437 1020.20497083 -446.47784394 1017.5920518 C-446.48650669 1011.96585835 -446.48795407 1006.33970132 -446.48434067 1000.71350288 C-446.47898134 992.34628096 -446.48518078 983.97909364 -446.4934236 975.61187548 C-446.50858289 959.79171509 -446.5103771 943.97157083 -446.50790057 928.1514047 C-446.50606099 915.92833408 -446.50784141 903.70526868 -446.51212502 891.48219872 C-446.51272744 889.72009392 -446.51332864 887.95798912 -446.51392862 886.19588432 C-446.51483596 883.53990489 -446.51574464 880.88392545 -446.51666097 878.22794602 C-446.52507811 853.56693131 -446.52943471 828.90591856 -446.52525425 804.24490261 C-446.52509787 803.31719105 -446.5249415 802.38947949 -446.52478038 801.43365546 C-446.52397472 796.73267096 -446.52312894 792.03168646 -446.52226708 787.33070197 C-446.52209599 786.39723026 -446.52192491 785.46375854 -446.52174863 784.50199981 C-446.52140197 782.61429918 -446.52105344 780.72659856 -446.52070305 778.83889793 C-446.51534665 749.47050193 -446.52327906 720.10213597 -446.5417366 690.73374557 C-446.56249552 657.66561159 -446.57317205 624.5974962 -446.56916112 591.52935535 C-446.56876583 587.99727905 -446.56840427 584.46520275 -446.56806374 580.93312645 C-446.567973 580.0635704 -446.56788227 579.19401434 -446.56778879 578.2981081 C-446.5666275 565.22626343 -446.57323516 552.15443768 -446.58387566 539.08259773 C-446.59597716 524.20160027 -446.59742984 509.32064422 -446.58508549 494.43964609 C-446.57850228 486.13408255 -446.57998182 477.82861829 -446.593674 469.52306289 C-446.60300143 463.28819267 -446.59629192 457.05342924 -446.58382621 450.81856666 C-446.58120294 448.32154832 -446.58346969 445.82451811 -446.59156207 443.32751151 C-446.73436276 395.91535119 -438.87867813 348.27411368 -423.20555496 303.50693893 C-422.88087234 302.56076706 -422.55618973 301.61459518 -422.22166824 300.63975143 C-417.92583303 288.15210702 -413.03507069 276.05041675 -407.41942215 264.09922409 C-406.1567861 261.40279014 -404.91926596 258.69561931 -403.68211746 255.98740768 C-389.60370139 225.49376781 -371.22317952 196.69859273 -350.20555496 170.50693893 C-348.97772293 168.96199753 -348.97772293 168.96199753 -347.72508621 167.38584518 C-343.49349753 162.13459658 -339.09164305 157.06624219 -334.54149246 152.08897018 C-333.28186274 150.69663699 -332.02812445 149.29830502 -330.81175613 147.86802292 C-325.64922637 141.82134209 -320.06443249 136.21390188 -314.43577957 130.60679245 C-312.77129219 128.94766573 -311.11222049 127.28325842 -309.45360184 125.61826706 C-303.87702632 120.03794042 -298.23603568 114.60002121 -292.20555496 109.50693893 C-291.24133621 108.66131393 -290.27711746 107.81568893 -289.28367996 106.94443893 C-267.43776251 88.11591339 -243.39606235 71.53521621 -218.20555496 57.50693893 C-217.26550613 56.97890671 -216.32545731 56.45087448 -215.35692215 55.90684128 C-184.25868502 38.51399248 -151.54233181 25.0697581 -117.20555496 15.50693893 C-116.28339188 15.24960983 -115.36122879 14.99228073 -114.41112137 14.72715378 C-102.76146332 11.53194619 -90.99583803 8.93932742 -79.12712479 6.7049675 C-77.20237427 6.342387 -75.27933728 5.97074378 -73.35643387 5.59849167 C-49.08343107 1.19964547 -24.61961139 -0.08232683 0 0 Z " fill="#1A1A1A" transform="translate(994.2055549621582,261.4930610656738)"/>
<path d="M0 0 C2.14941137 0.00707879 4.29880202 0.00976765 6.44822311 0.01227951 C30.15650479 0.06201734 53.42480166 1.26284968 76.79444504 5.50693893 C77.55311874 5.64460678 78.31179245 5.78227463 79.09345627 5.92411423 C93.93725443 8.65301516 108.76381027 11.7510915 123.15382004 16.35068893 C126.26071979 17.33742963 129.37810646 18.21715816 132.5232048 19.07139206 C154.70897502 25.22413133 176.09665633 34.5450531 196.79444504 44.50693893 C197.70710129 44.9394194 198.61975754 45.37189987 199.56007004 45.81748581 C226.69276265 58.7055148 252.33276075 74.74443165 275.79444504 93.50693893 C276.42447433 94.00693405 277.05450363 94.50692917 277.70362473 95.02207565 C285.70483035 101.38166127 293.49587843 107.87975438 300.95069504 114.87412643 C303.09827655 116.86240931 305.26731026 118.78094582 307.48585129 120.68662643 C312.61678533 125.15878584 317.41907197 129.94753585 322.23194504 134.75693893 C323.12204269 135.6347905 324.01214035 136.51264206 324.92921066 137.41709518 C330.23564601 142.71190212 335.13468183 148.17192109 339.7942009 154.04526901 C341.74530951 156.44646859 343.79221967 158.69909363 345.91944504 160.94443893 C384.06967112 203.11394617 413.52244603 259.25950702 429.79444504 313.50693893 C430.19542404 314.82951706 430.19542404 314.82951706 430.60450363 316.17881393 C437.39142658 338.79931525 443.37870209 362.3253224 446.11914158 385.82633209 C446.44892748 388.64502527 446.78805174 391.45985692 447.16991556 394.27200747 C450.8633381 421.66202759 450.22060243 449.27449091 450.17539201 476.85002824 C450.1635503 484.46076599 450.16960374 492.07146699 450.17593657 499.6822076 C450.18778648 514.58731415 450.18283546 529.49237803 450.1706583 544.39748218 C450.16007708 557.43953808 450.15558852 570.48157952 450.15695381 583.52363968 C450.15707986 584.82674296 450.15707986 584.82674296 450.15720845 586.15617156 C450.15756076 589.68356106 450.15794479 593.21095055 450.15837403 596.73834004 C450.16232901 629.75081785 450.14966819 662.76327012 450.12884746 695.77574063 C450.11047485 725.04405665 450.10466785 754.31234823 450.11011887 783.5806694 C450.1104653 785.46085516 450.1108114 787.34104091 450.11115716 789.22122666 C450.11141365 790.61558502 450.11141365 790.61558502 450.11167532 792.03811224 C450.112529 796.71841403 450.11335277 801.39871583 450.11414433 806.07901764 C450.11430141 807.00256776 450.11445849 807.92611788 450.11462033 808.87765437 C450.11861823 833.40761591 450.11312438 857.93757513 450.10463303 882.46753526 C450.10372609 885.10965525 450.10282044 887.75177525 450.1019178 890.39389525 C450.1013167 892.14625485 450.10070808 893.89861445 450.10009189 895.65097404 C450.095886 907.8205068 450.09528575 919.99003493 450.09719739 932.15956818 C450.09964958 947.84653897 450.09549438 963.53348504 450.07998738 979.22044912 C450.07199157 987.49775786 450.0692949 995.77502547 450.07462974 1004.05233659 C450.07799546 1010.26067606 450.07073764 1016.46896316 450.05960467 1022.67729262 C450.05670753 1025.16740701 450.05706375 1027.65752811 450.06124774 1030.14764068 C450.11996243 1068.62366612 445.26944676 1105.26181249 435.79444504 1142.50693893 C435.57739914 1143.36054001 435.36035324 1144.21414108 435.13673019 1145.09360886 C418.22403423 1209.28800423 386.28779496 1269.41943596 342.79444504 1319.50693893 C342.16022629 1320.24170456 341.52600754 1320.97647018 340.87257004 1321.73350143 C339.19169927 1323.66881595 337.49452454 1325.58848187 335.79444504 1327.50693893 C335.17013596 1328.21608444 334.54582687 1328.92522995 333.90259933 1329.65586472 C328.37529002 1335.87513368 322.62198393 1341.83487948 316.72828293 1347.70347214 C315.22637579 1349.19998819 313.72993442 1350.70182193 312.23389816 1352.20420456 C306.92791622 1357.5146159 301.54390976 1362.67367585 295.79444504 1367.50693893 C295.15047775 1368.05229294 294.50651047 1368.59764694 293.84302902 1369.15952682 C271.9781827 1387.56255114 248.84288128 1403.76357795 224.13526535 1418.14268112 C222.64386133 1419.01188906 221.15583226 1419.88693264 219.67237473 1420.76963425 C197.49894915 1433.95068063 173.1396427 1444.11298252 148.79444504 1452.50693893 C147.71163254 1452.88157272 146.62882004 1453.25620651 145.51319504 1453.64219284 C121.6416969 1461.81037892 97.54966453 1467.76970095 72.66944504 1471.81943893 C71.53697845 1472.004505 71.53697845 1472.004505 70.38163376 1472.19330978 C65.19457097 1473.03153641 59.99913375 1473.7871731 54.79444504 1474.50693893 C54.10855301 1474.60725418 53.42266098 1474.70756943 52.71598434 1474.81092453 C37.32544429 1477.01411812 21.82106197 1476.84804345 6.30933762 1476.82261276 C3.27012401 1476.81799513 0.23131191 1476.82486465 -2.80784988 1476.84312057 C-20.92273491 1476.95098399 -38.59253545 1476.43092879 -56.57089615 1473.87824631 C-59.15747693 1473.51371466 -61.74619664 1473.18253629 -64.3386116 1472.86240768 C-87.11605465 1470.0208331 -110.25588734 1464.3526643 -132.05076981 1457.21152878 C-134.23884953 1456.496052 -136.43406647 1455.80689718 -138.63133621 1455.12022018 C-175.47665337 1443.43074683 -211.02514198 1425.83209738 -243.20555496 1404.50693893 C-243.89552567 1404.05109421 -244.58549637 1403.59524948 -245.29637527 1403.12559128 C-262.93082778 1391.40724037 -279.85047477 1378.43060555 -295.40477371 1364.06162643 C-296.88076068 1362.7153287 -298.36164588 1361.37349133 -299.88011551 1360.07529831 C-305.86044308 1354.96239392 -311.43634322 1349.46228108 -316.99583817 1343.90195847 C-318.63131378 1342.26866445 -320.27463204 1340.64355423 -321.91844559 1339.01865768 C-327.68274913 1333.2848899 -333.07263496 1327.4427832 -338.13988113 1321.06943893 C-340.12856899 1318.60244121 -342.19593937 1316.24578693 -344.32274246 1313.89756393 C-348.24400004 1309.5285503 -351.82406676 1304.96286496 -355.33055496 1300.25693893 C-355.96944656 1299.40140427 -356.60833817 1298.5458696 -357.26659012 1297.66440964 C-367.7378589 1283.50747053 -377.44897935 1268.78554471 -386.20555496 1253.50693893 C-386.59130692 1252.8369487 -386.97705887 1252.16695847 -387.37450027 1251.4766655 C-390.40014324 1246.19700372 -393.33171512 1240.87065124 -396.20555496 1235.50693893 C-396.64125809 1234.69434616 -397.07696121 1233.88175339 -397.52586746 1233.04453659 C-410.44924111 1208.68567771 -420.05209644 1182.80764371 -428.20555496 1156.50693893 C-428.52363113 1155.48890182 -428.84170731 1154.47086472 -429.16942215 1153.421978 C-434.62808179 1135.71127979 -438.08958824 1117.74333394 -441.20555496 1099.50693893 C-441.37571121 1098.538853 -441.54586746 1097.57076706 -441.72117996 1096.57334518 C-445.82446035 1073.05022915 -446.50614328 1049.25792066 -446.46625137 1025.43081284 C-446.46928091 1022.81789139 -446.47317437 1020.20497083 -446.47784394 1017.5920518 C-446.48650669 1011.96585835 -446.48795407 1006.33970132 -446.48434067 1000.71350288 C-446.47898134 992.34628096 -446.48518078 983.97909364 -446.4934236 975.61187548 C-446.50858289 959.79171509 -446.5103771 943.97157083 -446.50790057 928.1514047 C-446.50606099 915.92833408 -446.50784141 903.70526868 -446.51212502 891.48219872 C-446.51272744 889.72009392 -446.51332864 887.95798912 -446.51392862 886.19588432 C-446.51483596 883.53990489 -446.51574464 880.88392545 -446.51666097 878.22794602 C-446.52507811 853.56693131 -446.52943471 828.90591856 -446.52525425 804.24490261 C-446.52509787 803.31719105 -446.5249415 802.38947949 -446.52478038 801.43365546 C-446.52397472 796.73267096 -446.52312894 792.03168646 -446.52226708 787.33070197 C-446.52209599 786.39723026 -446.52192491 785.46375854 -446.52174863 784.50199981 C-446.52140197 782.61429918 -446.52105344 780.72659856 -446.52070305 778.83889793 C-446.51534665 749.47050193 -446.52327906 720.10213597 -446.5417366 690.73374557 C-446.56249552 657.66561159 -446.57317205 624.5974962 -446.56916112 591.52935535 C-446.56876583 587.99727905 -446.56840427 584.46520275 -446.56806374 580.93312645 C-446.567973 580.0635704 -446.56788227 579.19401434 -446.56778879 578.2981081 C-446.5666275 565.22626343 -446.57323516 552.15443768 -446.58387566 539.08259773 C-446.59597716 524.20160027 -446.59742984 509.32064422 -446.58508549 494.43964609 C-446.57850228 486.13408255 -446.57998182 477.82861829 -446.593674 469.52306289 C-446.60300143 463.28819267 -446.59629192 457.05342924 -446.58382621 450.81856666 C-446.58120294 448.32154832 -446.58346969 445.82451811 -446.59156207 443.32751151 C-446.73436276 395.91535119 -438.87867813 348.27411368 -423.20555496 303.50693893 C-422.88087234 302.56076706 -422.55618973 301.61459518 -422.22166824 300.63975143 C-417.92583303 288.15210702 -413.03507069 276.05041675 -407.41942215 264.09922409 C-406.1567861 261.40279014 -404.91926596 258.69561931 -403.68211746 255.98740768 C-389.60370139 225.49376781 -371.22317952 196.69859273 -350.20555496 170.50693893 C-348.97772293 168.96199753 -348.97772293 168.96199753 -347.72508621 167.38584518 C-343.49349753 162.13459658 -339.09164305 157.06624219 -334.54149246 152.08897018 C-333.28186274 150.69663699 -332.02812445 149.29830502 -330.81175613 147.86802292 C-325.64922637 141.82134209 -320.06443249 136.21390188 -314.43577957 130.60679245 C-312.77129219 128.94766573 -311.11222049 127.28325842 -309.45360184 125.61826706 C-303.87702632 120.03794042 -298.23603568 114.60002121 -292.20555496 109.50693893 C-291.24133621 108.66131393 -290.27711746 107.81568893 -289.28367996 106.94443893 C-267.43776251 88.11591339 -243.39606235 71.53521621 -218.20555496 57.50693893 C-217.26550613 56.97890671 -216.32545731 56.45087448 -215.35692215 55.90684128 C-184.25868502 38.51399248 -151.54233181 25.0697581 -117.20555496 15.50693893 C-116.28339188 15.24960983 -115.36122879 14.99228073 -114.41112137 14.72715378 C-102.76146332 11.53194619 -90.99583803 8.93932742 -79.12712479 6.7049675 C-77.20237427 6.342387 -75.27933728 5.97074378 -73.35643387 5.59849167 C-49.08343107 1.19964547 -24.61961139 -0.08232683 0 0 Z M-55.20555496 9.50693893 C-56.22890945 9.65147507 -57.25226395 9.7960112 -58.30662918 9.94492722 C-83.03536899 13.51830728 -107.37259696 19.03289643 -131.20555496 26.50693893 C-132.06600418 26.77055222 -132.9264534 27.0341655 -133.81297684 27.30576706 C-158.58488678 34.92642401 -182.31346359 45.41619446 -205.20555496 57.50693893 C-206.00461258 57.92652878 -206.8036702 58.34611862 -207.62694168 58.77842331 C-225.62579399 68.29708397 -242.89006297 79.33089726 -259.20555496 91.50693893 C-259.74438309 91.90832077 -260.28321121 92.30970261 -260.83836746 92.72324753 C-269.23334325 99.00207273 -277.26793507 105.66233354 -285.20555496 112.50693893 C-285.92227371 113.12182175 -286.63899246 113.73670456 -287.37742996 114.37022018 C-289.33580341 116.06558893 -291.27363671 117.78148523 -293.20555496 119.50693893 C-294.02539871 120.23397018 -294.84524246 120.96100143 -295.68992996 121.71006393 C-302.32242795 127.68297649 -308.69681771 133.89331166 -315.01805496 140.19443893 C-315.81832108 140.99011276 -316.61858719 141.78578659 -317.44310379 142.60557175 C-322.23631102 147.41125738 -326.80124317 152.34376443 -331.20555496 157.50693893 C-332.08291963 158.51626176 -332.96050592 159.52539199 -333.83836746 160.53428268 C-358.6743824 189.53558539 -379.15773171 221.36709436 -396.20555496 255.50693893 C-396.8117366 256.70745895 -396.8117366 256.70745895 -397.43016434 257.9322319 C-403.91540056 270.84024186 -409.1331519 284.17487469 -414.16307449 297.70811081 C-414.99573517 299.94361949 -415.84231489 302.17225122 -416.70164871 304.39756393 C-426.7069519 331.0346334 -433.22432291 360.32920342 -436.50785059 388.59757215 C-436.97213262 392.5736242 -437.46352801 396.54517398 -437.9702459 400.51602334 C-439.94168543 416.43710134 -440.63671849 432.06508304 -440.59323502 448.09576035 C-440.59742065 450.65603196 -440.60290482 453.21630172 -440.60955483 455.77656811 C-440.62178465 461.28816715 -440.62319448 466.7996809 -440.61700439 472.31128883 C-440.60782283 480.50895946 -440.61601738 488.70655274 -440.62729563 496.90421749 C-440.64686507 511.56012261 -440.64932828 526.21599219 -440.64410043 540.87190726 C-440.63952394 553.71022389 -440.64016628 566.54852654 -440.64594078 579.38684273 C-440.64669769 581.11624734 -440.64745367 582.84565196 -440.64820873 584.57505658 C-440.64935407 587.18197796 -440.65050396 589.78889934 -440.65166797 592.39582071 C-440.66235941 616.60670361 -440.66711283 640.8175819 -440.65919781 665.02846622 C-440.65890063 665.93934569 -440.65860346 666.85022515 -440.65829728 667.78870702 C-440.65584897 675.1831296 -440.65323706 682.57755213 -440.65061315 689.97197466 C-440.64052757 718.76319262 -440.64883952 747.55435217 -440.6721077 776.34556198 C-440.69828411 808.78686144 -440.71099963 841.22812576 -440.70391995 873.66943616 C-440.70320405 877.14113596 -440.70252964 880.61283578 -440.7018795 884.0845356 C-440.70170969 884.93918138 -440.70153988 885.79382716 -440.70136493 886.6743713 C-440.69907832 899.48011382 -440.70696038 912.28582333 -440.72017097 925.09155846 C-440.73520861 939.69323552 -440.73575967 954.29483619 -440.71810006 968.89651183 C-440.70948146 976.32504782 -440.70681385 983.75345064 -440.72275162 991.18197823 C-440.77611694 1017.55752102 -440.71268024 1043.84552605 -438.38513565 1070.13869858 C-438.30476413 1071.0512595 -438.2243926 1071.96382043 -438.14158558 1072.90403471 C-436.46327075 1091.34888779 -433.19060032 1109.43410888 -429.20555496 1127.50693893 C-428.854366 1129.16112839 -428.854366 1129.16112839 -428.49608231 1130.84873581 C-422.46554285 1158.97023568 -411.97375569 1186.33537051 -400.20555496 1212.50693893 C-399.85573563 1213.29616745 -399.50591629 1214.08539597 -399.14549637 1214.8985405 C-381.71516777 1254.08863847 -356.8582467 1291.20781303 -327.76024246 1322.70615768 C-325.8166528 1324.83697388 -323.93025409 1326.99091262 -322.05321121 1329.17881393 C-317.52307837 1334.37122187 -312.64903538 1339.20927294 -307.76805496 1344.06943893 C-306.86506668 1344.9762944 -305.9620784 1345.88314987 -305.03172684 1346.81748581 C-299.91843538 1351.92337207 -294.71245397 1356.82944233 -289.20555496 1361.50693893 C-288.19602811 1362.38406882 -287.18688545 1363.2616412 -286.17821121 1364.13975143 C-277.44943013 1371.61486865 -268.44584722 1378.67484237 -259.20555496 1385.50693893 C-258.45451492 1386.06252487 -257.70347488 1386.61811081 -256.92967606 1387.19053268 C-210.88816083 1420.95885975 -158.32678164 1444.31076268 -103.20555496 1458.50693893 C-102.37523758 1458.72575729 -101.5449202 1458.94457565 -100.68944168 1459.17002487 C-79.32101772 1464.77811313 -57.14897328 1467.33760738 -35.20555496 1469.50693893 C-34.25849686 1469.60482712 -33.31143875 1469.7027153 -32.33568192 1469.80356979 C-21.54157354 1470.7878857 -10.72231136 1470.70519086 0.10694504 1470.69443893 C1.13223312 1470.69416702 2.15752121 1470.69389511 3.21387863 1470.69361496 C18.17429377 1470.67534417 32.93270057 1470.36322467 47.79444504 1468.50693893 C48.66649582 1468.405103 49.5385466 1468.30326706 50.43702316 1468.19834518 C56.91169159 1467.43551152 63.35303109 1466.5104771 69.79444504 1465.50693893 C71.34712082 1465.269832 71.34712082 1465.269832 72.93116379 1465.02793503 C117.80037617 1458.03889851 161.65740431 1443.69265539 201.86768723 1422.51523972 C203.98227636 1421.40864403 206.11021333 1420.3305511 208.23975754 1419.25303268 C226.71051435 1409.82655099 244.07787278 1398.7579878 260.79444504 1386.50693893 C261.47877609 1386.00807175 262.16310715 1385.50920456 262.86817551 1384.99522018 C275.60257084 1375.68597934 287.54531 1365.69794122 299.10694504 1354.97568893 C301.23891696 1353.01724961 303.39649104 1351.12439145 305.60694504 1349.25693893 C314.24660689 1341.76076174 322.57729859 1333.43703612 329.95069504 1324.69053268 C331.49013596 1322.86733888 333.05461986 1321.07668621 334.63819504 1319.29209518 C356.4078568 1294.66506185 375.09154724 1267.46469943 390.68458176 1238.54600143 C391.67927663 1236.71852859 392.70557318 1234.90833987 393.73585129 1233.10068893 C405.46024062 1212.14854433 414.13896197 1189.20229623 421.79444504 1166.50693893 C422.11107101 1165.580103 422.42769699 1164.65326706 422.75391769 1163.69834518 C429.62361287 1143.46592703 434.37433834 1122.92102828 437.98194504 1101.88193893 C438.16299286 1100.8523909 438.16299286 1100.8523909 438.34769821 1099.80204391 C439.29078236 1094.3862987 440.05701799 1088.95409635 440.79444504 1083.50693893 C440.9223544 1082.59200539 441.05026376 1081.67707184 441.18204916 1080.73441303 C444.75463071 1054.03877238 444.22142252 1027.1661623 444.17539215 1000.28928752 C444.16354097 992.9979099 444.16960646 985.70657055 444.17593657 978.41518993 C444.18778409 964.13220678 444.18283632 949.84926818 444.1706583 935.56628754 C444.16006992 923.06045719 444.1555894 910.55464194 444.15695381 898.04880714 C444.15703784 897.21523057 444.15712187 896.38165399 444.15720845 895.52281752 C444.15756077 892.13790085 444.15794481 888.7529842 444.15837403 885.36806754 C444.16232917 853.68537421 444.14966997 822.00270748 444.12884746 790.32002177 C444.11049664 762.2666795 444.10466245 734.21336273 444.11011887 706.16001511 C444.1104653 704.35966585 444.1108114 702.5593166 444.11115716 700.75896735 C444.11132815 699.8688456 444.11149915 698.97872384 444.11167532 698.06162871 C444.11252908 693.57939713 444.11335285 689.09716555 444.11414433 684.61493397 C444.11430141 683.73036015 444.11445849 682.84578633 444.11462033 681.93440725 C444.11862576 658.39383758 444.11311383 634.85327031 444.10463303 611.31270212 C444.10372613 608.77429657 444.10282049 606.23589102 444.1019178 603.69748547 C444.10131669 602.01405319 444.10070807 600.33062092 444.10009189 598.64718864 C444.095897 586.9880338 444.09528113 575.32888378 444.09719739 563.66972842 C444.09965812 548.62548193 444.0954284 533.58126119 444.07998738 518.53702164 C444.07272702 511.29961372 444.06840111 504.06223808 444.07323074 496.82482719 C444.11528324 459.85420416 444.11528324 459.85420416 442.9179039 422.90804672 C442.88015959 422.12804839 442.84241529 421.34805006 442.80352721 420.54441542 C438.64502246 337.84841694 408.49887496 256.19960093 359.79444504 189.50693893 C359.3537468 188.90043503 358.91304855 188.29393112 358.45899582 187.66904831 C353.16089977 180.40187944 347.55441477 173.41127351 341.79444504 166.50693893 C340.56467941 165.01420456 340.56467941 165.01420456 339.31007004 163.49131393 C326.4311947 147.96076325 312.45780462 132.46679518 297.03663254 119.41318893 C295.22576276 117.87363414 293.44807981 116.31049605 291.67725754 114.72568893 C282.22062823 106.31471318 272.29507605 98.66082235 262.08643723 91.18613815 C260.09942715 89.73038024 258.12149819 88.26340675 256.14600754 86.79209518 C237.56258382 73.08037235 217.27796445 62.06860589 196.79444504 51.50693893 C195.93673508 51.06366257 195.07902512 50.6203862 194.19532394 50.16367722 C173.70337926 39.69979727 151.79076051 31.85439489 129.85694504 25.00693893 C129.21310867 24.80529129 128.56927231 24.60364365 127.90592575 24.39588547 C113.29928689 19.84914388 98.57838392 16.26572281 83.54444504 13.44443893 C82.52911194 13.25308868 82.52911194 13.25308868 81.49326706 13.05787277 C67.33579472 10.41161048 53.14518569 8.7441696 38.79444504 7.50693893 C37.86156662 7.41267624 36.9286882 7.31841354 35.96754074 7.2212944 C24.46149838 6.15544343 12.90205147 6.26404047 1.35694504 6.25693893 C0.22227798 6.25593185 -0.91238907 6.25492477 -2.08143997 6.25388718 C-19.98309311 6.26462006 -37.46818466 6.91937612 -55.20555496 9.50693893 Z " fill="#EABF19" transform="translate(994.2055549621582,261.4930610656738)"/>
<path d="M0 0 C9.15378109 8.65116083 15.14858887 18.87101225 15.75390625 31.5625 C16.21929369 48.58146017 13.32786668 62.17010006 1.50390625 75.03125 C-5.67800477 81.66070633 -14.47244108 85.52625189 -23.52734375 88.90625 C-24.29820312 89.20402344 -25.0690625 89.50179687 -25.86328125 89.80859375 C-36.8347136 93.78920368 -48.20790282 94.31551239 -59.77734375 94.28125 C-60.8203212 94.28043427 -60.8203212 94.28043427 -61.8843689 94.27960205 C-93.1502734 94.16802259 -119.94323329 84.55317801 -147.9296875 71.44921875 C-162.67503365 64.56767965 -177.44768161 58.19971531 -192.77734375 52.71875 C-193.90077682 52.31662292 -193.90077682 52.31662292 -195.04690552 51.90637207 C-206.84356533 47.70493342 -218.72058004 43.82764611 -230.83984375 40.65625 C-232.11472656 40.32109375 -233.38960937 39.9859375 -234.703125 39.640625 C-235.63511719 39.39828125 -236.56710937 39.1559375 -237.52734375 38.90625 C-236.52734375 36.90625 -236.52734375 36.90625 -234.32519531 36.10009766 C-233.36581055 35.84276855 -232.40642578 35.58543945 -231.41796875 35.3203125 C-230.35191406 35.02898438 -229.28585937 34.73765625 -228.1875 34.4375 C-227.06214844 34.1384375 -225.93679688 33.839375 -224.77734375 33.53125 C-211.43973255 29.92993563 -198.38319611 26.05549103 -185.52734375 20.96875 C-184.32891846 20.49638916 -183.13049316 20.02402832 -181.89575195 19.53735352 C-168.23975238 14.10984458 -154.90143433 7.9871232 -141.52734375 1.90625 C-123.39614023 -6.32574894 -106.14983193 -12.59364063 -86.52734375 -16.09375 C-85.56699219 -16.3 -84.60664062 -16.50625 -83.6171875 -16.71875 C-56.0851263 -22.05470803 -22.27296969 -18.4517956 0 0 Z " fill="#EEC319" transform="translate(1273.52734375,801.09375)"/>
<path d="M0 0 C0.66 0 1.32 0 2 0 C2.21841553 1.01908447 2.43683105 2.03816895 2.66186523 3.08813477 C5.07153898 13.99572639 8.29569955 24.42889998 12.0625 34.9375 C12.34756409 35.73981049 12.63262817 36.54212097 12.92633057 37.3687439 C19.86440033 56.86727851 27.93068931 75.70973282 36.81216431 94.39459229 C42.34118765 106.03153425 47.69246763 117.50113807 51 130 C51.19094238 130.7110791 51.38188477 131.4221582 51.57861328 132.15478516 C52.87403161 137.07432932 53.98513683 142.01575325 55 147 C55.226875 148.05316406 55.45375 149.10632812 55.6875 150.19140625 C60.55921117 177.222637 58.31074918 208.71695363 42.94921875 232.125 C41.07724232 234.56765663 39.14849662 236.79920732 37 239 C36.15501953 239.86818359 36.15501953 239.86818359 35.29296875 240.75390625 C25.3299749 250.06358903 13.35634265 252.35848734 0.1875 252.375 C-0.82892578 252.39949219 -1.84535156 252.42398437 -2.89257812 252.44921875 C-15.76534043 252.49844537 -26.27156204 247.50080459 -35.625 238.8125 C-52.63143136 220.78253342 -55.92775319 194.17632181 -55.31640625 170.4609375 C-54.18669069 143.21009271 -46.38878865 119.57467434 -35 95 C-13.62445222 48.82071486 -13.62445222 48.82071486 0 0 Z " fill="#EEC319" transform="translate(999,876)"/>
<path d="M0 0 C19.72569702 -0.87748551 40.38016888 1.55626578 59.06005859 8.09863281 C60.01332031 8.4121167 60.01332031 8.4121167 60.98583984 8.73193359 C72.44168709 12.50470438 83.27576876 17.45561847 94.15136719 22.62930298 C104.33030732 27.46303785 114.61267085 31.93901985 125.06005859 36.16113281 C125.71420746 36.4265387 126.36835632 36.69194458 127.04232788 36.96539307 C138.70124046 41.68419179 150.44926715 46.23083793 162.56005859 49.66113281 C163.25929443 49.86311279 163.95853027 50.06509277 164.67895508 50.27319336 C166.80475128 50.88609399 168.93223915 51.49279876 171.06005859 52.09863281 C172.45727233 52.49940152 173.85440946 52.90043745 175.25146484 53.30175781 C178.51953023 54.2392317 181.78924688 55.17077973 185.06005859 56.09863281 C182.29501467 57.94199543 180.84955528 58.53421402 177.72021484 59.25488281 C176.39509888 59.57332153 176.39509888 59.57332153 175.04321289 59.89819336 C174.07939697 60.12933838 173.11558105 60.3604834 172.12255859 60.59863281 C143.72853515 67.74284811 116.82388174 79.54369562 90.37255859 91.91113281 C63.48737847 104.45343599 37.18094111 112.55227457 7.24755859 112.47363281 C6.50059723 112.47342133 5.75363586 112.47320984 4.98403931 112.47299194 C-6.14449923 112.44156507 -16.35018971 111.80261706 -26.93994141 108.09863281 C-28.08462891 107.73640625 -29.22931641 107.37417969 -30.40869141 107.00097656 C-46.19946864 101.55906151 -57.31056057 92.17448254 -64.71337891 77.28613281 C-69.22599376 65.55908275 -70.39083399 49.83855015 -66.31494141 37.84863281 C-59.3164984 22.3590719 -47.43803165 12.29204241 -31.81201172 6.14819336 C-25.33470414 3.73575972 -18.75789352 2.22237892 -11.93994141 1.09863281 C-11.14974609 0.96714844 -10.35955078 0.83566406 -9.54541016 0.70019531 C-6.36826766 0.28844655 -3.19760935 0.16257666 0 0 Z " fill="#EFC319" transform="translate(778.93994140625,782.9013671875)"/>
<path d="M0 0 C16.57261509 11.96742772 23.14212864 29.66302969 26.42578125 49.1796875 C28.89579035 66.38655695 27.94417542 84.24548547 24.1875 101.1875 C24.02121094 101.94901367 23.85492187 102.71052734 23.68359375 103.49511719 C19.40268431 122.49759853 11.85920719 140.00212666 3.5300293 157.5352478 C-9.44745272 184.89761299 -23.37125411 215.04372469 -27.8125 245.1875 C-28.4725 245.1875 -29.1325 245.1875 -29.8125 245.1875 C-30.06902344 244.05699219 -30.32554687 242.92648437 -30.58984375 241.76171875 C-38.10890044 209.66752235 -50.71110072 179.34414711 -64.91674805 149.69799805 C-71.70243844 135.45866791 -77.16325738 121.20937104 -80.875 105.875 C-81.03758301 105.21193848 -81.20016602 104.54887695 -81.36767578 103.86572266 C-84.04544566 92.4763474 -85.13690384 81.38130422 -85.0625 69.6875 C-85.07023438 68.47191406 -85.07796875 67.25632812 -85.0859375 66.00390625 C-85.04003536 44.49875501 -80.5382265 22.08313979 -65.03515625 6.234375 C-46.65443603 -10.69268545 -21.33253904 -13.17491836 0 0 Z " fill="#EFC319" transform="translate(1028.8125,557.8125)"/>
<path d="M0 0 C0 3.44305184 -0.73130872 4.64078565 -2.421875 7.59375 C-2.946604 8.52695068 -3.47133301 9.46015137 -4.01196289 10.42163086 C-4.87229126 11.94542358 -4.87229126 11.94542358 -5.75 13.5 C-15.98444557 32.0783986 -24.15019961 51.23760824 -31.25 71.1875 C-42.2001118 101.95218273 -59.17505626 132.23764643 -88.83203125 148.49609375 C-100.83801783 154.19560649 -112.49748543 157.48582776 -125.53125 153.03125 C-136.86384864 148.29737968 -146.02792329 140.66480694 -151.0703125 129.328125 C-155.8182234 117.43839854 -154.77147542 106.61070463 -149.87744141 94.89794922 C-145.32416792 85.04899316 -138.52363577 76.72801298 -131 69 C-130.23042969 68.16855469 -129.46085938 67.33710937 -128.66796875 66.48046875 C-111.47130053 48.39479668 -88.20684872 38.67140817 -65.1875 30.3125 C-43.03938519 22.23932998 -19.71693812 13.14462542 0 0 Z " fill="#EEC319" transform="translate(980,863)"/>
<path d="M0 0 C29.39876295 18.90864964 44.24878334 48.70246869 55.7668457 80.51171875 C63.17509523 100.94774058 72.13896687 120.37169218 82.45141602 139.50708008 C83.53723978 141.54756506 84.58162348 143.6036222 85.60546875 145.67578125 C82.30060414 144.41559298 79.25055285 143.00082346 76.18359375 141.2421875 C56.68499381 130.22994797 36.70727801 121.62453149 15.58251953 114.23388672 C-4.31357382 107.24171171 -22.32311979 98.54939286 -38.39453125 84.67578125 C-39.60302734 83.68384766 -39.60302734 83.68384766 -40.8359375 82.671875 C-51.54379492 73.57270978 -59.90684176 62.62971493 -65.39453125 49.67578125 C-65.73226562 48.96679688 -66.07 48.2578125 -66.41796875 47.52734375 C-69.92034437 39.1409214 -69.83323356 27.34353667 -67.26953125 18.67578125 C-62.76150959 7.87314869 -54.62673801 -0.83258365 -44.33203125 -6.38671875 C-29.6976953 -12.34808898 -13.04937157 -7.58859559 0 0 Z " fill="#EEC319" transform="translate(895.39453125,676.32421875)"/>
<path d="M0 0 C9.6666726 6.67372205 17.10958719 16.00774061 19.5859375 27.6015625 C21.72211367 41.69511506 16.12543391 55.94089135 8.0234375 67.37109375 C6.04784757 69.88125507 4.00224819 72.3046447 1.90625 74.71484375 C1.27847656 75.47539063 0.65070313 76.2359375 0.00390625 77.01953125 C-17.45317925 97.65387771 -41.9247611 108.66084174 -66.7421875 117.57568359 C-77.72619337 121.52724876 -88.46801336 125.87952504 -99.09375 130.71484375 C-99.9894873 131.12089844 -100.88522461 131.52695312 -101.80810547 131.9453125 C-111.87097698 136.53781135 -121.5840297 141.26282565 -130.79296875 147.4140625 C-131.93185547 148.05794922 -131.93185547 148.05794922 -133.09375 148.71484375 C-133.75375 148.38484375 -134.41375 148.05484375 -135.09375 147.71484375 C-134.49949219 146.68230469 -133.90523437 145.64976562 -133.29296875 144.5859375 C-119.89643536 121.05511133 -109.32404559 96.49960156 -100.34912109 70.96411133 C-93.22809626 50.83605635 -82.73160243 34.24942948 -68.09375 18.71484375 C-67.47113281 18.02777344 -66.84851562 17.34070313 -66.20703125 16.6328125 C-49.70694601 -0.90501395 -22.51394998 -13.81919691 0 0 Z " fill="#EEC319" transform="translate(1157.09375,673.28515625)"/>
<path d="M0 0 C3.90862387 1.43888901 7.3065338 3.29731017 10.875 5.4375 C29.32064925 16.19368531 49.10716274 24.2536617 69.09765625 31.62109375 C103.30073116 44.2535544 132.95683466 61.12206292 150.4375 94.5 C154.97282495 104.65912789 156.56278434 117.31505549 152.78515625 128.0703125 C146.91571551 140.6378209 137.91808039 149.00867081 124.98046875 153.73828125 C112.62615353 157.43702735 100.7942953 153.92890555 89.64453125 148.30859375 C76.80451864 140.81728311 65.79905779 130.97003899 57 119 C56.27554687 118.03964844 55.55109375 117.07929687 54.8046875 116.08984375 C44.20805585 101.48716843 37.34450448 85.78285908 31.36608887 68.85058594 C19.59610121 34.69237083 19.59610121 34.69237083 1.35766602 3.87280273 C0 2 0 2 0 0 Z " fill="#EFC319" transform="translate(1022,863)"/>
<path d="M0 0 C7.02508238 -0.1245514 14.04950753 -0.21478763 21.07543945 -0.2746582 C23.46031913 -0.29964342 25.84512349 -0.33364344 28.22973633 -0.37719727 C56.10797761 -0.87325138 56.10797761 -0.87325138 68.0625 7.75 C73.46357277 13.05702424 75.22928652 18.98404048 75.5625 26.4375 C75.26954223 34.80632697 72.29828057 40.85880349 66.5625 46.875 C63.58356242 49.63835657 60.46552171 51.88687701 57 54 C57.7734375 54.27972656 58.546875 54.55945312 59.34375 54.84765625 C68.86301753 58.51163175 75.89895773 63.02216561 81 72 C83.41000303 79.23000908 82.49859657 86.72249708 79.3828125 93.5859375 C73.14227664 104.48043231 63.12254683 110.65479511 51.34765625 114.31640625 C42.85289473 116.0510425 34.00521443 115.37402113 25.46484375 114.2265625 C16.05508208 113.36163987 6.34894564 113.74148809 -3 115 C-3 112.36 -3 109.72 -3 107 C-2.31292969 106.75765625 -1.62585937 106.5153125 -0.91796875 106.265625 C0.43361328 105.76289062 0.43361328 105.76289062 1.8125 105.25 C2.70582031 104.92515625 3.59914063 104.6003125 4.51953125 104.265625 C8.3610903 102.30552243 9.65878917 100.0236325 11 96 C11.10133284 93.35394442 11.14684036 90.73415438 11.14526367 88.08789062 C11.14862228 87.28272507 11.1519809 86.47755951 11.15544128 85.647995 C11.16494746 82.98406435 11.16689408 80.32019656 11.16796875 77.65625 C11.17118104 75.80684381 11.17454509 73.95743788 11.17805481 72.10803223 C11.18404487 68.23103241 11.18589478 64.3540549 11.18530273 60.47705078 C11.185201 55.50348385 11.19886556 50.53005932 11.21607494 45.55652618 C11.22717885 41.73731832 11.22922246 37.91814509 11.22869301 34.09892273 C11.22987508 32.26486214 11.23430953 30.43080072 11.24202538 28.59675598 C11.25179492 26.03510472 11.24895956 23.47376539 11.24291992 20.91210938 C11.25134918 19.77119087 11.25134918 19.77119087 11.25994873 18.60722351 C11.23740568 14.85498247 11.13616316 13.20424474 9 10 C6.57478506 9.41810734 6.57478506 9.41810734 3.875 9.3125 C2.96492188 9.24675781 2.05484375 9.18101563 1.1171875 9.11328125 C0.06917969 9.05720703 0.06917969 9.05720703 -1 9 C-0.67 6.03 -0.34 3.06 0 0 Z " fill="#EBC019" transform="translate(1073,1199)"/>
<path d="M0 0 C0.72605942 -0.00882706 1.45211884 -0.01765411 2.20018005 -0.02674866 C8.86514039 -0.04339929 14.90951352 1.12206762 21.24609375 3.10546875 C22.11492187 3.37230469 22.98375 3.63914062 23.87890625 3.9140625 C35.98994766 8.18519779 45.64099831 16.68237327 51.77734375 27.90625 C59.07811211 43.25059746 59.31063299 59.2320344 53.7890625 75.1953125 C47.38689361 92.09917653 35.40926133 104.0275776 19.18359375 111.51953125 C8.00077588 115.83734148 -3.24191758 115.62231667 -15.06640625 114.60546875 C-26.6759687 113.6345376 -38.1676074 114.01131574 -49.75390625 115.10546875 C-49.42390625 112.46546875 -49.09390625 109.82546875 -48.75390625 107.10546875 C-47.72330078 106.75935547 -47.72330078 106.75935547 -46.671875 106.40625 C-45.77082031 106.08011719 -44.86976563 105.75398438 -43.94140625 105.41796875 C-43.04808594 105.10472656 -42.15476562 104.79148437 -41.234375 104.46875 C-38.04782721 102.71740326 -37.28517004 101.4075874 -35.75390625 98.10546875 C-35.47851528 95.1848425 -35.36361176 92.48390538 -35.39746094 89.56738281 C-35.39541656 88.71969833 -35.39337219 87.87201385 -35.39126587 86.99864197 C-35.38826549 84.20590417 -35.40670797 81.41376103 -35.42578125 78.62109375 C-35.42883941 76.68007554 -35.4307151 74.73905514 -35.43145752 72.79803467 C-35.4360554 68.73620163 -35.4504654 64.67456743 -35.47265625 60.61279297 C-35.50101358 55.39473772 -35.5118758 50.17683852 -35.51633835 44.95871353 C-35.52048456 40.95428901 -35.5302941 36.94989631 -35.54221344 32.94548798 C-35.54792657 31.02046718 -35.55268181 29.09544331 -35.55648041 27.17041779 C-35.56331837 24.48888194 -35.57693692 21.80747242 -35.59277344 19.12597656 C-35.5938913 18.32391281 -35.59500916 17.52184906 -35.59616089 16.69548035 C-35.29015881 13.10328234 -35.29015881 13.10328234 -36.75390625 10.10546875 C-38.60282571 9.87182994 -40.45878656 9.6924324 -42.31640625 9.54296875 C-43.32832031 9.45917969 -44.34023438 9.37539062 -45.3828125 9.2890625 C-46.16527344 9.22847656 -46.94773437 9.16789062 -47.75390625 9.10546875 C-46.87890625 2.23046875 -46.87890625 2.23046875 -45.75390625 1.10546875 C-43.29987929 0.94462106 -40.87118995 0.84563891 -38.4140625 0.7890625 C-37.28163368 0.75789085 -37.28163368 0.75789085 -36.12632751 0.72608948 C-34.51307083 0.68268992 -32.89974883 0.64166542 -31.28637695 0.6027832 C-28.88540144 0.54463958 -26.48472752 0.47909412 -24.08398438 0.41210938 C-16.05728137 0.19681872 -8.02947565 0.05083758 0 0 Z M-19.75390625 11.10546875 C-20.11117953 14.14564204 -20.11117953 14.14564204 -20.1328125 17.73828125 C-20.14980698 18.40777802 -20.16680145 19.07727478 -20.18431091 19.76705933 C-20.2374739 21.92143136 -20.27757678 24.07579481 -20.31640625 26.23046875 C-20.37568892 29.02485315 -20.4406678 31.81907557 -20.5078125 34.61328125 C-20.52387039 35.3188768 -20.53992828 36.02447235 -20.55647278 36.75144958 C-20.67649502 41.49904491 -20.93870139 46.22239945 -21.26953125 50.9609375 C-21.82103164 59.25844204 -21.94004569 67.53164672 -21.93920898 75.84594727 C-21.9414387 78.32910277 -21.95981298 80.81184186 -21.97851562 83.29492188 C-21.98144327 84.89192559 -21.98343226 86.48893138 -21.984375 88.0859375 C-21.99156052 88.81926804 -21.99874603 89.55259857 -22.00614929 90.30815125 C-21.9818589 95.74589909 -21.40276069 99.40950418 -17.56640625 103.35546875 C-10.44863831 107.78430213 0.99506933 106.98303212 9.24609375 106.10546875 C17.31182046 104.09354811 23.59587675 100.13659925 29.24609375 94.10546875 C30.06013672 93.26435547 30.06013672 93.26435547 30.890625 92.40625 C40.55428286 81.12790501 42.0454624 64.49749334 41.42529297 50.24902344 C40.49422344 39.11170668 35.14997586 28.57381332 27.18359375 20.85546875 C16.30392417 11.80739337 3.98560287 9.00151189 -9.75390625 8.85546875 C-10.50897461 8.84596191 -11.26404297 8.83645508 -12.04199219 8.82666016 C-16.36317976 8.70123917 -16.36317976 8.70123917 -19.75390625 11.10546875 Z " fill="#EBC019" transform="translate(935.75390625,1198.89453125)"/>
<path d="M0 0 C4.48562685 3.6080042 8.41979865 8.38394508 9.35400391 14.20629883 C9.46329975 16.56664 9.44855515 18.88849251 9.375 21.25 C9.37371094 22.05179688 9.37242188 22.85359375 9.37109375 23.6796875 C9.31212325 27.59794956 9.21478182 29.67782727 7 33 C4.89926147 33.36076355 4.89926147 33.36076355 2.27490234 33.34057617 C1.29403656 33.34034958 0.31317078 33.34012299 -0.69741821 33.33988953 C-1.75891083 33.32440567 -2.82040344 33.30892181 -3.9140625 33.29296875 C-4.99883881 33.28872391 -6.08361511 33.28447906 -7.20126343 33.28010559 C-10.67609167 33.263273 -14.15034618 33.22561189 -17.625 33.1875 C-19.97655414 33.17245911 -22.32811735 33.15876967 -24.6796875 33.14648438 C-30.45332173 33.11335454 -36.22661989 33.06310982 -42 33 C-41.70606221 35.38621643 -41.40565994 37.77132481 -41.1015625 40.15625 C-41.0197876 40.8255957 -40.9380127 41.49494141 -40.85375977 42.18457031 C-39.66113394 51.43165964 -37.34950289 57.6274489 -30.09765625 63.625 C-23.74143832 67.79145942 -17.38693884 67.69581242 -10 67 C-6.50859144 66.12809558 -3.16642696 65.08149687 0.22265625 63.875 C3 63 3 63 7 63 C7.33 64.98 7.66 66.96 8 69 C5.8152247 70.27571484 3.62738381 71.54560673 1.4375 72.8125 C0.82841797 73.16892578 0.21933594 73.52535156 -0.40820312 73.89257812 C-10.44687078 79.68207429 -19.22711637 81.80759965 -30.84375 79.4140625 C-39.64829456 76.37705188 -47.64528508 69.18686405 -52 61 C-57.28555325 49.1075052 -57.56304987 36.41404666 -53.31640625 24.1328125 C-48.4581104 12.57093336 -40.64264531 3.33260142 -29.1875 -2.0625 C-19.26456229 -5.7310572 -9.22914346 -5.2886103 0 0 Z " fill="#E9BE19" transform="translate(1055,1234)"/>
<path d="M0 0 C0 2.31 0 4.62 0 7 C-0.56589844 7.19335938 -1.13179687 7.38671875 -1.71484375 7.5859375 C-2.81505859 7.97652344 -2.81505859 7.97652344 -3.9375 8.375 C-5.03384766 8.75785156 -5.03384766 8.75785156 -6.15234375 9.1484375 C-8.18682116 9.85271413 -8.18682116 9.85271413 -9 12 C-10.19916628 20.81269582 -10.20498883 29.75935125 -10.35386086 38.63884544 C-10.4100978 41.8767226 -10.48026823 45.11425766 -10.54944134 48.35188007 C-10.67739828 54.34549185 -10.80024597 60.33907528 -10.89868164 66.33325195 C-10.96824303 70.53616552 -11.05604284 74.73838033 -11.15506554 78.94069862 C-11.18905697 80.52023024 -11.21671135 82.09991419 -11.23725319 83.67967796 C-11.4441719 99.17266914 -12.78948751 116.12742107 -23.84765625 127.98046875 C-28.66699021 132.47404256 -35.17625241 138 -42 138 C-43.30395297 135.85231275 -44.06054366 134.56619536 -43.7890625 132.02734375 C-42.78018716 129.43523335 -41.64272775 128.79053017 -39.3125 127.3125 C-31.991928 122.05165883 -28.63409263 115.44441501 -26.59558105 106.79742432 C-25.30888943 98.59347959 -25.61670468 90.27557237 -25.671875 81.9921875 C-25.67493785 79.97388856 -25.67680997 77.9555875 -25.67755127 75.93728638 C-25.6821278 71.73317217 -25.69645989 67.52925235 -25.71875 63.32519531 C-25.74721302 57.92920132 -25.7579827 52.53335864 -25.7624321 47.13729668 C-25.76657857 42.98186731 -25.77638663 38.8264686 -25.78830719 34.67105484 C-25.79401029 32.67987437 -25.79876886 30.68869096 -25.80257416 28.69750595 C-25.80941935 25.92832943 -25.82303868 23.15927461 -25.83886719 20.39013672 C-25.83998505 19.5652626 -25.84110291 18.74038849 -25.84225464 17.89051819 C-25.77521063 13.81359023 -25.77521063 13.81359023 -27 10 C-30.04581269 9.53045739 -30.04581269 9.53045739 -33.5625 9.375 C-34.76003906 9.30023437 -35.95757813 9.22546875 -37.19140625 9.1484375 C-38.11824219 9.09945313 -39.04507813 9.05046875 -40 9 C-39.67 6.36 -39.34 3.72 -39 1 C-35.05314076 0.85527413 -31.10620179 0.71296953 -27.15917969 0.57275391 C-25.16857531 0.5015585 -23.17803662 0.42853408 -21.1875 0.35546875 C-14.12135412 0.10565551 -7.07068378 -0.07506476 0 0 Z " fill="#ECC119" transform="translate(876,1199)"/>
<path d="M0 0 C9.45568005 0.13019039 16.6792089 1.99922769 23.67724609 8.63330078 C28.4458317 14.08491987 29.83234162 19.36977053 29.53271484 26.57080078 C28.69637433 32.57026386 26.57133319 36.83085319 22.39990234 41.19189453 C14.22487839 46.5371025 6.8201661 47.34133458 -2.85009766 46.31689453 C-7.76407623 44.8628341 -11.24136369 42.80466856 -13.85009766 38.31689453 C-14.1189388 35.4246426 -14.22360956 32.75535304 -14.17822266 29.86767578 C-14.17634949 29.05445358 -14.17447632 28.24123138 -14.17254639 27.40336609 C-14.16583766 25.68952313 -14.15194656 23.97569518 -14.13134766 22.26196289 C-14.10008629 19.62843726 -14.09036514 16.99550951 -14.08447266 14.36181641 C-14.07530676 12.69709551 -14.06493231 11.03238073 -14.05322266 9.36767578 C-14.04897278 8.57605545 -14.0447229 7.78443512 -14.04034424 6.96882629 C-13.9160025 -2.45019073 -8.03530747 0.01212368 0 0 Z " fill="#1F1E19" transform="translate(1110.85009765625,1258.68310546875)"/>
<path d="M0 0 C8.61714579 0.10197806 15.61189262 1.64831529 22.4375 7.1875 C27.69761851 13.93124168 28.16879572 19.85708783 27.4375 28.1875 C25.65086159 34.94713833 20.89243509 39.11400951 15.4375 43.1875 C12.06488716 44.87380642 8.26791037 44.32989629 4.5625 44.3125 C3.33853516 44.31830078 3.33853516 44.31830078 2.08984375 44.32421875 C1.29964844 44.32292969 0.50945312 44.32164063 -0.3046875 44.3203125 C-1.0251123 44.31918457 -1.74553711 44.31805664 -2.48779297 44.31689453 C-4.62105744 44.18384791 -6.51001238 43.76954873 -8.5625 43.1875 C-8.83530891 33.15419445 -8.38628481 23.25643725 -7.625 13.25 C-7.53814941 12.08227051 -7.45129883 10.91454102 -7.36181641 9.71142578 C-7.23105713 8.07729736 -7.23105713 8.07729736 -7.09765625 6.41015625 C-6.97982788 4.93687866 -6.97982788 4.93687866 -6.85961914 3.43383789 C-6.28806838 -0.88731129 -3.8767124 0.02425978 0 0 Z " fill="#1D1C19" transform="translate(1106.5625,1206.8125)"/>
<path d="M0 0 C3.77227185 3.32319187 5.32364974 6.28914823 6.0625 11.25 C5.50012406 15.18663157 4.20138778 18.26365142 1.625 21.3125 C-3.70172533 25.23890063 -8.98068335 25.25564007 -15.375 24.3125 C-19.07628796 22.46539453 -21.09256903 19.73614645 -23.375 16.3125 C-24.14475995 12.07882027 -24.30365216 8.01451132 -22.20703125 4.171875 C-16.01355137 -3.40677905 -8.66257768 -4.33128884 0 0 Z " fill="#F1F1F1" transform="translate(1040.375,1393.6875)"/>
<path d="M0 0 C3.1363863 2.11523727 4.84345818 3.47903979 6.6875 6.8125 C7.16265079 10.19728201 7.34837041 13.44861007 6.6875 16.8125 C3.13146632 19.18318912 0.50756655 19.15715108 -3.60546875 19.2265625 C-4.31149734 19.24592865 -5.01752594 19.2652948 -5.74494934 19.2852478 C-7.99651061 19.34495224 -10.24812328 19.3913914 -12.5 19.4375 C-14.02801689 19.47568829 -15.55601245 19.51474052 -17.08398438 19.5546875 C-20.82664935 19.65064596 -24.5694151 19.73471011 -28.3125 19.8125 C-27.6841115 12.74497754 -26.27470044 8.99294537 -21.3125 3.8125 C-14.94921412 -1.49533702 -7.78430158 -2.79059868 0 0 Z " fill="#201F19" transform="translate(1042.3125,1240.1875)"/>
<path d="M0 0 C2.701875 -0.061875 5.40375 -0.12375 8.1875 -0.1875 C9.02949951 -0.21481201 9.87149902 -0.24212402 10.73901367 -0.27026367 C15.34851052 -0.32121853 18.21405911 0.08151741 22 3 C22.33 3.33 22.66 3.66 23 4 C22.30232558 10.39534884 22.30232558 10.39534884 21 13 C21.495 13.37125 21.99 13.7425 22.5 14.125 C24 16 24 16 24.5 18.9375 C24 22 24 22 22.08203125 24.17578125 C17.73689266 26.74761866 14.125891 26.44001896 9.1875 26.25 C6.155625 26.1675 3.12375 26.085 0 26 C0 17.42 0 8.84 0 0 Z " fill="#F3F3F3" transform="translate(1196,1392)"/>
<path d="M0 0 C2.31 0 4.62 0 7 0 C8.65 4.95 10.3 9.9 12 15 C12.61875 13.453125 13.2375 11.90625 13.875 10.3125 C15.25 6.875 16.625 3.4375 18 0 C19.98 0 21.96 0 24 0 C28.40774487 10.37357631 28.40774487 10.37357631 29 16 C29.66 16 30.32 16 31 16 C31.16435547 15.14728516 31.16435547 15.14728516 31.33203125 14.27734375 C32.37938166 9.17683242 33.79271753 4.715558 36 0 C37.98 0 39.96 0 42 0 C39.36 8.58 36.72 17.16 34 26 C31.69 26 29.38 26 27 26 C26.15787744 24.08717875 25.32661136 22.16957527 24.5 20.25 C24.0359375 19.18265625 23.571875 18.1153125 23.09375 17.015625 C22 14 22 14 22 10 C21.34 10 20.68 10 20 10 C19.83564453 10.85271484 19.83564453 10.85271484 19.66796875 11.72265625 C18.62061834 16.82316758 17.20728247 21.284442 15 26 C12.69 26 10.38 26 8 26 C5.36 17.42 2.72 8.84 0 0 Z " fill="#F3F3F3" transform="translate(1111,1392)"/>
<path d="M0 0 C2.35125 -0.061875 4.7025 -0.12375 7.125 -0.1875 C7.85348145 -0.21481201 8.58196289 -0.24212402 9.33251953 -0.27026367 C13.98540198 -0.32894527 17.07173542 0.53438712 21 3 C22.75554241 6.51108482 22.66564041 10.1775105 22 14 C19.07152746 17.77618828 19.07152746 17.77618828 16 19 C12.62009776 19.38225085 9.38357638 19.30091094 6 19 C6 21.31 6 23.62 6 26 C4.02 26 2.04 26 0 26 C0 17.42 0 8.84 0 0 Z " fill="#F8F8F8" transform="translate(810,1392)"/>
<path d="M0 0 C5 0 5 0 6.57739258 1.16162109 C7.01204834 1.69352051 7.4467041 2.22541992 7.89453125 2.7734375 C8.37470703 3.3509375 8.85488281 3.9284375 9.34960938 4.5234375 C9.83236328 5.13445312 10.31511719 5.74546875 10.8125 6.375 C11.31458984 6.97828125 11.81667969 7.5815625 12.33398438 8.203125 C16 12.69212372 16 12.69212372 16 15 C16.66 15 17.32 15 18 15 C18 10.05 18 5.1 18 0 C19.98 0 21.96 0 24 0 C24 8.58 24 17.16 24 26 C18 26 18 26 16.30908203 24.80664062 C15.87966309 24.26201172 15.45024414 23.71738281 15.0078125 23.15625 C14.53085938 22.56972656 14.05390625 21.98320313 13.5625 21.37890625 C13.088125 20.75886719 12.61375 20.13882812 12.125 19.5 C11.62742187 18.87996094 11.12984375 18.25992187 10.6171875 17.62109375 C9.39519299 16.09360061 8.19535383 14.54842988 7 13 C6.67 17.29 6.34 21.58 6 26 C4.02 26 2.04 26 0 26 C0 17.42 0 8.84 0 0 Z " fill="#F3F3F3" transform="translate(1058,1392)"/>
<path d="M0 0 C2.31 0 4.62 0 7 0 C8.83944626 3.95552103 10.67051553 7.91486285 12.5 11.875 C13.02464844 13.00292969 13.54929687 14.13085938 14.08984375 15.29296875 C14.58613281 16.36933594 15.08242188 17.44570312 15.59375 18.5546875 C16.05458984 19.54968262 16.51542969 20.54467773 16.99023438 21.56982422 C18 24 18 24 18 26 C16.02 26 14.04 26 12 26 C11.34 24.35 10.68 22.7 10 21 C5.71 21 1.42 21 -3 21 C-3.99 23.475 -3.99 23.475 -5 26 C-6.98 26 -8.96 26 -11 26 C-9.28137532 20.31531835 -6.8358325 15.01576119 -4.375 9.625 C-3.95476563 8.69816406 -3.53453125 7.77132813 -3.1015625 6.81640625 C-2.07035118 4.54305401 -1.03643137 2.27097594 0 0 Z " fill="#F1F1F1" transform="translate(936,1392)"/>
<path d="M0 0 C1.4540625 0.0309375 1.4540625 0.0309375 2.9375 0.0625 C11.70345745 17.21143617 11.70345745 17.21143617 14.9375 26.0625 C12.6275 26.0625 10.3175 26.0625 7.9375 26.0625 C7.2775 24.4125 6.6175 22.7625 5.9375 21.0625 C1.9775 21.0625 -1.9825 21.0625 -6.0625 21.0625 C-7.0525 23.5375 -7.0525 23.5375 -8.0625 26.0625 C-10.0425 26.0625 -12.0225 26.0625 -14.0625 26.0625 C-13.46082254 22.51701319 -12.51583792 19.5059669 -11.03125 16.234375 C-10.43376953 14.91179687 -10.43376953 14.91179687 -9.82421875 13.5625 C-9.40785156 12.655 -8.99148438 11.7475 -8.5625 10.8125 C-8.14613281 9.88953125 -7.72976563 8.9665625 -7.30078125 8.015625 C-3.69263134 0.07535982 -3.69263134 0.07535982 0 0 Z " fill="#F6F6F6" transform="translate(785.0625,1391.9375)"/>
<path d="M0 0 C6.6 0 13.2 0 20 0 C20 1.65 20 3.3 20 5 C15.38 5 10.76 5 6 5 C6 6.65 6 8.3 6 10 C9.96 10 13.92 10 18 10 C18 11.65 18 13.3 18 15 C14.04 15 10.08 15 6 15 C6 16.98 6 18.96 6 21 C10.62 21 15.24 21 20 21 C20 22.65 20 24.3 20 26 C13.4 26 6.8 26 0 26 C0 17.42 0 8.84 0 0 Z " fill="#F3F3F3" transform="translate(1164,1392)"/>
<path d="M0 0 C0.845625 0.495 1.69125 0.99 2.5625 1.5 C2.5625 2.82 2.5625 4.14 2.5625 5.5 C0.625 6.0625 0.625 6.0625 -1.4375 6.5 C-1.7675 6.17 -2.0975 5.84 -2.4375 5.5 C-7.61567134 5.05066905 -7.61567134 5.05066905 -12.4375 6.5 C-14.06682095 9.7586419 -13.96423518 12.93897344 -13.4375 16.5 C-12.53992444 18.64780077 -12.53992444 18.64780077 -10.4375 19.5 C-6.18868727 19.8862557 -3.07780688 19.8297964 0.5625 17.5 C1.5525 18.49 2.5425 19.48 3.5625 20.5 C2.5625 23.5 2.5625 23.5 0.8359375 24.6640625 C-3.488997 26.25433051 -7.90791809 26.02516892 -12.4375 25.5 C-16.25633489 23.72696952 -17.93189614 22.20132149 -20.375 18.8125 C-21.78581968 14.41406218 -21.63652988 10.94298059 -20.4375 6.5 C-15.90481952 -1.22234451 -8.14023913 -3.55210435 0 0 Z " fill="#EFEFEF" transform="translate(983.4375,1392.5)"/>
<path d="M0 0 C0.845625 0.495 1.69125 0.99 2.5625 1.5 C2.5625 2.82 2.5625 4.14 2.5625 5.5 C0.625 6.0625 0.625 6.0625 -1.4375 6.5 C-1.7675 6.17 -2.0975 5.84 -2.4375 5.5 C-7.61567134 5.05066905 -7.61567134 5.05066905 -12.4375 6.5 C-14.06682095 9.7586419 -13.96423518 12.93897344 -13.4375 16.5 C-12.53992444 18.64780077 -12.53992444 18.64780077 -10.4375 19.5 C-6.18868727 19.8862557 -3.07780688 19.8297964 0.5625 17.5 C1.5525 18.49 2.5425 19.48 3.5625 20.5 C2.5625 23.5 2.5625 23.5 0.8359375 24.6640625 C-3.488997 26.25433051 -7.90791809 26.02516892 -12.4375 25.5 C-16.25633489 23.72696952 -17.93189614 22.20132149 -20.375 18.8125 C-21.78581968 14.41406218 -21.63652988 10.94298059 -20.4375 6.5 C-15.90481952 -1.22234451 -8.14023913 -3.55210435 0 0 Z " fill="#EFEFEF" transform="translate(913.4375,1392.5)"/>
<path d="M0 0 C1.98 0 3.96 0 6 0 C6 6.93 6 13.86 6 21 C10.62 21 15.24 21 20 21 C20 22.65 20 24.3 20 26 C13.4 26 6.8 26 0 26 C0 17.42 0 8.84 0 0 Z " fill="#F4F4F4" transform="translate(844,1392)"/>
<path d="M0 0 C1.90625 0.41015625 1.90625 0.41015625 4.40625 1.91015625 C6.52522146 5.44177535 6.70466448 8.39339062 5.90625 12.41015625 C4.34375 14.91015625 4.34375 14.91015625 1.90625 16.41015625 C-1.53125 16.97265625 -1.53125 16.97265625 -5.09375 16.41015625 C-8.48052089 13.96015178 -9.88073584 12.54623179 -10.65625 8.41015625 C-9.4436499 1.94295573 -6.36945565 -0.4634492 0 0 Z " fill="#1F1F1F" transform="translate(1033.09375,1396.58984375)"/>
<path d="M0 0 C1.98 0 3.96 0 6 0 C6 8.58 6 17.16 6 26 C4.02 26 2.04 26 0 26 C0 17.42 0 8.84 0 0 Z " fill="#FBFBFB" transform="translate(999,1392)"/>
<path d="M0 0 C1.98 0 3.96 0 6 0 C6 8.58 6 17.16 6 26 C4.02 26 2.04 26 0 26 C0 17.42 0 8.84 0 0 Z " fill="#F3F3F3" transform="translate(874,1392)"/>
<path d="M0 0 C6.0546875 -0.1953125 6.0546875 -0.1953125 8 0 C10 2 10 2 10.3125 4.5 C10.1578125 5.7375 10.1578125 5.7375 10 7 C6.3558226 9.4294516 4.28758728 9.16179575 0 9 C0 6.03 0 3.06 0 0 Z " fill="#1F1F1F" transform="translate(816,1397)"/>
<path d="M0 0 C1.62463842 -0.05395478 3.24978541 -0.09277195 4.875 -0.125 C5.77992187 -0.14820313 6.68484375 -0.17140625 7.6171875 -0.1953125 C10 0 10 0 12 2 C11.67 3.32 11.34 4.64 11 6 C7.37 6 3.74 6 0 6 C0 4.02 0 2.04 0 0 Z " fill="#212121" transform="translate(1202,1407)"/>
<path d="M0 0 C3.3 0 6.6 0 10 0 C10 1.65 10 3.3 10 5 C6.7 5 3.4 5 0 5 C0 3.35 0 1.7 0 0 Z " fill="#202020" transform="translate(1202,1397)"/>
<path d="M0 0 C0.66 0 1.32 0 2 0 C2.99 2.97 3.98 5.94 5 9 C2.36 9 -0.28 9 -3 9 C-2.01 6.03 -1.02 3.06 0 0 Z " fill="#373737" transform="translate(784,1399)"/>
<path d="M0 0 C2.97903734 2.97903734 4 5.80285329 4 10 C1.69 10 -0.62 10 -3 10 C-2.39009109 6.44219804 -1.4216319 3.3171411 0 0 Z " fill="#323232" transform="translate(939,1398)"/>
<path d="M0 0 C0.886875 0.12375 1.77375 0.2475 2.6875 0.375 C-3.3125 6.375 -3.3125 6.375 -5.875 6.4375 C-7.0815625 6.4065625 -7.0815625 6.4065625 -8.3125 6.375 C-4.12788462 0.46730769 -4.12788462 0.46730769 0 0 Z " fill="#DEDEDE" transform="translate(1036.3125,1383.625)"/>
</svg>
