<?xml version="1.0" encoding="UTF-8"?>
<svg version="1.1" xmlns="http://www.w3.org/2000/svg" width="2000" height="2000">
<path d="M0 0 C660 0 1320 0 2000 0 C2000 660 2000 1320 2000 2000 C1340 2000 680 2000 0 2000 C0 1340 0 680 0 0 Z " fill="#FEFEFE" transform="translate(0,0)"/>
<path d="M0 0 C1.02158203 0.15597656 2.04316406 0.31195312 3.09570312 0.47265625 C18.3445355 2.86776081 32.69529418 6.17552929 47 12 C47.76070801 12.30276855 48.52141602 12.60553711 49.30517578 12.91748047 C65.72532596 19.5240116 80.67900096 28.32033834 94 40 C95.08125402 40.85679727 96.16423883 41.71142158 97.25 42.5625 C100.18179685 45.16113812 102.68035225 47.92222738 105.21484375 50.90234375 C106.3749868 52.2655753 107.55390796 53.61312306 108.75390625 54.94140625 C124.60550839 72.49519385 135.03753794 94.55737233 141.375 117.1875 C141.61371826 118.02877441 141.85243652 118.87004883 142.09838867 119.73681641 C145.64961657 133.18396146 146.44694662 146.96588204 146.4375 160.8125 C146.4375705 161.56634979 146.43764099 162.32019958 146.43771362 163.09689331 C146.24589083 217.0175005 120.19914974 265.71015712 82.875 303.375 C77.55595474 308.64555648 71.8896292 313.38380414 66 318 C64.93143612 318.85831096 63.86376283 319.71773159 62.796875 320.578125 C47.67194434 332.71222542 31.8126483 343.34608307 15 353 C14.1430957 353.495 13.28619141 353.99 12.40332031 354.5 C-2.59841968 363.1076476 -18.11644149 370.20368718 -34 377 C-28.32641038 378.51663392 -22.6502651 379.63550578 -16.86645508 380.64770508 C33.9421986 389.57222972 86.98946001 407.90255476 128 440 C129.34578125 441.02867187 129.34578125 441.02867187 130.71875 442.078125 C137.48623909 447.34648676 143.76566225 453.12018076 150 459 C150.73347656 459.6909375 151.46695313 460.381875 152.22265625 461.09375 C179.32021783 487.3832332 194.92188201 522.21219089 201 559 C201.11859375 559.69254883 201.2371875 560.38509766 201.359375 561.09863281 C206.67079385 593.5204187 203.18657786 627.96604241 193 659 C192.74379883 659.81839355 192.48759766 660.63678711 192.22363281 661.47998047 C176.80271883 710.7127479 142.33355374 750.99184591 98.0546875 776.79492188 C96.20898881 777.87742767 94.383616 778.98621029 92.5625 780.109375 C57.62624095 801.10472298 16.12904873 812.03261758 -24 817 C-24.65775421 817.08613556 -25.31550842 817.17227112 -25.99319458 817.26101685 C-39.89744742 819.05821918 -53.67940698 819.35766766 -67.6875 819.3125 C-68.8026297 819.31134186 -69.9177594 819.31018372 -71.06668091 819.30899048 C-89.56109092 819.27113241 -107.64988122 818.36645711 -126 816 C-127.71604365 815.80379174 -129.43218034 815.60839436 -131.1484375 815.4140625 C-182.04581163 809.15898915 -233.34232908 790.72674197 -278 766 C-278.61311035 765.66436035 -279.2262207 765.3287207 -279.85791016 764.98291016 C-302.01788955 752.82111896 -322.83758589 738.59561842 -342.25732422 722.43847656 C-343.7723666 721.18789801 -345.30828987 719.96270021 -346.84765625 718.7421875 C-383.63038145 689.56011592 -383.63038145 689.56011592 -385.5 677.875 C-384.7639061 672.17027225 -382.44922513 669.5458976 -378 666 C-366.29157194 658.63416558 -354.61822934 654.82118018 -340.8125 654.5 C-339.96848633 654.4690625 -339.12447266 654.438125 -338.25488281 654.40625 C-330.87159428 654.40625 -326.18289475 656.93056679 -320.91796875 662.0078125 C-320.34691406 662.70648437 -319.77585937 663.40515625 -319.1875 664.125 C-309.28452179 675.57800958 -298.46715286 686.75095586 -286.5 696.0546875 C-283.77130516 698.17795318 -281.17872705 700.42737052 -278.5625 702.6875 C-233.54593046 740.16263392 -176.95176307 765.21996101 -120.01147461 777.34130859 C-116.83178201 778.03679385 -113.67199284 778.79978014 -110.5078125 779.5625 C-104.30649239 780.99886743 -98.13344744 781.90957444 -91.8125 782.625 C-90.82958984 782.74617188 -89.84667969 782.86734375 -88.83398438 782.9921875 C-74.12217018 784.71747355 -59.35011786 785.18683901 -44.5480957 785.18530273 C-42.17056017 785.18751577 -39.79347159 785.20586241 -37.41601562 785.22460938 C-28.42557772 785.25834176 -19.85012545 784.77154638 -11 783 C-10.16766846 782.83363037 -9.33533691 782.66726074 -8.4777832 782.49584961 C27.39789722 774.80314316 58.30356794 757.98817822 85 733 C85.94875 732.11699219 86.8975 731.23398438 87.875 730.32421875 C112.72021142 706.66385763 130.74115071 672.68179786 137 639 C137.14808105 638.24847656 137.29616211 637.49695312 137.44873047 636.72265625 C145.46090997 595.2559619 136.73908289 552.88117789 117 516 C116.43410156 514.93910156 115.86820313 513.87820313 115.28515625 512.78515625 C108.72548599 501.03948786 100.21679373 490.75500067 91 481 C90.35546875 480.31421875 89.7109375 479.6284375 89.046875 478.921875 C53.59129184 442.31326474 -0.29544514 422.28973946 -49.45654297 413.46044922 C-52.1531039 412.97228317 -54.84399793 412.45848675 -57.53515625 411.94140625 C-76.62993398 408.31059285 -95.53536062 406.2007566 -114.98086548 405.89451599 C-117.93200177 405.84692902 -120.88283479 405.78615597 -123.83374023 405.72610474 C-126.0188051 405.68825685 -128.20335436 405.6719096 -130.38867188 405.65600586 C-139.01050642 405.52439729 -146.28564402 404.88241081 -153.125 399.25 C-154.52459531 395.65104062 -154.16746635 392.57620439 -153 389 C-148.80657582 381.1249475 -139.94733467 377.68022687 -131.89453125 374.9453125 C-126.57583159 373.50350951 -121.07251419 372.94458013 -115.625 372.1875 C-105.85039374 370.74232243 -96.52787862 368.95831511 -87.18164062 365.74804688 C-85.64313607 365.22052024 -84.09960812 364.70753432 -82.55273438 364.20507812 C-34.306672 348.50970246 12.28499605 314.18220347 42 273 C42.81576618 271.92300533 43.63349877 270.84749747 44.453125 269.7734375 C70.11968206 235.64049893 86.65270982 192.30951296 81.67480469 149.18261719 C80.8066225 143.36305043 79.53355535 137.67806113 78 132 C77.81808105 131.32291992 77.63616211 130.64583984 77.44873047 129.94824219 C68.93283958 99.461505 46.36669018 67.59610846 18.73681641 51.69775391 C-32.61833218 23.2710073 -91.17787689 29.32775369 -145.9699707 44.71459961 C-181.88374335 55.11251463 -218.43529372 69.19780212 -250.80737305 88.21679688 C-254 90 -254 90 -256 90 C-255.22275106 96.12219833 -254.4442805 102.24423983 -253.6647644 108.3661499 C-253.38757561 110.54405309 -253.11066044 112.72199112 -252.83401489 114.89996338 C-251.40824609 126.12176063 -249.97095564 137.33957508 -248.40136719 148.54223633 C-238.77038111 217.73833681 -233.71573866 288.15732697 -233 358 C-232.98356445 359.46732574 -232.98356445 359.46732574 -232.96679688 360.96429443 C-232.49675796 403.84929713 -233.84802537 446.36915022 -237.9375 489.0625 C-238.00143196 489.73130062 -238.06536392 490.40010124 -238.13123322 491.08916855 C-239.43478343 504.6827455 -240.83454089 518.26226334 -242.56640625 531.80859375 C-242.68088608 532.71521255 -242.79536591 533.62183136 -242.91331482 534.55592346 C-243.56173541 539.44838891 -244.41948481 544.22658074 -245.56140137 549.02867126 C-246.23024898 552.03487882 -246.57205942 555.06922069 -246.9375 558.125 C-248.12478503 566.43599522 -249.68147276 571.81309872 -256.36328125 577.296875 C-269.30228819 585.65451504 -285.65621158 589.18534567 -300.82421875 586.5 C-304.31961838 585.48315647 -306.72207557 584.21175195 -309.625 582 C-313.13154572 574.3493548 -309.33197429 563.43371688 -308.0324707 555.30761719 C-297.9822889 492.32637213 -295.15386797 428.77742829 -295.96289062 365.06689453 C-295.99728601 362.22429664 -296.0238444 359.3817719 -296.046875 356.5390625 C-296.60759071 292.08946727 -303.19216374 227.74180267 -311.33169937 163.86550903 C-311.62033725 161.59911213 -311.90740762 159.33252026 -312.19442749 157.06591797 C-314.86545087 135.77374955 -314.86545087 135.77374955 -318.80044556 114.68617249 C-320.25172151 107.82777101 -321.5751368 100.36349305 -318.1875 93.9375 C-314.35896192 88.6429377 -309.23037981 84.82323617 -304 81 C-303.33693848 80.51370117 -302.67387695 80.02740234 -301.99072266 79.52636719 C-289.59382241 70.53644133 -276.61580152 62.98166886 -263 56 C-262.11957031 55.54415527 -261.23914062 55.08831055 -260.33203125 54.61865234 C-224.13010023 36.04310465 -184.44894856 23.48897299 -145 14 C-143.82324707 13.71640625 -142.64649414 13.4328125 -141.43408203 13.140625 C-134.91369207 11.58066148 -128.38326176 10.07460612 -121.83691406 8.62744141 C-120.06946821 8.23653471 -118.3029966 7.84116285 -116.53808594 7.43896484 C-104.48225355 4.70319854 -92.30328178 2.97600512 -80.0625 1.3125 C-78.86794693 1.14933792 -78.86794693 1.14933792 -77.64926147 0.98287964 C-52.00138294 -2.49509582 -25.68243917 -4.0171469 0 0 Z " fill="#010101" transform="translate(1349,544)"/>
<path d="M0 0 C2.85407581 -0.00218035 5.70775997 -0.02038966 8.56176758 -0.03930664 C20.56558929 -0.07551131 32.2849889 0.65548296 44.1887207 2.18530273 C45.36901855 2.33056396 46.54931641 2.4758252 47.76538086 2.62548828 C57.02889311 3.83105717 66.2105254 6.77794478 73.1887207 13.18530273 C76.65444732 17.69257084 76.87247965 22.02631573 77.28637695 27.50561523 C77.3655838 28.42567352 77.44479065 29.34573181 77.52639771 30.29367065 C77.7810267 33.2982928 78.01658109 36.30405892 78.2512207 39.31030273 C78.42221859 41.38327171 78.59385425 43.45618817 78.76611328 45.52905273 C79.93648053 59.8541975 80.88644905 74.18970479 81.59326172 88.54516602 C81.62757294 89.22620392 81.66188416 89.90724182 81.69723511 90.60891724 C81.78686307 92.41284581 81.87120599 94.21703489 81.95507812 96.02124023 C82.13702117 99.15792112 82.13702117 99.15792112 82.68432617 102.11572266 C83.27559587 105.7139966 83.48501555 109.28714145 83.65356445 112.92358398 C83.70975952 114.03938843 83.70975952 114.03938843 83.76708984 115.17773438 C83.84753516 116.77935767 83.92649807 118.38105598 84.00411987 119.9828186 C84.21425592 124.31111697 84.43616656 128.63881329 84.6574707 132.96655273 C84.72441383 134.28191765 84.72441383 134.28191765 84.79270935 135.62385559 C85.18428674 143.25211773 85.64644653 150.87455872 86.1262207 158.49780273 C88.2215179 192.49410637 90.30375196 226.50936615 90.89794922 260.57006836 C90.92427313 262.07072447 90.95091331 263.57137505 90.9777832 265.07202148 C90.99002867 265.75847748 91.00227413 266.44493347 91.01489067 267.15219116 C91.11292013 271.96079701 91.29576713 276.75924093 91.53489399 281.56278706 C92.18315925 294.58579533 92.50920705 307.60601737 92.73950195 320.64233398 C92.76031641 321.78661173 92.78113087 322.93088947 92.80257607 324.1098423 C93.31805281 353.00633956 93.38782185 381.90322438 93.37682056 410.80358553 C93.37621401 412.89590125 93.37617142 414.98821627 93.37630463 417.08053207 C93.37834837 459.98601874 93.04148909 502.85507726 91.45776367 545.73510742 C91.23807989 551.68877814 91.05169013 557.64271851 90.88162231 563.59799194 C89.50299173 611.5647067 87.60796519 661.13282169 77.9543457 708.27124023 C77.35840762 711.31782166 76.83532998 714.34578185 76.3605957 717.41186523 C73.80176942 733.88213536 70.1554247 750.00732613 66.1887207 766.18530273 C65.97634766 767.07523926 65.76397461 767.96517578 65.54516602 768.88208008 C54.54254391 814.98514983 35.14729046 861.18646908 5.1887207 898.18530273 C4.4977832 899.06831055 3.8068457 899.95131836 3.0949707 900.86108398 C-6.65666534 913.14159579 -17.30993657 924.6835638 -29.8112793 934.18530273 C-30.7909668 934.9806543 -31.7706543 935.77600586 -32.7800293 936.59545898 C-60.32906919 958.83165487 -97.41551145 974.19504738 -133.04174805 974.38842773 C-133.90610474 974.39548737 -134.77046143 974.402547 -135.66101074 974.40982056 C-171.74948007 974.6376702 -171.74948007 974.6376702 -186.8112793 971.18530273 C-188.17808838 970.87931152 -188.17808838 970.87931152 -189.57250977 970.56713867 C-203.02864646 967.47796042 -216.03931548 963.42146149 -228.8112793 958.18530273 C-229.60034668 957.86223145 -230.38941406 957.53916016 -231.20239258 957.20629883 C-257.19846056 946.38812437 -281.46878057 931.56444122 -302.8112793 913.18530273 C-303.97328444 912.20654077 -305.13609961 911.22873998 -306.29956055 910.25170898 C-325.91434002 893.70968671 -325.91434002 893.70968671 -327.25268555 886.95874023 C-327.58196249 880.4369323 -325.93258983 876.61437867 -321.9128418 871.50561523 C-314.21667615 863.00836172 -304.85454196 858.23803746 -293.40893555 856.73999023 C-282.26786552 856.342568 -273.08134647 859.77446332 -264.8112793 867.18530273 C-263.7591444 868.23743763 -262.71768841 869.30034251 -261.6862793 870.37280273 C-256.27914832 875.93896697 -249.97176465 880.49635674 -243.8112793 885.18530273 C-242.90514893 885.88260498 -242.90514893 885.88260498 -241.98071289 886.59399414 C-206.39967428 913.89992714 -165.30988501 929.23158514 -120.1237793 924.62280273 C-98.02267124 921.07571132 -76.25875382 910.97995818 -60.54174805 894.85717773 C-58.8112793 893.18530273 -58.8112793 893.18530273 -56.8112793 893.18530273 C-56.45549805 892.34612305 -56.45549805 892.34612305 -56.0925293 891.48999023 C-54.51715607 888.65623961 -52.55775081 886.64919238 -50.3112793 884.31030273 C-28.16989556 860.52821781 -14.84278025 828.6137377 -4.8112793 798.18530273 C-4.43374512 797.05108887 -4.05621094 795.916875 -3.66723633 794.74829102 C22.57705069 715.2451574 27.98911753 628.36698285 29.92916965 545.11737728 C30.08481243 538.62267954 30.30170247 532.13372886 30.5661869 525.64262199 C31.18378612 510.14914514 31.33795272 494.67784325 31.32293248 479.17345834 C31.32100929 476.38720958 31.32271711 473.60096713 31.32438236 470.81471854 C31.32925907 462.60400541 31.32479137 454.39331587 31.31749344 446.18260574 C31.31343971 441.53383666 31.31163067 436.88506808 31.31002808 432.23629761 C31.29564594 395.40536919 31.22061521 358.57624223 30.7512207 321.74780273 C30.74136391 320.95472466 30.73150711 320.16164658 30.72135162 319.34453583 C30.28213969 279.74435008 30.28213969 279.74435008 28.52523804 240.18855286 C28.05193113 232.4535971 27.94030685 224.71251642 27.80056763 216.96563721 C27.24895812 187.28379249 26.05486128 157.61762888 23.86865234 128.00952148 C23.25553621 119.6094051 22.8747116 111.2176371 22.58520508 102.80078125 C22.22431937 92.87879845 21.56090358 82.98030283 20.84887695 73.07836914 C20.29600244 65.09833752 20.07534123 57.1840143 20.1887207 49.18530273 C13.27347053 49.13383617 6.35827117 49.09925445 -0.55712891 49.07543945 C-2.90089768 49.06549259 -5.24465441 49.05193033 -7.58837891 49.03442383 C-26.35607503 48.89793149 -44.39767959 49.74726374 -62.8112793 53.56030273 C-63.82577148 53.75624023 -64.84026367 53.95217773 -65.88549805 54.15405273 C-70.98475647 55.18565687 -75.7581298 56.45920356 -80.61987305 58.32202148 C-89.3283079 61.6304457 -98.76830687 61.31240838 -107.55737305 58.22827148 C-112.60686526 55.89167803 -116.48822498 52.96315697 -119.8112793 48.49780273 C-121.47474576 42.98757006 -122.04365673 37.3785296 -119.93237305 31.90795898 C-112.33084597 18.83734643 -98.1749229 14.53660858 -84.3972168 10.86645508 C-83.11717773 10.52928467 -83.11717773 10.52928467 -81.8112793 10.18530273 C-80.41135742 9.81139404 -80.41135742 9.81139404 -78.9831543 9.42993164 C-63.70893411 5.39895697 -48.54518516 2.62164206 -32.8112793 1.18530273 C-31.80266846 1.09031494 -30.79405762 0.99532715 -29.75488281 0.89746094 C-19.83994099 0.07103213 -9.9442927 -0.00084654 0 0 Z " fill="#010101" transform="translate(789.811279296875,544.814697265625)"/>
<path d="M0 0 C30.63644783 -0.57053018 60.94957843 -0.16869609 91.48443604 2.30786133 C92.76649933 2.41028137 94.04856262 2.51270142 95.36947632 2.6182251 C112.28356559 3.99948446 129.04412036 6.03452774 145.82038879 8.5866394 C148.96306286 9.06410978 152.10738271 9.52921583 155.2522583 9.99194336 C186.02339446 14.54803998 218.04088232 20.31554096 247.63653564 30.00952148 C250.60757015 30.95755018 253.59089684 31.84336634 256.5874176 32.70687866 C266.38866593 35.53512087 276.06742447 38.67897048 285.73443604 41.93286133 C286.91688904 42.3298674 286.91688904 42.3298674 288.12322998 42.7348938 C292.0353738 44.04844267 295.9464067 45.36521206 299.85601807 46.6862793 C303.09224314 47.77951945 306.33244754 48.86025549 309.57427979 49.93676758 C356.35547595 65.65918733 402.61552797 87.44302859 445.12408447 112.41967773 C448.08986307 114.1561851 451.07158919 115.86312363 454.05474854 117.56958008 C485.79149508 135.88237235 516.07179656 156.7593252 544.84381104 179.42504883 C546.78017064 180.94647423 548.72408584 182.45744087 550.67193604 183.96411133 C557.78736171 189.48123659 564.68978984 195.19860744 571.49224854 201.09692383 C573.69860322 203.00959566 575.91970216 204.90094906 578.16412354 206.76879883 C585.97140104 213.27009707 593.4141609 220.09826871 600.79669189 227.07617188 C602.3534902 228.52781252 603.92402612 229.96475807 605.5022583 231.39306641 C613.4629464 238.59949223 621.10676995 246.08865485 628.68731689 253.69287109 C630.7455076 255.75646194 632.80904583 257.81459808 634.87310791 259.87231445 C636.20871538 261.20858222 637.54401287 262.5451599 638.87896729 263.88208008 C639.48328079 264.48436935 640.0875943 265.08665863 640.71022034 265.7071991 C644.41048346 269.42752445 647.92153903 273.26812257 651.34608459 277.24389648 C653.75790316 280.02014428 656.28139203 282.68849686 658.79693604 285.37036133 C663.25697959 290.16435273 667.48503157 295.08297129 671.58599854 300.19067383 C674.26069161 303.4736583 677.02427728 306.67025836 679.79693604 309.87036133 C685.7365953 316.76133795 691.37317589 323.85024602 696.92193604 331.05786133 C697.84329346 332.24822998 697.84329346 332.24822998 698.78326416 333.46264648 C706.89762835 343.95460663 714.8601712 354.49672444 722.2276001 365.52807617 C723.88647478 368.00491471 725.55757019 370.47325468 727.23059082 372.94055176 C748.08930555 403.72924298 767.63739614 435.42541357 783.87457275 468.92797852 C785.11737982 471.45530924 786.39559665 473.96335195 787.67584229 476.47192383 C810.92657538 522.15228848 830.53317397 571.23519282 843.53912354 620.87426758 C844.39998628 624.15365821 845.31149337 627.40600521 846.30474854 630.64770508 C852.03923983 649.47690624 855.83686413 668.81896809 859.92193604 688.05786133 C860.10651367 688.92588379 860.29109131 689.79390625 860.48126221 690.68823242 C861.02794654 693.26167798 861.57300031 695.83546206 862.11724854 698.40942383 C862.28068756 699.18041412 862.44412659 699.95140442 862.61251831 700.74575806 C863.89303559 706.82475709 865.07479705 712.90132803 865.92193604 719.05786133 C866.23131104 720.94504883 866.23131104 720.94504883 866.54693604 722.87036133 C865.54549587 727.97770615 861.8952236 730.00295805 857.92193604 733.05786133 C855.5718866 735.03859055 853.24467189 737.04520844 850.92193604 739.05786133 C850.77159912 738.11394531 850.62126221 737.1700293 850.46636963 736.19750977 C847.37070668 716.84386762 844.0509331 697.61127323 839.70172119 678.49291992 C838.90009354 674.9616422 838.11982791 671.42602111 837.33990479 667.88989258 C825.18416718 613.5287402 806.71281825 560.83717809 783.92193604 510.05786133 C783.40212158 508.89722168 782.88230713 507.73658203 782.34674072 506.54077148 C776.4102009 493.34081006 770.21118189 480.34656112 763.30718994 467.62524414 C761.75864409 464.75522155 760.23622846 461.8720899 758.71490479 458.98754883 C743.54604374 430.34245228 726.66759894 402.51432232 707.92193604 376.05786133 C707.16662598 374.99172607 707.16662598 374.99172607 706.39605713 373.90405273 C698.47942895 362.76817434 690.29508029 351.853692 681.92193604 341.05786133 C681.43982666 340.43395508 680.95771729 339.81004883 680.46099854 339.16723633 C675.08962601 332.22303096 669.60273158 325.40266147 663.89483643 318.73168945 C661.10720791 315.47343521 658.40306987 312.16517486 655.73443604 308.80786133 C651.08308333 303.08376422 646.03334547 297.75775038 640.94464111 292.42211914 C637.54785109 288.85991065 634.21225693 285.26583643 630.95709229 281.57348633 C624.76125232 274.65814232 618.15642066 268.14307617 611.58331299 261.58886719 C609.35713741 259.36806826 607.13637971 257.14195167 604.91607666 254.9152832 C603.47954833 253.47941548 602.04270992 252.0438579 600.60552979 250.60864258 C599.95321884 249.9543074 599.3009079 249.29997223 598.62882996 248.62580872 C594.78351416 244.79970125 590.83034582 241.15389035 586.7180481 237.61585999 C583.94634835 235.21160884 581.28516488 232.69265023 578.60943604 230.18286133 C573.81678689 225.72406652 568.90003775 221.49665342 563.79302979 217.39770508 C560.48621351 214.70276229 557.26905683 211.91533711 554.04693604 209.12036133 C548.03729475 203.93014209 541.84645348 199.04355148 535.5088501 194.26245117 C532.89859845 192.28106938 530.32066119 190.25795008 527.73443604 188.24536133 C497.19365386 164.74962575 464.57553574 143.7884452 430.92193604 125.05786133 C429.54860107 124.2928833 429.54860107 124.2928833 428.14752197 123.51245117 C383.85479855 98.94873184 337.84362389 78.68955946 289.97874451 62.16107178 C286.48338193 60.95332444 282.99456819 59.73002157 279.51373291 58.48095703 C271.75401114 55.69970526 264.0319222 53.06991474 256.04693604 50.99536133 C255.11897217 50.74842529 254.1910083 50.50148926 253.23492432 50.24707031 C251.35210525 49.74703189 249.46849445 49.24996367 247.58404541 48.75610352 C245.14763912 48.11706078 242.71404331 47.46853759 240.28131104 46.81567383 C236.38129599 45.77180996 232.47422131 44.75707246 228.56500244 43.74829102 C225.72484007 43.00637533 222.89222871 42.23859633 220.05865479 41.47192383 C198.26417316 35.68795262 176.13312363 31.85544996 153.92193604 28.05786133 C152.58420414 27.82709042 151.24647589 27.59629838 149.90875244 27.36547852 C135.1810272 24.85364596 120.41739343 23.13204129 105.53741455 21.8269043 C100.6497728 21.39706115 95.76473731 20.94909383 90.8817606 20.46912861 C68.48892963 18.2824244 46.30142676 17.61337474 23.8104248 17.73529053 C20.45566042 17.74873207 17.10102846 17.74343887 13.7462492 17.7384367 C-15.49594274 17.70536221 -44.5974551 18.758847 -73.64056396 22.37036133 C-75.47421772 22.59281545 -77.30787671 22.81522646 -79.14154053 23.03759766 C-84.45664491 23.68881025 -89.76761739 24.36985434 -95.07806396 25.05786133 C-95.81909363 25.15240601 -96.56012329 25.24695068 -97.3236084 25.34436035 C-134.11030134 30.04197398 -171.56430392 37.4297192 -206.95306396 48.62036133 C-208.76254412 49.18549607 -210.57244667 49.74928002 -212.38275146 50.31176758 C-213.29548828 50.59544189 -214.2082251 50.87911621 -215.14862061 51.17138672 C-218.36041785 52.14330403 -221.58599902 53.05581104 -224.81634521 53.96411133 C-232.40361542 56.12061838 -239.90727695 58.5060045 -247.39056396 60.99536133 C-248.09305267 61.22885284 -248.79554138 61.46234436 -249.51931763 61.70291138 C-265.95825009 67.19298521 -282.04878821 73.47808938 -298.07806396 80.05786133 C-299.26674072 80.54335449 -300.45541748 81.02884766 -301.68011475 81.52905273 C-321.89888303 89.83598854 -341.53480711 99.2862329 -361.07806396 109.05786133 C-361.68730713 109.36248291 -362.29655029 109.66710449 -362.92425537 109.98095703 C-379.01983504 118.04665572 -394.62693814 126.82387344 -410.07806396 136.05786133 C-411.56103377 136.93303607 -413.04409846 137.80805007 -414.52728271 138.68286133 C-441.08114152 154.49343795 -466.73526482 172.26213416 -490.97943115 191.40454102 C-492.93570914 192.94571301 -494.89940481 194.4766547 -496.86712646 196.00317383 C-503.16285962 200.89612819 -509.34023982 205.89803593 -515.40008545 211.08081055 C-518.70422978 213.90661095 -522.05611261 216.65581083 -525.45306396 219.37036133 C-530.72632483 223.65536833 -535.67188336 228.25090146 -540.60101318 232.92236328 C-543.58894782 235.75195115 -546.60086089 238.52403818 -549.72747803 241.20019531 C-554.47172561 245.34123435 -558.91735591 249.75325362 -563.36322021 254.21020508 C-564.22314072 255.06916885 -565.08306122 255.92813263 -565.96903992 256.81312561 C-567.77622258 258.61963147 -569.58215788 260.42738595 -571.38690186 262.23632812 C-574.13244789 264.98722943 -576.88328942 267.73275354 -579.63470459 270.4777832 C-581.39869716 272.24243664 -583.16237947 274.0074003 -584.92572021 275.77270508 C-585.73944595 276.58440659 -586.55317169 277.39610809 -587.39155579 278.23240662 C-591.61867134 282.47672668 -595.69745292 286.79197236 -599.59773254 291.3394165 C-601.81562455 293.91405958 -604.13689103 296.38377927 -606.45306396 298.87036133 C-610.72201591 303.49085682 -614.75837691 308.24892884 -618.70306396 313.15161133 C-621.41275173 316.46741346 -624.21020328 319.69815849 -627.01556396 322.93286133 C-632.20572175 328.94256084 -637.09236978 335.13333853 -641.87347412 341.47094727 C-643.85485591 344.08119892 -645.87797521 346.65913617 -647.89056396 349.24536133 C-660.03002468 365.00754299 -671.19759525 381.40770751 -682.07806396 398.05786133 C-682.8722876 399.273125 -682.8722876 399.273125 -683.68255615 400.51293945 C-722.01730114 459.49335792 -751.73069121 523.19325596 -774.57806396 589.62036133 C-774.82186798 590.32736176 -775.065672 591.03436218 -775.31686401 591.76278687 C-780.33232484 606.35630606 -784.68585804 621.10869151 -788.51556396 636.05786133 C-788.81140381 637.20883301 -789.10724365 638.35980469 -789.41204834 639.5456543 C-792.43156627 651.35377982 -795.3373367 663.18195072 -798.07806396 675.05786133 C-798.35118408 676.21769531 -798.6243042 677.3775293 -798.90570068 678.57250977 C-804.95648029 704.48075374 -808.68479889 730.68479701 -812.07806396 757.05786133 C-812.17581116 757.81047241 -812.27355835 758.5630835 -812.37426758 759.33850098 C-819.98392833 818.26941299 -819.26791362 879.32038518 -813.35015869 938.32470703 C-813.0900398 940.9375657 -812.8395149 943.55113685 -812.5927124 946.1652832 C-810.51801257 968.01233329 -807.26375271 989.51904347 -803.07806396 1011.05786133 C-802.94228943 1011.76168945 -802.80651489 1012.46551758 -802.66662598 1013.19067383 C-796.59015382 1044.66520217 -789.14204371 1075.59632014 -779.07806396 1106.05786133 C-778.69557495 1107.21662781 -778.69557495 1107.21662781 -778.30535889 1108.39880371 C-751.88749253 1188.2734877 -716.2205792 1263.87065685 -668.07806396 1333.05786133 C-667.58870361 1333.76620117 -667.09934326 1334.47454102 -666.59515381 1335.2043457 C-654.64249248 1352.50031181 -641.83859026 1369.15214326 -628.465271 1385.37084961 C-627.21256407 1386.89429292 -625.97081137 1388.42672768 -624.73040771 1389.96020508 C-615.14492615 1401.80723402 -605.0810141 1413.22946401 -594.66888428 1424.35375977 C-593.00422041 1426.13696324 -591.34937415 1427.92894116 -589.69525146 1429.72192383 C-582.49110062 1437.50299846 -575.12740908 1445.11072416 -567.64056396 1452.62036133 C-566.81234131 1453.45317627 -565.98411865 1454.28599121 -565.13079834 1455.14404297 C-560.82887617 1459.43513233 -556.46160753 1463.57792627 -551.8336792 1467.51660156 C-550.00016344 1469.12625043 -548.28599487 1470.81622126 -546.57806396 1472.55786133 C-542.91535593 1476.26973322 -539.03826967 1479.66797651 -535.07806396 1483.05786133 C-534.02324014 1483.96525496 -532.9685641 1484.87282041 -531.91400146 1485.78051758 C-528.90682532 1488.36634112 -525.89341593 1490.9447816 -522.87738037 1493.52026367 C-521.71724137 1494.51165519 -520.55799302 1495.50409037 -519.39984131 1496.49780273 C-511.13628665 1503.58759941 -502.69107171 1510.39781592 -494.07806396 1517.05786133 C-493.41790283 1517.57106934 -492.7577417 1518.08427734 -492.07757568 1518.61303711 C-463.53926548 1540.78401929 -433.32057555 1560.90963769 -402.07806396 1579.05786133 C-400.34874188 1580.07582652 -398.61957045 1581.09404769 -396.89056396 1582.11254883 C-382.25637938 1590.66748448 -367.21228124 1598.43479297 -352.07806396 1606.05786133 C-350.91806885 1606.64325684 -349.75807373 1607.22865234 -348.56292725 1607.83178711 C-318.32334283 1622.99652137 -287.04087964 1635.99138671 -255.07806396 1647.05786133 C-254.41226318 1647.28882507 -253.7464624 1647.51978882 -253.06048584 1647.75775146 C-235.44915553 1653.85625554 -217.78222362 1659.5514269 -199.76361084 1664.34204102 C-197.30715778 1664.99679741 -194.85618341 1665.66848006 -192.40618896 1666.34692383 C-182.44614855 1669.07456975 -172.39858375 1671.40478718 -162.32806396 1673.68286133 C-161.04915283 1673.97225586 -159.7702417 1674.26165039 -158.45257568 1674.55981445 C-149.68460399 1676.52203577 -140.89491197 1678.33118939 -132.07806396 1680.05786133 C-132.73806396 1680.67556396 -133.39806396 1681.2932666 -134.07806396 1681.9296875 C-136.31213403 1683.82018782 -136.31213403 1683.82018782 -136.07806396 1686.10864258 C-134.0210944 1690.11812621 -129.99606545 1692.09886059 -126.07806396 1694.05786133 C-121.91213499 1695.28076306 -118.53382262 1695.53182926 -114.39056396 1694.18286133 C-107.92472074 1688.24127567 -104.58890785 1680.1761072 -101.44134521 1672.15161133 C-101.03522507 1671.14569946 -100.62910492 1670.1397876 -100.2106781 1669.10339355 C-98.48913005 1664.83914273 -96.79115687 1660.56563464 -95.09246826 1656.29223633 C-93.84274069 1653.15833685 -92.58002999 1650.02990296 -91.31634521 1646.90161133 C-90.93504959 1645.92881226 -90.55375397 1644.95601318 -90.16090393 1643.95373535 C-89.80010239 1643.06190552 -89.43930084 1642.17007568 -89.06756592 1641.2512207 C-88.75479202 1640.4634021 -88.44201813 1639.6755835 -88.11976624 1638.8638916 C-87.07806396 1637.05786133 -87.07806396 1637.05786133 -84.07806396 1636.05786133 C-80.94134521 1637.27270508 -80.94134521 1637.27270508 -77.39056396 1638.99536133 C-76.21107178 1639.56125977 -75.03157959 1640.1271582 -73.81634521 1640.71020508 C-72.9127124 1641.15493164 -72.00907959 1641.5996582 -71.07806396 1642.05786133 C-75.60828148 1653.62324015 -80.30296485 1665.11771673 -85.14056396 1676.55786133 C-85.62235107 1677.71318359 -86.10413818 1678.86850586 -86.6005249 1680.05883789 C-91.75174198 1692.15465872 -96.63670197 1703.36821577 -108.45306396 1709.93286133 C-117.25471334 1712.66440769 -124.75165931 1710.66265272 -133.07806396 1707.05786133 C-137.90841862 1704.40506744 -142.07500459 1701.7756013 -145.07806396 1697.05786133 C-144.80136867 1694.70595135 -144.1346286 1693.17099059 -143.07806396 1691.05786133 C-143.48178223 1691.55334473 -143.88550049 1692.04882812 -144.30145264 1692.55932617 C-146.07806396 1694.05786133 -146.07806396 1694.05786133 -148.06756592 1694.29467773 C-157.98019212 1693.23576807 -167.59675138 1690.78579 -177.26556396 1688.43286133 C-178.20346771 1688.20688263 -179.14137146 1687.98090393 -180.10769653 1687.74807739 C-193.57073327 1684.5020919 -206.94437547 1681.07561051 -220.1708374 1676.95727539 C-223.37564444 1675.9657983 -226.58947415 1675.00742554 -229.80462646 1674.05004883 C-289.62782364 1656.07604261 -348.42330646 1630.92348967 -402.45550537 1599.57641602 C-404.983147 1598.11282163 -407.51916512 1596.66505618 -410.05853271 1595.22192383 C-453.99162815 1570.17207808 -494.92419683 1540.25712584 -533.38665771 1507.49487305 C-535.07099003 1506.06387131 -536.76152676 1504.64049098 -538.45306396 1503.21801758 C-546.28821577 1496.60092149 -553.81431914 1489.70508619 -561.26165771 1482.65551758 C-564.55779322 1479.53670842 -567.90129674 1476.47798858 -571.26556396 1473.43286133 C-579.61688854 1465.79833982 -587.7558649 1457.91940458 -595.07415771 1449.28051758 C-597.95526626 1446.08490205 -601.02066352 1443.08395868 -604.07806396 1440.05786133 C-608.31596817 1435.8590339 -612.45933951 1431.65734311 -616.31634521 1427.10083008 C-618.16862706 1424.95284026 -620.08612412 1422.87214758 -622.01605225 1420.79394531 C-626.7245588 1415.71986154 -631.23668328 1410.54732733 -635.57806396 1405.15161133 C-637.47711043 1402.80154133 -639.39265093 1400.4714251 -641.32806396 1398.15161133 C-648.66082613 1389.35127758 -655.7228558 1380.41028567 -662.51116943 1371.18383789 C-664.18348819 1368.91482079 -665.86649901 1366.65399301 -667.55072021 1364.39379883 C-674.50345374 1355.04193603 -681.28919248 1345.60019482 -687.80755615 1335.94018555 C-689.04109518 1334.11263253 -690.28194525 1332.29021488 -691.52337646 1330.46801758 C-731.74592982 1271.11384313 -763.5140674 1205.84803446 -787.20306396 1138.24536133 C-787.46724121 1137.4916626 -787.73141846 1136.73796387 -788.00360107 1135.96142578 C-791.57722174 1125.72424552 -794.89449613 1115.42276553 -798.07806396 1105.05786133 C-798.74466791 1102.91200851 -799.41132368 1100.76617179 -800.07806396 1098.62036133 C-800.74591307 1096.43322204 -801.41253067 1094.24570642 -802.07806396 1092.05786133 C-802.44544678 1090.8693457 -802.81282959 1089.68083008 -803.19134521 1088.45629883 C-810.24039217 1065.34768402 -815.45246908 1041.75485733 -820.07806396 1018.05786133 C-820.32943115 1016.78910156 -820.58079834 1015.5203418 -820.83978271 1014.21313477 C-827.53958402 980.14447506 -831.55930759 945.71166999 -833.93731689 911.08126831 C-834.0734775 909.12379726 -834.22060007 907.16709826 -834.36810303 905.21044922 C-835.48196206 889.2543698 -835.3253187 873.23227792 -835.32806396 857.24536133 C-835.32850582 856.0651346 -835.32850582 856.0651346 -835.3289566 854.86106491 C-835.33399333 771.39729476 -824.75828359 686.5617152 -798.67962646 607.01489258 C-797.4924744 603.3864086 -796.39869314 599.74679656 -795.37420654 596.06958008 C-785.38885387 560.43120022 -770.54290184 525.58537407 -754.60394287 492.24926758 C-753.24590454 489.40890325 -751.89918693 486.56342292 -750.55563354 483.71618652 C-731.16403758 442.67334473 -708.25407282 403.16132792 -682.07806396 366.05786133 C-681.55003174 365.30843262 -681.02199951 364.55900391 -680.47796631 363.78686523 C-672.85959561 353.01558633 -664.90126649 342.53591631 -656.73773193 332.1730957 C-654.98056803 329.93360348 -653.24038152 327.68145938 -651.49993896 325.42895508 C-648.65449727 321.76743093 -645.72400323 318.20013809 -642.70306396 314.68286133 C-639.23463257 310.61846107 -635.81411655 306.52466933 -632.45306396 302.37036133 C-628.16458413 297.10514587 -623.65446625 292.07276906 -619.07806396 287.05786133 C-617.61872803 285.43376166 -616.16040265 283.80875342 -614.70306396 282.18286133 C-613.9899707 281.39282715 -613.27687744 280.60279297 -612.54217529 279.78881836 C-610.98303983 278.06083964 -609.42754929 276.32955909 -607.87713623 274.59375 C-599.83347889 265.68511346 -591.37624141 257.20383184 -582.87957764 248.72900391 C-580.38142429 246.23624137 -577.88870198 243.73813658 -575.39642334 241.23950195 C-573.78671805 239.63045705 -572.17670281 238.02172215 -570.56634521 236.41333008 C-569.83281326 235.6777739 -569.09928131 234.94221771 -568.34352112 234.18437195 C-564.30936152 230.16825841 -560.1874594 226.31639507 -555.86724854 222.6089325 C-552.91941394 220.05341009 -550.10305639 217.35939323 -547.26556396 214.68286133 C-542.29621843 210.03272723 -537.21910224 205.60819195 -531.90228271 201.35473633 C-529.2653436 199.21017173 -526.70017637 197.00530321 -524.14031982 194.77050781 C-516.6857439 188.2728469 -508.90993189 182.3269594 -500.95501709 176.45874023 C-498.18735806 174.39307589 -495.48139531 172.25373646 -492.76556396 170.12036133 C-486.7911223 165.50475436 -480.60859024 161.24093527 -474.35687256 157.01074219 C-469.82831021 153.94619718 -465.3457415 150.83441203 -460.91082764 147.63598633 C-435.63954677 129.45898769 -408.24604993 114.13638764 -380.80609131 99.51586914 C-378.35488039 98.20580724 -375.91245924 96.88107844 -373.47259521 95.55004883 C-332.14957216 73.17019056 -288.06572707 56.01542083 -243.57806396 41.12036133 C-242.55865219 40.77853821 -242.55865219 40.77853821 -241.51864624 40.42980957 C-228.2207508 35.98482382 -214.78189652 32.17322721 -201.20306396 28.68286133 C-200.0381543 28.38323486 -198.87324463 28.0836084 -197.67303467 27.77490234 C-195.28470592 27.16165872 -192.89611739 26.54942592 -190.50726318 25.93823242 C-187.35283032 25.12840152 -184.20155085 24.3073515 -181.05072021 23.48364258 C-133.68694781 11.21891836 -83.98429526 3.50977986 -35.07806396 1.05786133 C-34.00201904 1.00146484 -32.92597412 0.94506836 -31.81732178 0.88696289 C-23.16198678 0.46137324 -14.50733914 0.24571609 -5.84362793 0.10400391 C-3.89571458 0.07150358 -1.94784034 0.03661543 0 0 Z " fill="#030303" transform="translate(1005.0780639648438,158.942138671875)"/>
<path d="M0 0 C9.029635 7.76656106 16.40712704 16.55958661 17.6328125 28.75390625 C18.1082995 39.62774836 16.09968627 49.22752998 9.25 57.9453125 C0.21772992 67.67237258 -8.70681229 71.89209431 -21.87890625 73.2734375 C-34.68439686 73.74091304 -45.08976287 68.22713954 -54.4375 59.8203125 C-63.58039297 50.27248954 -65.26235754 38.78731595 -65.015625 26.1796875 C-64.54524784 15.71148999 -59.22178915 8.94558097 -51.75 1.9453125 C-37.65033289 -10.14375226 -14.83636279 -11.08512333 0 0 Z " fill="#040404" transform="translate(1851.75,1377.0546875)"/>
<path d="M0 0 C9.33344762 6.40718228 15.80177142 14.54570301 18.41113281 25.64453125 C20.72681185 38.15257862 19.07119596 49.57983279 12.203125 60.33203125 C5.85829547 69.10710511 -2.58114043 74.82823229 -13.0625 77.5625 C-25.4403309 78.55272647 -35.72220661 77.50458628 -45.8984375 69.83203125 C-53.07113678 63.50389895 -59.48270429 54.48495964 -60.38037109 44.71289062 C-60.89544266 30.36580622 -59.75612167 19.29048487 -50.203125 7.84765625 C-36.79413044 -5.69127042 -16.88478635 -9.76151711 0 0 Z " fill="#040404" transform="translate(1031.1875,1830.1875)"/>
<path d="M0 0 C5.98502103 3.51720889 10.56449114 8.09677473 13.15234375 14.56640625 C14.09301609 19.92823858 14.24513114 24.83312934 12.77734375 30.12890625 C13.61265625 30.05929687 13.61265625 30.05929687 14.46484375 29.98828125 C20.48521838 29.7035338 24.84744492 30.55862162 29.77734375 34.12890625 C34.91220594 39.13852789 38.08559143 43.41938014 38.27734375 50.75390625 C38.16854985 57.78924507 36.65992664 62.0838891 31.77734375 67.12890625 C27.18863021 71.31897692 22.3649298 74.92036533 17.1640625 78.30859375 C16.46843704 78.76622101 15.77281158 79.22384827 15.05610657 79.69534302 C13.60139878 80.65053649 12.14509589 81.60330484 10.68725586 82.55371094 C8.44884419 84.01434648 6.2173585 85.48515227 3.98632812 86.95703125 C2.5668056 87.88732839 1.14689758 88.81703764 -0.2734375 89.74609375 C-0.94111649 90.18662079 -1.60879547 90.62714783 -2.29670715 91.08102417 C-6.99251192 94.12890625 -6.99251192 94.12890625 -9.22265625 94.12890625 C-10.46318054 92.60653687 -10.46318054 92.60653687 -11.8737793 90.43896484 C-12.67251968 89.22308937 -12.67251968 89.22308937 -13.48739624 87.98265076 C-14.06389923 87.08989944 -14.64040222 86.19714813 -15.234375 85.27734375 C-16.13610947 83.89984703 -16.13610947 83.89984703 -17.05606079 82.49452209 C-19.01371754 79.50170696 -20.96196959 76.50289272 -22.91015625 73.50390625 C-25.55025745 69.45888929 -28.1947914 65.41678061 -30.83984375 61.375 C-31.4851857 60.38756302 -32.13052765 59.40012604 -32.79542542 58.38276672 C-38.18192151 50.15449795 -43.68425553 42.01588154 -49.36010742 33.98388672 C-49.88838135 33.2260791 -50.41665527 32.46827148 -50.9609375 31.6875 C-51.40477783 31.06157959 -51.84861816 30.43565918 -52.3059082 29.79077148 C-53.22265625 28.12890625 -53.22265625 28.12890625 -53.22265625 25.12890625 C-51.80021667 23.82577515 -51.80021667 23.82577515 -49.78198242 22.50927734 C-49.03087692 22.01221283 -48.27977142 21.51514832 -47.50590515 21.00302124 C-46.6841127 20.47479767 -45.86232025 19.9465741 -45.015625 19.40234375 C-44.17929031 18.85405914 -43.34295563 18.30577454 -42.48127747 17.74087524 C-40.7080765 16.58114454 -38.93157671 15.42644467 -37.15209961 14.27636719 C-34.42566191 12.5139295 -31.70916569 10.73698779 -28.99414062 8.95703125 C-27.27269886 7.83377145 -25.55071129 6.71134757 -23.828125 5.58984375 C-23.01240524 5.05757172 -22.19668549 4.52529968 -21.35624695 3.97689819 C-20.59568497 3.486138 -19.83512299 2.99537781 -19.05151367 2.48974609 C-18.38310959 2.05689301 -17.71470551 1.62403992 -17.02604675 1.17807007 C-11.96830842 -1.7643853 -5.43352241 -2.12948242 0 0 Z " fill="#030303" transform="translate(1559.22265625,1723.87109375)"/>
<path d="M0 0 C4.67746828 0.11924688 9.35476649 0.24354861 14.03198242 0.37231445 C15.61951145 0.41533386 17.207077 0.45702837 18.79467773 0.49731445 C44.5612287 1.15383871 44.5612287 1.15383871 54 9 C59.93029866 15.81629946 62.63458827 22.95917504 62.4375 31.98828125 C61.34806443 39.48787786 57.7441552 46.10124825 51.75 50.75 C48.4137931 53 48.4137931 53 46 53 C46.64066406 54.13695312 47.28132813 55.27390625 47.94140625 56.4453125 C53.21853984 65.85255451 58.25868948 75.31123502 63 85 C57.06 85 51.12 85 45 85 C43.65421875 81.98552734 43.65421875 81.98552734 42.28125 78.91015625 C36.8915431 65.74265694 36.8915431 65.74265694 27.71923828 55.57568359 C22.63552276 54.10778117 19.47278904 55.03136477 14 56 C13.67 64.91 13.34 73.82 13 83 C7.72 83 2.44 83 -3 83 C-2.43210293 55.30754549 -1.40066943 27.66271152 0 0 Z " fill="#050505" transform="translate(1108,1841)"/>
<path d="M0 0 C6.31149772 3.70092807 9.7618177 8.77159503 13.4375 14.9375 C14.33581543 14.54369141 15.23413086 14.14988281 16.15966797 13.74414062 C19.4865159 12.28684376 22.81544001 10.83434444 26.14501953 9.38330078 C27.58699913 8.75407923 29.02840897 8.12355033 30.46923828 7.49169922 C32.53791003 6.58478669 34.60857151 5.68256405 36.6796875 4.78125 C37.32557831 4.49689087 37.97146912 4.21253174 38.63693237 3.91955566 C43.20975659 1.9375 43.20975659 1.9375 45.4375 1.9375 C45.32271587 4.00059376 45.19523802 6.06298354 45.0625 8.125 C44.99289062 9.27355469 44.92328125 10.42210937 44.8515625 11.60546875 C44.44043033 14.91391916 44.02314661 17.01949763 42.4375 19.9375 C39.76367188 21.60668945 39.76367188 21.60668945 36.40625 23.05078125 C35.20355469 23.57607422 34.00085937 24.10136719 32.76171875 24.64257812 C31.48699876 25.17843203 30.21225895 25.71423878 28.9375 26.25 C27.66210688 26.80383598 26.38735846 27.35915912 25.11328125 27.91601562 C15.79143051 31.9375 15.79143051 31.9375 13.4375 31.9375 C13.34662109 33.16726563 13.34662109 33.16726563 13.25390625 34.421875 C13.17011719 35.49953125 13.08632812 36.5771875 13 37.6875 C12.91878906 38.75484375 12.83757812 39.8221875 12.75390625 40.921875 C12.49544682 43.38521673 12.06854418 45.55704866 11.4375 47.9375 C12.00670166 47.99284912 12.57590332 48.04819824 13.16235352 48.10522461 C15.77506224 48.36020715 18.38752968 48.61758678 21 48.875 C21.89525391 48.96201172 22.79050781 49.04902344 23.71289062 49.13867188 C28.64302409 49.62626749 33.53961759 50.1917319 38.4375 50.9375 C37.93880596 56.30641879 37.41522468 61.62985173 36.4375 66.9375 C26.74778081 67.33299874 17.16997939 65.64885847 7.66679382 63.89987183 C-2.47216253 62.03573994 -12.65426537 60.64106265 -22.875 59.3125 C-25.35904458 58.98795874 -27.84292513 58.66229925 -30.32646179 58.33389282 C-31.85204067 58.13229228 -33.37791674 57.93292343 -34.90412903 57.73617554 C-38.17898658 57.30462698 -41.38312338 56.84913075 -44.5625 55.9375 C-44.93754879 48.06147544 -43.81307843 40.89786793 -42.34765625 33.203125 C-41.63326751 29.44140861 -41.1151935 25.67289562 -40.625 21.875 C-39.38521455 13.85638766 -36.9735753 8.27143605 -30.453125 3.2578125 C-29.82921875 2.82210938 -29.2053125 2.38640625 -28.5625 1.9375 C-28.00046875 1.52242187 -27.4384375 1.10734375 -26.859375 0.6796875 C-19.10095782 -4.14402405 -8.11829342 -3.70911439 0 0 Z " fill="#040404" transform="translate(1857.5625,1254.0625)"/>
<path d="M0 0 C1.52436419 6.09745677 2.64425414 12.08190741 0 18 C-6.48246355 24.7604002 -15.61549588 29.91809253 -24 34 C-24.66 34 -25.32 34 -26 34 C-26 39.28 -26 44.56 -26 50 C-16.76 50 -7.52 50 2 50 C2 55.28 2 60.56 2 66 C-5.88592927 66.26411699 -13.77193938 66.52547073 -21.65810871 66.78230286 C-25.32217786 66.90173547 -28.9862036 67.02225781 -32.65014648 67.14550781 C-48.43444116 67.67571204 -64.20407527 68.18467266 -80 68 C-80.33615301 61.37260031 -80.6293084 54.74448246 -80.87988281 48.11328125 C-80.95585192 46.14426078 -81.03776772 44.17545289 -81.12792969 42.20703125 C-81.66117408 30.01077479 -81.19851192 21.53002473 -72.6875 12.0625 C-69.16940805 8.80500745 -65.59657978 7.21989909 -61 6 C-60.154375 5.773125 -59.30875 5.54625 -58.4375 5.3125 C-50.77641501 4.33030962 -44.09384329 5.14190367 -37.68359375 9.6171875 C-34.10465767 12.6007013 -31.98877896 14.38629527 -31 19 C-27.85357351 16.95924638 -24.70797129 14.91722554 -21.5625 12.875 C-20.24475586 12.02035156 -20.24475586 12.02035156 -18.90039062 11.1484375 C-18.02705078 10.58125 -17.15371094 10.0140625 -16.25390625 9.4296875 C-15.38137207 8.8634668 -14.50883789 8.29724609 -13.60986328 7.71386719 C-10.30650516 5.54458992 -7.04492892 3.31594396 -3.79272461 1.07080078 C-2 0 -2 0 0 0 Z " fill="#020202" transform="translate(1904,1127)"/>
<path d="M0 0 C0.93619813 3.15506142 1.1057123 5.96586502 1.0625 9.25 C1.05347656 10.14203125 1.04445313 11.0340625 1.03515625 11.953125 C1.02355469 12.62859375 1.01195312 13.3040625 1 14 C0.35933594 14.15855469 -0.28132813 14.31710937 -0.94140625 14.48046875 C-8.4108805 16.49533438 -13.58510917 18.88606182 -18.375 25.0625 C-21.64291264 30.96988054 -21.97221022 37.6518472 -20.50390625 44.21875 C-17.76774986 52.25717555 -12.41848404 57.20482959 -5 61 C2.50175582 64.02955523 11.37459797 64.40521117 18.9375 61.375 C24.90437592 58.28905694 28.37194677 53.55277249 30.50390625 47.27734375 C31.875313 40.98183086 31.35307915 34.25799105 30 28 C28.02 27.67 26.04 27.34 24 27 C21.69 31.29 19.38 35.58 17 40 C13.29499816 38.51799926 10.32738 37.091496 7 35 C7.58720619 31.11470308 8.74882055 28.30465526 10.72265625 24.91796875 C11.26083984 23.98662109 11.79902344 23.05527344 12.35351562 22.09570312 C12.91748047 21.13599609 13.48144531 20.17628906 14.0625 19.1875 C14.63033203 18.20845703 15.19816406 17.22941406 15.78320312 16.22070312 C17.18254827 13.81006652 18.58829929 11.4034149 20 9 C24.11837922 9.59819247 27.10499798 10.96728107 30.7109375 13.01953125 C31.79117187 13.62990234 32.87140625 14.24027344 33.984375 14.86914062 C35.10328125 15.51044922 36.2221875 16.15175781 37.375 16.8125 C39.04175781 17.75706055 39.04175781 17.75706055 40.7421875 18.72070312 C43.83215181 20.47352217 46.9170382 22.23490104 50 24 C51.42964833 24.81647484 52.85932759 25.63289552 54.2890625 26.44921875 C55.18367188 26.96097656 56.07828125 27.47273438 57 28 C56.42365861 32.75481646 54.44931479 35.97048212 52 40 C49.06296616 39.37063561 46.66211372 38.37579827 44 37 C44.04640625 38.05058594 44.0928125 39.10117188 44.140625 40.18359375 C44.50530397 51.82004212 43.12321302 59.39570731 34.90625 68.15234375 C27.41541248 75.41293012 19.04361002 80.1782098 8.375 80.3125 C6.58225961 80.22882188 4.79027956 80.1257745 3 80 C2.25105469 79.99097656 1.50210937 79.98195313 0.73046875 79.97265625 C-10.74673732 79.45566499 -20.44431371 72.12514059 -28 64 C-35.83406928 54.33923668 -36.97971092 42.95099606 -36.20263672 30.93261719 C-35.2226018 21.58568179 -28.91854139 12.57172116 -22.171875 6.30078125 C-14.98879896 0.91347422 -8.72966468 -0.47424738 0 0 Z " fill="#040404" transform="translate(1771,1488)"/>
<path d="M0 0 C3.6658512 2.29538683 6.36619342 4.50343528 8.75 8.1875 C7.36811547 11.39793882 5.82578097 13.23686365 3.125 15.4375 C2.49335937 15.95828125 1.86171875 16.4790625 1.2109375 17.015625 C0.72882813 17.40234375 0.24671875 17.7890625 -0.25 18.1875 C-2.73805164 16.9889547 -4.8888295 15.75255225 -7.1875 14.1875 C-13.43047005 10.11045833 -18.89159207 9.23867922 -26.25 10.1875 C-33.67894269 12.57496052 -37.7038764 17.42453571 -41.25 24.1875 C-43.59293577 31.2163073 -43.50416615 41.35672669 -40.625 48.25 C-36.80285113 55.25281821 -32.06376009 60.78326613 -24.25 63.1875 C-16.99829298 64.32299861 -10.13707578 62.65198619 -3.9765625 58.74609375 C0.81732346 55.01655431 2.71048722 51.92236542 3.59375 45.91015625 C3.6453125 45.34167969 3.696875 44.77320313 3.75 44.1875 C2.94175781 44.331875 2.13351562 44.47625 1.30078125 44.625 C0.23214844 44.810625 -0.83648438 44.99625 -1.9375 45.1875 C-2.99324219 45.373125 -4.04898437 45.55875 -5.13671875 45.75 C-7.89904062 46.13818074 -10.46742043 46.27009976 -13.25 46.1875 C-14.23387679 42.12900823 -14.28924323 38.35218745 -14.25 34.1875 C-10.56349888 33.67994803 -6.87566225 33.18282488 -3.1875 32.6875 C-2.14916016 32.54441406 -1.11082031 32.40132812 -0.04101562 32.25390625 C5.2721591 31.54548295 10.38960518 31.00501847 15.75 31.1875 C17.75043932 45.16251295 19.45397116 59.12939896 20.75 73.1875 C16.46 73.5175 12.17 73.8475 7.75 74.1875 C6.76 70.2275 6.76 70.2275 5.75 66.1875 C5.21375 66.93 4.6775 67.6725 4.125 68.4375 C-1.22652834 74.6340065 -7.91213773 77.80930402 -15.96875 78.51171875 C-27.58929554 78.98152971 -36.10958774 76.65775769 -45.1484375 69.16796875 C-53.55312135 61.24756966 -58.96028914 51.74758741 -59.48828125 40.11328125 C-59.82928132 25.9049448 -57.15277357 16.62445707 -47.28515625 6.08984375 C-34.2836763 -6.48844155 -15.78973947 -8.91467149 0 0 Z " fill="#050505" transform="translate(1283.25,1840.8125)"/>
<path d="M0 0 C0.99 0.33 1.98 0.66 3 1 C4.16796875 3.6171875 4.16796875 3.6171875 5.1875 6.875 C5.53167969 7.94492187 5.87585937 9.01484375 6.23046875 10.1171875 C7 13 7 13 7 16 C5.2421875 17.6484375 5.2421875 17.6484375 2.875 19.375 C0.02405368 21.48963893 -2.76069633 23.60609035 -5.4375 25.9375 C-8 28 -8 28 -10 28 C-9.72736328 28.77714355 -9.45472656 29.55428711 -9.17382812 30.35498047 C-7.94601599 33.86054151 -6.72295032 37.36774007 -5.5 40.875 C-5.07074219 42.09832031 -4.64148437 43.32164062 -4.19921875 44.58203125 C-3.79316406 45.74863281 -3.38710937 46.91523437 -2.96875 48.1171875 C-2.59169922 49.19597168 -2.21464844 50.27475586 -1.82617188 51.38623047 C-1 54 -1 54 -1 56 C6.26 56 13.52 56 21 56 C21.825 58.26875 22.65 60.5375 23.5 62.875 C23.76103516 63.58769043 24.02207031 64.30038086 24.29101562 65.03466797 C26 69.77777778 26 69.77777778 26 72 C7.92852789 72.26442474 -10.06259455 71.48383787 -28.10571289 70.60931396 C-31.94139055 70.42454531 -35.77734757 70.24576668 -39.61328125 70.06640625 C-47.07579817 69.71662846 -54.53799159 69.3604807 -62 69 C-62.67220351 67.06441401 -63.33758077 65.12645628 -64 63.1875 C-64.37125 62.10855469 -64.7425 61.02960937 -65.125 59.91796875 C-66 57 -66 57 -66 54 C-63.99900453 52.22708153 -62.0189548 50.64568049 -59.875 49.0625 C-58.58383214 48.08088815 -57.29483136 47.09642045 -56.0078125 46.109375 C-55.34297852 45.59955078 -54.67814453 45.08972656 -53.99316406 44.56445312 C-50.82656766 42.07896197 -47.78791951 39.45256171 -44.75 36.8125 C-40.0520342 32.74330399 -35.29785557 28.77804264 -30.421875 24.921875 C-25.90337439 21.33622613 -21.4596309 17.65838802 -17 14 C-14.15172401 11.67200909 -11.30337309 9.34421921 -8.44921875 7.0234375 C-6.42187042 5.34853091 -4.45993128 3.62683981 -2.5 1.875 C-1.675 1.25625 -0.85 0.6375 0 0 Z " fill="#060606" transform="translate(1854,918)"/>
<path d="M0 0 C3.51912143 1.0084968 6.6903607 2.52875295 9.9519043 4.15942383 C10.64617523 4.50029526 11.34044617 4.84116669 12.05575562 5.19236755 C13.54811223 5.92550748 15.03924662 6.66113957 16.52926636 7.39901733 C20.46736666 9.34865741 24.41468815 11.27942374 28.36206055 13.21020508 C29.15762863 13.59972855 29.95319672 13.98925201 30.77287292 14.39057922 C39.30839295 18.55944371 47.92034664 22.55461082 56.55566406 26.51196289 C63.70966497 29.79829589 70.77144358 33.23690872 77.79174805 36.80004883 C74.44708298 41.03006641 71.25520184 44.73142435 66.79174805 47.80004883 C62.15051746 47.48678637 58.10519138 45.23142575 53.97924805 43.23754883 C53.28637695 42.90819336 52.59350586 42.57883789 51.87963867 42.23950195 C50.18129857 41.43132632 48.48619036 40.61636506 46.79174805 39.80004883 C44.43341607 41.7744663 42.11075298 43.77978849 39.79174805 45.80004883 C39.25598145 46.25589355 38.72021484 46.71173828 38.16821289 47.18139648 C36.36114905 48.72539727 34.5757891 50.29203421 32.79174805 51.86254883 C32.19144775 52.36882812 31.59114746 52.87510742 30.97265625 53.39672852 C29.06066072 55.03836746 29.06066072 55.03836746 26.79174805 57.80004883 C26.65204232 62.6276577 29.74073691 67.382472 31.7956543 71.71606445 C32.92415696 74.21334906 33.81911432 76.22941131 33.6862793 78.99926758 C32.55442742 81.2777991 31.1765013 82.77704566 29.35424805 84.55004883 C28.73678711 85.16364258 28.11932617 85.77723633 27.4831543 86.40942383 C25.79174805 87.80004883 25.79174805 87.80004883 23.79174805 87.80004883 C23.79174805 88.46004883 23.79174805 89.12004883 23.79174805 89.80004883 C23.13174805 89.80004883 22.47174805 89.80004883 21.79174805 89.80004883 C21.49743896 89.09662354 21.20312988 88.39319824 20.89990234 87.66845703 C19.7070774 84.81851495 18.51352836 81.96887703 17.31970215 79.11935425 C16.75894017 77.7803874 16.19847513 76.44129614 15.63830566 75.1020813 C12.13237201 66.72063893 8.60503866 58.34883968 5.03889465 49.99281311 C3.30079805 45.91965126 1.56736118 41.84451196 -0.16610718 37.76937866 C-1.02591842 35.75195659 -1.88807301 33.7355316 -2.75259399 31.72012329 C-3.97810981 28.86253094 -5.19549559 26.00159493 -6.41137695 23.13989258 C-6.78060776 22.2848111 -7.14983856 21.42972961 -7.53025818 20.54873657 C-9.30969026 16.33925739 -10.92595223 12.41885932 -11.20825195 7.80004883 C-9.51293945 5.42895508 -9.51293945 5.42895508 -7.08325195 3.36254883 C-6.29692383 2.66258789 -5.5105957 1.96262695 -4.70043945 1.24145508 C-2.20825195 -0.19995117 -2.20825195 -0.19995117 0 0 Z " fill="#040404" transform="translate(1628.208251953125,1656.199951171875)"/>
<path d="M0 0 C0.50757862 1.41396902 1.00574925 2.83131729 1.5 4.25 C1.7784375 5.03890625 2.056875 5.8278125 2.34375 6.640625 C3 9 3 9 3 13 C1.13601563 13.61294922 1.13601563 13.61294922 -0.765625 14.23828125 C-4.43887994 15.46150103 -8.08995466 16.73642087 -11.734375 18.04296875 C-12.72050781 18.39423828 -13.70664063 18.74550781 -14.72265625 19.10742188 C-16.75846227 19.83374493 -18.79229721 20.56561417 -20.82421875 21.30273438 C-21.80519531 21.65013672 -22.78617188 21.99753906 -23.796875 22.35546875 C-25.11703613 22.82956177 -25.11703613 22.82956177 -26.46386719 23.31323242 C-29.08998064 24.02436615 -31.29285574 24.12794204 -34 24 C-33.6390625 25.10859375 -33.278125 26.2171875 -32.90625 27.359375 C-32.43719723 28.82281966 -31.96846393 30.28636674 -31.5 31.75 C-31.14228516 32.84441406 -31.14228516 32.84441406 -30.77734375 33.9609375 C-30.55175781 34.66992188 -30.32617188 35.37890625 -30.09375 36.109375 C-29.88427734 36.75874023 -29.67480469 37.40810547 -29.45898438 38.07714844 C-29 40 -29 40 -29 44 C-28.14768799 43.69707031 -27.29537598 43.39414063 -26.41723633 43.08203125 C-23.24180657 41.9576026 -20.06406769 40.84024777 -16.88452148 39.72753906 C-15.51114027 39.24531024 -14.13872715 38.76031478 -12.76733398 38.27246094 C-10.79140698 37.57010023 -8.81216654 36.87789338 -6.83203125 36.1875 C-5.64327393 35.76855469 -4.4545166 35.34960938 -3.22973633 34.91796875 C-0.27858126 34.0791795 1.96114355 33.79958078 5 34 C5.53682668 35.22226641 6.05375532 36.45328085 6.5625 37.6875 C6.85253906 38.37199219 7.14257812 39.05648438 7.44140625 39.76171875 C8.11888315 42.47636395 7.70820971 44.32193545 7 47 C5.92363281 47.31453125 4.84726563 47.6290625 3.73828125 47.953125 C-5.19581193 50.56920811 -14.1112975 53.23290827 -23 56 C-22.13088068 60.1606776 -21.26714909 64.22823597 -19.875 68.25 C-18.99033721 71.03036878 -18.93212268 73.11036561 -19 76 C-8.88368465 73.29281702 1.00907605 70.04494932 10.91015625 66.64257812 C11.91304687 66.30162109 12.9159375 65.96066406 13.94921875 65.609375 C14.84987061 65.29967773 15.75052246 64.98998047 16.6784668 64.67089844 C19 64 19 64 22 64 C22.50692692 65.5811292 23.00526443 67.16501383 23.5 68.75 C23.7784375 69.63171875 24.056875 70.5134375 24.34375 71.421875 C25 74 25 74 25 78 C17.85210044 80.76344281 10.62535523 83.02889028 3.26635742 85.14111328 C-0.76184261 86.30814933 -4.70239384 87.5695678 -8.625 89.0625 C-15.26384554 91.57643688 -22.12770047 93.25642063 -29 95 C-29.17740723 94.46052734 -29.35481445 93.92105469 -29.53759766 93.36523438 C-30.86816303 89.34327848 -32.22464529 85.3337381 -33.6484375 81.34375 C-36.78344121 72.55799886 -39.73754489 63.77407075 -42.29638672 54.80273438 C-43.39549713 50.97357551 -44.59333389 47.22682456 -46 43.5 C-47.78367158 38.7678101 -49.26038654 33.97389557 -50.6875 29.125 C-50.90212891 28.39861328 -51.11675781 27.67222656 -51.33789062 26.92382812 C-52.38963057 23.30490186 -53.33781803 19.7111297 -54 16 C-53.1234375 15.731875 -52.246875 15.46375 -51.34375 15.1875 C-41.71483439 12.21977231 -32.15053428 9.07689327 -22.60351562 5.85546875 C-17.92317117 4.28187786 -13.23677979 2.7299769 -8.5234375 1.2578125 C-7.74661621 1.01434082 -6.96979492 0.77086914 -6.16943359 0.52001953 C-4 0 -4 0 0 0 Z " fill="#050505" transform="translate(1397,1803)"/>
<path d="M0 0 C6.63904649 4.23018891 10.19488654 9.35349453 12 17 C13.45659988 26.460963 10.56203727 34.45804862 5.4609375 42.39453125 C0.77515305 48.37945499 -4.90047602 51.18947963 -12.359375 52.375 C-17.98850616 52.68557275 -22.44912621 51.32065791 -27 48 C-32.95788064 42.3822346 -36.17733206 37.49688037 -36.48242188 29.12451172 C-36.56272226 19.13380488 -34.93203398 11.46080956 -27.99609375 3.78125 C-19.55854336 -4.03188964 -10.31226694 -5.03915313 0 0 Z " fill="#FCFCFC" transform="translate(1023,1842)"/>
<path d="M0 0 C1.46172397 0.87752325 2.903865 1.78956704 4.3125 2.75 C5.240625 3.348125 6.16875 3.94625 7.125 4.5625 C12.32464052 9.76214052 15.33420903 15.51024218 15.6875 22.875 C15.60447577 29.16408562 12.99433617 34.66294133 8.890625 39.38671875 C2.42660776 45.17305677 -3.84836626 46.38866576 -12.2734375 46.15625 C-22.14095701 44.98208292 -29.555503 40.44957519 -35.6875 32.75 C-39.6728552 27.27013659 -39.28842115 21.26570215 -38.6875 14.75 C-37.62266002 8.58019189 -34.59140388 5.20644445 -29.91796875 1.1953125 C-21.71353363 -4.12104651 -8.72862596 -4.26586983 0 0 Z " fill="#FDFDFD" transform="translate(1839.6875,1388.25)"/>
<path d="M0 0 C1.4688768 5.2328736 2.10632446 9.51764524 2 15 C-14.25303204 18.42863151 -30.57595846 21.39180771 -46.9375 24.25 C-47.95072327 24.42821289 -48.96394653 24.60642578 -50.00787354 24.79003906 C-52.95116389 25.30685037 -55.89532852 25.81834367 -58.83984375 26.328125 C-59.71522293 26.48210754 -60.59060211 26.63609009 -61.49250793 26.79473877 C-67.3160203 27.79350386 -73.11512994 28.46677725 -79 29 C-79.66 23.72 -80.32 18.44 -81 13 C-78.52777954 12.56917114 -78.52777954 12.56917114 -76.00561523 12.12963867 C-70.49732556 11.16926618 -64.98934102 10.20715705 -59.48155117 9.24392223 C-56.14940839 8.66124046 -52.81715503 8.07920888 -49.48461914 7.4987793 C-30.58313058 4.24651725 -30.58313058 4.24651725 -11.77734375 0.4921875 C-7.78301318 -0.21566855 -4.04332604 -0.21280663 0 0 Z " fill="#050505" transform="translate(1893,1050)"/>
<path d="M0 0 C4.19658012 1.75816823 7.45098918 4.6469557 10.9375 7.5 C12.29348819 8.597322 13.65027167 9.69366191 15.0078125 10.7890625 C15.68360352 11.3346582 16.35939453 11.88025391 17.05566406 12.44238281 C20.291332 15.03449248 23.5824098 17.55121067 26.875 20.07055664 C32.35157634 24.26314701 37.80343946 28.48721634 43.23706055 32.73535156 C46.88842194 35.58957651 50.55037443 38.4232891 54.26171875 41.19921875 C54.91599854 41.69494385 55.57027832 42.19066895 56.24438477 42.70141602 C57.46770621 43.62744319 58.69836557 44.54388205 59.93725586 45.44897461 C61.5703125 46.6953125 61.5703125 46.6953125 64 49 C64 53.7952637 63.01007087 54.67554084 60 58.25 C59.2575 59.14203125 58.515 60.0340625 57.75 60.953125 C57.1725 61.62859375 56.595 62.3040625 56 63 C50.2645765 59.4370854 45.069603 55.46655196 39.92993164 51.09179688 C35.79955715 47.60412483 31.5302325 44.34307882 27.1875 41.125 C21.17669021 36.66744886 15.29105804 32.08500885 9.46728516 27.38623047 C3.38968217 22.48808211 -2.79233248 17.73164539 -9 13 C-8.06398754 11.58235006 -7.1261208 10.16592432 -6.1875 8.75 C-5.66542969 7.96109375 -5.14335938 7.1721875 -4.60546875 6.359375 C-3.12865878 4.18907519 -1.59310127 2.08586232 0 0 Z " fill="#040404" transform="translate(1689,1584)"/>
<path d="M0 0 C3.23285138 2.13074296 4.75213971 3.46015816 6.75 6.8125 C7.23950199 10.59566182 7.12663836 14.3185432 7 18.125 C6.98195313 19.15173828 6.96390625 20.17847656 6.9453125 21.23632812 C6.89831063 23.76267885 6.83262272 26.28710469 6.75 28.8125 C3.25007304 29.60956768 0.0357769 29.93113027 -3.55078125 29.91015625 C-4.52724609 29.90693359 -5.50371094 29.90371094 -6.50976562 29.90039062 C-7.51716797 29.89201172 -8.52457031 29.88363281 -9.5625 29.875 C-10.58923828 29.87048828 -11.61597656 29.86597656 -12.67382812 29.86132812 C-15.19927882 29.84958184 -17.72460905 29.83315565 -20.25 29.8125 C-20.39592789 26.10458456 -20.48427895 22.39741274 -20.5625 18.6875 C-20.6253418 17.11742187 -20.6253418 17.11742187 -20.68945312 15.515625 C-20.827584 6.78575359 -20.827584 6.78575359 -17.84375 3.15625 C-12.34246023 -1.81479498 -6.98288889 -2.55144017 0 0 Z " fill="#F7F7F7" transform="translate(1857.25,1149.1875)"/>
<path d="M0 0 C3.20802233 -0.11698258 6.41549025 -0.18750607 9.625 -0.25 C10.98044922 -0.30027344 10.98044922 -0.30027344 12.36328125 -0.3515625 C18.1219482 -0.43563063 21.46548937 0.08189941 26 4 C28.70424486 7.20239522 29.88451307 9.22046321 30.5 13.375 C29.89193055 17.78350354 28.52433641 21.32747044 26 25 C22.60102327 27.26598448 21.43680827 27.23742654 17.45703125 27.1953125 C15.84731445 27.18564453 15.84731445 27.18564453 14.20507812 27.17578125 C12.52575195 27.15064453 12.52575195 27.15064453 10.8125 27.125 C9.68134766 27.11597656 8.55019531 27.10695313 7.38476562 27.09765625 C4.58963172 27.07406862 1.79492155 27.041153 -1 27 C-1.02905924 23.2500163 -1.04681874 19.50006163 -1.0625 15.75 C-1.07087891 14.68652344 -1.07925781 13.62304688 -1.08789062 12.52734375 C-1.09111328 11.50253906 -1.09433594 10.47773437 -1.09765625 9.421875 C-1.10289307 8.47924805 -1.10812988 7.53662109 -1.11352539 6.56542969 C-1.00968082 4.21876563 -0.66706529 2.24355522 0 0 Z " fill="#F7F7F7" transform="translate(1124,1856)"/>
<path d="M0 0 C2.58447424 2.14142151 4.42317025 3.93729597 6.1875 6.8125 C6.53874235 12.30152266 5.70747458 17.38824175 4.6875 22.75 C4.47287109 23.91885742 4.47287109 23.91885742 4.25390625 25.11132812 C3.90395276 27.0127421 3.54650335 28.91277393 3.1875 30.8125 C-0.77157277 30.33931647 -4.72960693 29.85794382 -8.6875 29.375 C-9.81542969 29.24029297 -10.94335938 29.10558594 -12.10546875 28.96679688 C-13.72001953 28.76860352 -13.72001953 28.76860352 -15.3671875 28.56640625 C-16.85968018 28.38573608 -16.85968018 28.38573608 -18.38232422 28.20141602 C-20.8125 27.8125 -20.8125 27.8125 -22.8125 26.8125 C-23.52875582 8.54797664 -23.52875582 8.54797664 -18.4375 2.0625 C-13.44404562 -2.21760375 -5.9903895 -2.52927557 0 0 Z " fill="#F9F9F9" transform="translate(1851.8125,1269.1875)"/>
<path d="M0 0 C2.08203125 1.2421875 2.08203125 1.2421875 3.8125 2.875 C4.68841797 3.67550781 4.68841797 3.67550781 5.58203125 4.4921875 C7.29739193 6.31623495 7.96422036 7.4409431 8.125 9.953125 C7.88019532 14.45141096 7.4560384 16.48967131 4.375 19.9375 C2.9416004 20.99305786 1.47689092 22.00620424 0 23 C-1.23231392 23.87423497 -2.46403074 24.74931192 -3.6953125 25.625 C-5.04493816 26.56528613 -6.39652775 27.50275924 -7.75 28.4375 C-8.41209473 28.89954834 -9.07418945 29.36159668 -9.75634766 29.83764648 C-11.4520497 30.97380575 -13.22255218 31.99653474 -15 33 C-18.32881718 31.89039427 -18.66368778 31.42884616 -20.48046875 28.62109375 C-20.92197266 27.94755859 -21.36347656 27.27402344 -21.81835938 26.58007812 C-22.49608398 25.51950195 -22.49608398 25.51950195 -23.1875 24.4375 C-23.65091797 23.72658203 -24.11433594 23.01566406 -24.59179688 22.28320312 C-25.73517825 20.52687504 -26.86855228 18.7640395 -28 17 C-25.78901757 11.5363508 -21.02884724 9.32985198 -16.25 6.25 C-15.35539062 5.64800781 -14.46078125 5.04601563 -13.5390625 4.42578125 C-12.66507813 3.85730469 -11.79109375 3.28882813 -10.890625 2.703125 C-9.70001465 1.92437012 -9.70001465 1.92437012 -8.48535156 1.12988281 C-5.45926088 -0.24582914 -3.29057415 -0.2872746 0 0 Z " fill="#F9F9F9" transform="translate(1573,1765)"/>
<path d="M0 0 C2.98824051 1.64133965 5.46183418 3.92366836 7 7 C7.65435939 10.71795109 8.09201768 14.42554985 5.859375 17.64453125 C3.9993542 19.28333598 2.06591505 20.62732189 0 22 C-0.98871094 22.71929688 -1.97742187 23.43859375 -2.99609375 24.1796875 C-11.15522991 29.9520017 -11.15522991 29.9520017 -14.0625 30.1171875 C-17.14524331 28.33963793 -18.86486933 25.57601505 -20.8125 22.6875 C-21.44188477 21.81448242 -21.44188477 21.81448242 -22.08398438 20.92382812 C-25.0466552 16.61404503 -25.0466552 16.61404503 -24.84716797 13.98852539 C-23.13851666 9.97787267 -18.84388447 8.06185389 -15.3125 5.75 C-14.50876953 5.19570312 -13.70503906 4.64140625 -12.87695312 4.0703125 C-5.22423629 -1.01064095 -5.22423629 -1.01064095 0 0 Z " fill="#F9F9F9" transform="translate(1552,1739)"/>
<path d="M0 0 C1.00777029 2.74737377 2.00641446 5.49749952 3 8.25 C3.28617188 9.02730469 3.57234375 9.80460938 3.8671875 10.60546875 C4.27324219 11.73662109 4.27324219 11.73662109 4.6875 12.890625 C4.93886719 13.58188477 5.19023438 14.27314453 5.44921875 14.98535156 C6 17 6 17 6 21 C2.37501758 21.02946035 -1.24993332 21.04695131 -4.875 21.0625 C-5.88820313 21.07087891 -6.90140625 21.07925781 -7.9453125 21.08789062 C-14.36263015 21.10845895 -20.62990957 20.78323679 -27 20 C-23.25446732 16.09130965 -19.28526293 12.73843438 -15 9.4375 C-13.79153187 8.49887144 -12.5831962 7.56007232 -11.375 6.62109375 C-10.80007813 6.17878418 -10.22515625 5.73647461 -9.6328125 5.28076172 C-8.14181266 4.11123643 -6.69323667 2.88813745 -5.25 1.66015625 C-3 0 -3 0 0 0 Z " fill="#F3F3F3" transform="translate(1835,954)"/>
<path d="M0 0 C4.15116435 1.29757537 7.95590318 2.85943494 11.8359375 4.8203125 C13.43115234 5.62275391 13.43115234 5.62275391 15.05859375 6.44140625 C16.70021484 7.27478516 16.70021484 7.27478516 18.375 8.125 C19.49261719 8.68832031 20.61023437 9.25164062 21.76171875 9.83203125 C24.5096609 11.21774567 27.2556598 12.60716947 30 14 C28.05454189 18.24442787 25.33893156 20.99304782 22.0625 24.25 C21.52431641 24.80429688 20.98613281 25.35859375 20.43164062 25.9296875 C19.01424346 27.34883239 17.51139692 28.68141504 16 30 C15.01 30 14.02 30 13 30 C11.30753743 26.21051275 9.61691247 22.42021168 7.92797852 18.62915039 C7.35328685 17.33986328 6.77809548 16.05079878 6.20239258 14.76196289 C5.37449452 12.90829986 4.54840283 11.05384101 3.72265625 9.19921875 C3.22515869 8.08377686 2.72766113 6.96833496 2.21508789 5.8190918 C1 3 1 3 0 0 Z " fill="#F6F6F6" transform="translate(1634,1674)"/>
</svg>
