<?xml version="1.0" encoding="UTF-8"?>
<svg version="1.1" xmlns="http://www.w3.org/2000/svg" width="2000" height="2000">
<path d="M0 0 C660 0 1320 0 2000 0 C2000 660 2000 1320 2000 2000 C1340 2000 680 2000 0 2000 C0 1340 0 680 0 0 Z " fill="#60D9FA" transform="translate(0,0)"/>
<path d="M0 0 C1.18180344 -0.00009064 1.18180344 -0.00009064 2.38748169 -0.00018311 C14.82966092 0.01336858 27.09761095 0.47912385 39.4375 2.1875 C40.736875 2.36667969 42.03625 2.54585937 43.375 2.73046875 C47.34266491 3.31941901 51.28966152 3.95728835 55.22265625 4.74609375 C63.85369714 5.93115769 71.95435539 4.63578021 80.5 3.25 C112.58211481 -1.6738532 147.03487168 -2.18988282 179.04101562 3.74609375 C181.53961649 4.20630874 184.04242884 4.63532654 186.546875 5.0625 C229.13242372 12.51407779 270.90661096 29.51955793 306.4375 54.1875 C306.99969238 54.57695801 307.56188477 54.96641602 308.14111328 55.36767578 C316.20307462 60.9729975 323.93114259 66.84879819 331.4375 73.1875 C332.47867035 74.04227157 333.52035875 74.89641242 334.5625 75.75 C348.7656372 87.5111577 362.18363427 100.55957024 373.4375 115.1875 C374.39396739 116.36975753 375.35386007 117.54924879 376.31640625 118.7265625 C394.4375 140.94623723 394.4375 140.94623723 394.4375 145.1875 C374.06583273 146.97954504 374.06583273 146.97954504 368.515625 143.1953125 C366.54815798 140.29455985 365.02822947 137.30935315 363.4375 134.1875 C361.73998446 131.89725551 359.88197684 129.76473411 358 127.625 C357.04805192 126.51703461 356.0962273 125.40896313 355.14453125 124.30078125 C354.24264739 123.26262113 353.34033377 122.22483414 352.4375 121.1875 C351.36048828 119.94033203 351.36048828 119.94033203 350.26171875 118.66796875 C340.20895061 107.25211341 329.45600486 96.52209718 317.4375 87.1875 C316.38379032 86.33403528 315.33178669 85.4784611 314.28125 84.62109375 C262.48552469 42.6427109 196.79552613 19.76682869 130.25 20.125 C128.61393367 20.13002706 126.97786583 20.13458783 125.34179688 20.13867188 C121.37366014 20.14957723 117.40559709 20.1667747 113.4375 20.1875 C114.08895996 20.44740723 114.74041992 20.70731445 115.41162109 20.97509766 C153.33376294 36.23523742 187.01666177 56.91273986 216.92578125 84.86328125 C218.98877561 86.77227292 221.08144637 88.5894139 223.25 90.375 C226.28271938 92.94337957 228.81288959 95.79138415 231.37890625 98.8203125 C233.37507268 101.11571451 235.4501025 103.31996609 237.546875 105.52319336 C267.4375 137.11346247 267.4375 137.11346247 267.4375 145.1875 C248.31982242 147.55655639 248.31982242 147.55655639 242.31542969 143.89257812 C238.70244663 140.49000173 236.1461769 136.39030753 233.63134766 132.14111328 C231.91100634 129.32594535 229.86194086 126.84179204 227.75 124.3125 C227.03972656 123.44625 226.32945312 122.58 225.59765625 121.6875 C222.09304777 117.63153358 218.28782565 113.9113551 214.4375 110.1875 C211.9143601 107.68048239 209.40978877 105.15901182 206.9296875 102.609375 C200.7687699 96.31972181 194.38289435 90.61891193 187.4375 85.1875 C185.92542969 83.98480469 185.92542969 83.98480469 184.3828125 82.7578125 C158.55083072 62.3723329 128.99551471 46.05549091 97.67871094 35.92089844 C95.55895676 35.22724467 93.45449587 34.50069097 91.3515625 33.7578125 C75.22040959 27.75789962 75.22040959 27.75789962 58.4375 28.1875 C56.82681641 28.58001953 56.82681641 28.58001953 55.18359375 28.98046875 C51.24785539 29.98594935 47.34149085 31.06639276 43.4375 32.1875 C42.17550781 32.5484375 40.91351562 32.909375 39.61328125 33.28125 C-1.80013291 45.49546596 -40.03385055 68.08605139 -71.57421875 97.421875 C-74.4705535 100.11517357 -77.42339677 102.74237988 -80.375 105.375 C-84.13152536 108.78758026 -87.58205173 112.27535053 -90.84375 116.16015625 C-93.46070083 119.24696871 -96.25688918 122.16783485 -99.03125 125.11328125 C-101.07542602 127.59594565 -102.60638813 129.85643822 -104.21875 132.60546875 C-111.43816063 144.34813328 -111.43816063 144.34813328 -117.39599609 145.94873047 C-124.15973063 146.66209724 -130.84514819 146.13875897 -137.5625 145.1875 C-134.00295916 138.80541576 -129.94057348 133.04013294 -125.5625 127.1875 C-124.44875 125.66769531 -124.44875 125.66769531 -123.3125 124.1171875 C-117.12924442 115.8389473 -110.28838024 108.36912478 -103.16650391 100.89306641 C-100.95237298 98.53874089 -98.82053185 96.11525128 -96.6875 93.6875 C-93.57013047 90.20405405 -90.3373042 87.08470765 -86.76171875 84.078125 C-84.11339255 81.80141118 -81.60122717 79.39825779 -79.0625 77 C-67.64082066 66.40305681 -54.6800982 57.5427252 -41.5625 49.1875 C-40.98773926 48.82092285 -40.41297852 48.4543457 -39.82080078 48.07666016 C-22.02185328 36.83442327 -3.2816655 27.53089132 16.4375 20.1875 C-2.46715807 19.63228458 -20.98559121 19.89268848 -39.75 22.4375 C-40.52249084 22.54001068 -41.29498169 22.64252136 -42.09088135 22.74813843 C-86.3548772 28.72929685 -129.99991294 45.483151 -166.5625 71.1875 C-167.32755859 71.72487793 -168.09261719 72.26225586 -168.88085938 72.81591797 C-184.24188976 83.69716524 -198.0770605 95.56076749 -211.4375 108.8125 C-212.30552246 109.67109619 -213.17354492 110.52969238 -214.06787109 111.41430664 C-219.98611397 117.36258848 -225.36299025 123.60512859 -230.5625 130.1875 C-231.12952637 130.90147949 -231.69655273 131.61545898 -232.28076172 132.35107422 C-233.71525696 134.16602851 -235.14107107 135.98730286 -236.5625 137.8125 C-241.44110577 144.06610577 -241.44110577 144.06610577 -242.5625 145.1875 C-244.27022358 145.27463831 -245.98148649 145.29450007 -247.69140625 145.28515625 C-249.24311523 145.28032227 -249.24311523 145.28032227 -250.82617188 145.27539062 C-251.91478516 145.26701172 -253.00339844 145.25863281 -254.125 145.25 C-255.7637207 145.24323242 -255.7637207 145.24323242 -257.43554688 145.23632812 C-260.14458495 145.22449826 -262.85351599 145.20801543 -265.5625 145.1875 C-257.88942504 132.45671868 -248.90762693 120.42752458 -238.7578125 109.55859375 C-236.92807448 107.58234646 -235.16929204 105.57280263 -233.4140625 103.53125 C-222.89891048 91.48047629 -211.33506113 79.83827594 -198.5625 70.1875 C-197.31630009 69.20360397 -196.0716356 68.21776151 -194.828125 67.23046875 C-139.37405971 23.5409821 -70.53293574 -0.08354233 0 0 Z " fill="#20252C" transform="translate(933.5625,660.8125)"/>
<path d="M0 0 C21.15158722 -1.95499917 21.15158722 -1.95499917 27.17578125 2.1796875 C29.40183129 5.34059471 31.18289703 8.5891463 33 12 C34.63006304 14.25368565 36.41996048 16.34447931 38.25 18.4375 C38.73364014 18.99993408 39.21728027 19.56236816 39.71557617 20.1418457 C44.76817775 25.91859355 50.15535983 31.36954779 55.5625 36.8125 C56.42456055 37.68382568 57.28662109 38.55515137 58.17480469 39.45288086 C64.14063366 45.3899085 70.3970203 50.78528479 77 56 C78.08244995 56.86347046 78.08244995 56.86347046 79.18676758 57.74438477 C118.20368107 88.66103228 163.88789556 109.52384956 213 118 C214.2360498 118.2163208 214.2360498 118.2163208 215.49707031 118.43701172 C217.97542951 118.86549506 220.45554615 119.28038455 222.9375 119.6875 C223.65784424 119.80706055 224.37818848 119.92662109 225.12036133 120.04980469 C237.98581209 122.05934878 250.82986045 122.13104068 263.8125 122.0625 C265.48762886 122.05747056 267.16275919 122.05291023 268.83789062 122.04882812 C272.89196439 122.03794708 276.94596531 122.02076371 281 122 C280.13221924 121.70504639 279.26443848 121.41009277 278.37036133 121.10620117 C270.23284984 118.2796725 262.44054684 115.09145212 254.6875 111.3125 C253.61153564 110.79139648 252.53557129 110.27029297 251.42700195 109.73339844 C242.33036295 105.27097315 233.56489483 100.40890429 225 95 C223.99839844 94.3709375 222.99679687 93.741875 221.96484375 93.09375 C204.7047907 81.88777333 188.03954378 69.34326187 173.63574219 54.60498047 C171.99165495 52.99181189 170.28116085 51.52165347 168.5 50.0625 C165.32658151 47.38756096 162.67232896 44.46334817 159.9921875 41.30078125 C157.69425926 38.64689942 155.28464427 36.11532603 152.875 33.5625 C128 6.80586806 128 6.80586806 128 0 C146.85805341 -2.69296317 146.85805341 -2.69296317 153.31835938 1.50732422 C157.4391863 5.45695061 160.54662331 10.11774736 163.61425781 14.90625 C165.42103941 17.63615821 167.51266035 19.99056882 169.75 22.375 C170.44480469 23.13167969 171.13960937 23.88835937 171.85546875 24.66796875 C172.91701172 25.82232422 172.91701172 25.82232422 174 27 C175.23169922 28.38638672 175.23169922 28.38638672 176.48828125 29.80078125 C180.74899099 34.57872434 185.01045682 39.1088642 189.91796875 43.22265625 C191.39325729 44.4820489 192.83032396 45.7868515 194.23828125 47.12109375 C228.24402276 79.32870896 272.20187313 100.651974 317 113 C317.74523926 113.20753906 318.49047852 113.41507813 319.25830078 113.62890625 C346.7726934 120.95753609 389.2917145 96.59492347 412.75927734 83.31445312 C424.67882321 76.322207 436.14242783 68.5450077 447 60 C447.83273437 59.35933594 448.66546875 58.71867187 449.5234375 58.05859375 C455.36777339 53.49558702 460.81714005 48.57956045 466.2421875 43.53515625 C468.39121096 41.55963751 470.56007074 39.66595636 472.8125 37.8125 C475.86457059 35.22885271 478.41577787 32.35819037 481 29.3125 C482.9015838 27.11379373 484.86720495 24.9875954 486.85498047 22.86694336 C492.56528084 16.75990003 497.78271702 10.36087755 502.8828125 3.73828125 C505 1 505 1 506 0 C507.70772358 -0.08713831 509.41898649 -0.10700007 511.12890625 -0.09765625 C512.68061523 -0.09282227 512.68061523 -0.09282227 514.26367188 -0.08789062 C515.35228516 -0.07951172 516.44089844 -0.07113281 517.5625 -0.0625 C519.2012207 -0.05573242 519.2012207 -0.05573242 520.87304688 -0.04882812 C523.58208495 -0.03699826 526.29101599 -0.02051543 529 0 C521.81510807 11.86784088 513.29462108 22.44269758 504.25 32.9375 C503.47245361 33.84097168 503.47245361 33.84097168 502.67919922 34.76269531 C498.96080515 39.02746084 495.03554848 43.03612028 491 47 C488.43459111 49.55383561 485.88761995 52.11690205 483.37890625 54.7265625 C476.61433004 61.72572742 469.47168956 67.83582994 461.70849609 73.69726562 C460.09657172 74.92636372 458.51022123 76.18879424 456.92578125 77.453125 C432.92805319 96.50381821 405.14585437 112.40155981 376 122 C397.35343961 122.47918991 417.82500715 121.98671216 438.94921875 118.49951172 C441.52565111 118.07766628 444.10075363 117.69866528 446.6875 117.34765625 C493.28742226 110.65723884 539.25832337 87.82321184 576 59 C576.8971875 58.29617188 577.794375 57.59234375 578.71875 56.8671875 C592.59851892 45.73944173 606.2950605 33.31164366 617.625 19.5625 C618.346875 18.69109375 619.06875 17.8196875 619.8125 16.921875 C621.48368938 14.68964347 622.8246949 12.60962767 624.1875 10.203125 C628.8947436 2.42749902 628.8947436 2.42749902 633 0 C640.525562 -1.68919283 648.40179116 -0.87159587 656 0 C654.45059318 4.0807176 652.59663977 7.14513808 649.9375 10.625 C649.33869019 11.40931396 649.33869019 11.40931396 648.7277832 12.20947266 C644.60699217 17.57386389 640.33790703 22.81000408 636 28 C635.15620787 29.03251765 634.3124594 30.06507099 633.46875 31.09765625 C621.45883504 45.61791109 608.06420536 59.63394214 593 71 C591.69540631 72.01928874 590.39213347 73.04026925 589.08984375 74.0625 C560.66871795 96.24895837 529.91588055 112.75259869 496 125 C495.15953125 125.30808594 494.3190625 125.61617187 493.453125 125.93359375 C476.27153699 132.18930616 458.55062969 135.67566917 440.5625 138.75 C438.73380371 139.06626343 438.73380371 139.06626343 436.86816406 139.38891602 C422.91720666 141.68737488 409.04428533 142.16812791 394.93920898 142.13037109 C392.56813139 142.12501273 390.19724378 142.13035477 387.82617188 142.13671875 C373.06218691 142.14561554 358.6608972 141.32970985 344.0625 138.9375 C334.06944333 137.30494298 325.33614731 136.03023856 315.43066406 138.45214844 C243.06172752 154.76350778 158.63391613 133.34950777 97 95 C90.17097141 90.55857327 83.55307277 85.83675624 77 81 C76.37947754 80.5452832 75.75895508 80.09056641 75.11962891 79.62207031 C61.67526268 69.72050198 49.45336119 58.63490858 37.625 46.875 C36.70984619 45.96911133 35.79469238 45.06322266 34.85180664 44.12988281 C28.81030796 38.06039645 23.31400353 31.7115302 18 25 C16.98758301 23.74951088 15.97464793 22.49944082 14.9609375 21.25 C9.49394516 14.40988838 4.54081989 7.49817438 0 0 Z " fill="#20252C" transform="translate(670,1154)"/>
<path d="M0 0 C1.24698166 -0.0159874 2.49396332 -0.03197479 3.7787323 -0.04844666 C5.15367217 -0.05483638 6.52861701 -0.06022499 7.90356445 -0.06469727 C9.3253437 -0.07367827 10.74712206 -0.08280036 12.16889954 -0.09205627 C15.1676359 -0.10859396 18.16626034 -0.11625103 21.16503906 -0.11914062 C24.19567804 -0.12339185 27.22544344 -0.14382589 30.25585938 -0.18066406 C60.16629639 -0.53772897 88.85554428 1.40851002 111.7980957 22.93530273 C127.10506947 38.84511964 131.38453728 59.31301826 131.5168457 80.61889648 C131.52699707 81.77462158 131.53714844 82.93034668 131.54760742 84.12109375 C131.34240649 104.38540801 124.56379158 124.88717672 110.18481445 139.44702148 C87.56655097 161.01847737 56.50267373 160.81103957 27.22332764 160.62896729 C24.24646421 160.61538032 21.26974895 160.62073987 18.29286861 160.62609577 C15.41818119 160.62942572 12.54358655 160.62283018 9.6689167 160.61296654 C8.30015102 160.60912433 6.93137505 160.60796226 5.5626049 160.60955238 C3.66834042 160.60992165 1.7740895 160.59585617 -0.12011719 160.58105469 C-1.1953212 160.5764473 -2.27052521 160.5718399 -3.37831116 160.5670929 C-5.9206543 160.30639648 -5.9206543 160.30639648 -7.9206543 158.30639648 C-8.17233658 155.62957764 -8.17233658 155.62957764 -8.17462158 152.15698242 C-8.18026123 150.84451538 -8.18590088 149.53204834 -8.19171143 148.17980957 C-8.18782244 146.71679633 -8.18372608 145.25378363 -8.17944336 143.79077148 C-8.18215209 142.25679355 -8.18571236 140.72281692 -8.19006348 139.18884277 C-8.19920377 135.01537403 -8.1956365 130.84200385 -8.18930531 126.66853333 C-8.18425378 122.30790942 -8.18893439 117.94729415 -8.19207764 113.58666992 C-8.19571976 106.26276123 -8.19091174 98.93889282 -8.18139648 91.61499023 C-8.17051146 83.13870388 -8.17403686 74.66251373 -8.1850493 66.18622971 C-8.19411517 58.91826934 -8.19541088 51.650338 -8.19017196 44.38237381 C-8.18704839 40.03732984 -8.18665346 35.69233113 -8.19324493 31.34729004 C-8.19900762 27.2630308 -8.19504138 23.17889601 -8.18345642 19.09465027 C-8.18080404 17.59258735 -8.18158472 16.09051402 -8.18598175 14.5884552 C-8.19141567 12.54424403 -8.18340547 10.50001007 -8.17462158 8.45581055 C-8.17386753 7.30985413 -8.17311348 6.16389771 -8.17233658 4.98321533 C-7.66983197 -0.36127611 -4.59609075 0.04450976 0 0 Z " fill="#20242B" transform="translate(839.920654296875,894.693603515625)"/>
<path d="M0 0 C0.662276 -0.00832352 1.324552 -0.01664703 2.00689697 -0.02522278 C4.20981689 -0.04942003 6.41243946 -0.05811673 8.61547852 -0.06469727 C10.15894148 -0.07367294 11.70240359 -0.08279494 13.24586487 -0.09205627 C16.49677637 -0.10858655 19.74758462 -0.11625078 22.99853516 -0.11914062 C26.29899811 -0.12340937 29.59866587 -0.14397252 32.89892578 -0.18066406 C79.65221053 -0.69155366 79.65221053 -0.69155366 94.55688477 12.30639648 C104.02387809 22.42020301 105.12752943 32.94560226 104.88891602 46.20483398 C104.35827771 58.04483758 99.08639441 66.37570516 90.55688477 74.30639648 C88.90548667 75.65859465 87.24277634 76.99745602 85.55688477 78.30639648 C86.19754883 78.59772461 86.83821289 78.88905273 87.49829102 79.18920898 C97.88109843 84.10982412 105.02768987 90.19649999 109.69750977 100.92749023 C112.53456176 112.08226286 112.0968301 126.05140147 107.23657227 136.54077148 C100.39527658 147.80504438 90.51779121 155.09837934 77.75645447 158.24284363 C76.40320702 158.4987695 75.04732142 158.74103842 73.68945312 158.97119141 C72.95267554 159.09759349 72.21589796 159.22399557 71.45679379 159.35422802 C63.44716491 160.62688374 55.52759001 160.72410593 47.43579102 160.66967773 C45.87304179 160.66915714 44.31029192 160.66968252 42.74754333 160.67118835 C39.51486098 160.67109976 36.28243397 160.66088945 33.04980469 160.64257812 C28.90379534 160.61960655 24.75814792 160.61940998 20.61209202 160.62609577 C17.40456402 160.62942675 14.19711912 160.62282693 10.98960686 160.61296654 C9.45895763 160.60912047 7.92829918 160.60796386 6.39764595 160.60955238 C4.2754942 160.60992165 2.15381864 160.5973522 0.03173828 160.58105469 C-1.17385239 160.5764473 -2.37944305 160.5718399 -3.62156677 160.5670929 C-6.44311523 160.30639648 -6.44311523 160.30639648 -8.44311523 158.30639648 C-8.69479752 155.62957764 -8.69479752 155.62957764 -8.69708252 152.15698242 C-8.70272217 150.84451538 -8.70836182 149.53204834 -8.71417236 148.17980957 C-8.71028338 146.71679633 -8.70618702 145.25378363 -8.7019043 143.79077148 C-8.70461303 142.25679355 -8.7081733 140.72281692 -8.71252441 139.18884277 C-8.72166471 135.01537403 -8.71809744 130.84200385 -8.71176624 126.66853333 C-8.70671471 122.30790942 -8.71139533 117.94729415 -8.71453857 113.58666992 C-8.7181807 106.26276123 -8.71337268 98.93889282 -8.70385742 91.61499023 C-8.69297239 83.13870388 -8.6964978 74.66251373 -8.70751023 66.18622971 C-8.71657611 58.91826934 -8.71787182 51.650338 -8.71263289 44.38237381 C-8.70950933 40.03732984 -8.7091144 35.69233113 -8.71570587 31.34729004 C-8.72146856 27.2630308 -8.71750232 23.17889601 -8.70591736 19.09465027 C-8.70326498 17.59258735 -8.70404566 16.09051402 -8.70844269 14.5884552 C-8.71387661 12.54424403 -8.70586641 10.50001007 -8.69708252 8.45581055 C-8.69632847 7.30985413 -8.69557442 6.16389771 -8.69479752 4.98321533 C-8.1722429 -0.5745221 -4.72860411 0.04194161 0 0 Z " fill="#20232A" transform="translate(1158.443115234375,894.693603515625)"/>
<path d="M0 0 C0.90603973 0.00404846 1.81207947 0.00809692 2.74557495 0.01226807 C3.69850433 0.00876343 4.65143372 0.00525879 5.63323975 0.00164795 C8.79445605 -0.0071804 11.95544997 -0.00131629 15.1166687 0.00543213 C17.30620365 0.0040858 19.4957383 0.00214553 21.68527222 -0.00036621 C26.27864421 -0.00331897 30.87193853 0.00098507 35.46530151 0.01031494 C41.36382733 0.02170952 47.26217117 0.01515086 53.16069031 0.00317001 C57.68329244 -0.00404447 62.20585117 -0.00176255 66.72845459 0.0034256 C68.9038495 0.00476324 71.07924831 0.00311041 73.25463867 -0.00153351 C76.29078668 -0.00659196 79.32663673 0.00110195 82.36276245 0.01226807 C83.26880219 0.0082196 84.17484192 0.00417114 85.1083374 0 C91.32564123 0.04252965 91.32564123 0.04252965 93.5541687 2.27105713 C93.81295776 4.94488525 93.81295776 4.94488525 93.8197937 8.30230713 C93.82366089 10.1063501 93.82366089 10.1063501 93.8276062 11.94683838 C93.81987183 13.20883057 93.81213745 14.47082275 93.8041687 15.77105713 C93.81577026 17.66404541 93.81577026 17.66404541 93.8276062 19.59527588 C93.82502808 20.79797119 93.82244995 22.0006665 93.8197937 23.23980713 C93.81753784 24.34775635 93.81528198 25.45570557 93.81295776 26.597229 C93.5541687 29.27105713 93.5541687 29.27105713 91.5541687 31.27105713 C88.88397217 31.51156616 88.88397217 31.51156616 85.45211792 31.49810791 C84.17094086 31.49795685 82.88976379 31.49780579 81.56976318 31.49765015 C80.16612596 31.48743608 78.7624903 31.47700408 77.3588562 31.46636963 C75.92682085 31.46264004 74.49478295 31.45979281 73.06274414 31.45779419 C69.29138153 31.4501534 65.52017266 31.43050121 61.74887085 31.40838623 C57.22513506 31.3843428 52.70134791 31.37514893 48.17756653 31.36347961 C41.30299361 31.34407693 34.42875813 31.3057578 27.5541687 31.27105713 C27.5541687 46.12105713 27.5541687 60.97105713 27.5541687 76.27105713 C33.47483276 76.23625244 33.47483276 76.23625244 39.5151062 76.20074463 C43.32434772 76.18516158 47.13358573 76.17300915 50.94284058 76.16119385 C53.59682801 76.15111624 56.2508043 76.137454 58.90475464 76.12017822 C62.71239977 76.09600721 66.51989854 76.08459178 70.3276062 76.07574463 C72.11670914 76.06026077 72.11670914 76.06026077 73.94195557 76.04446411 C75.04294586 76.04431305 76.14393616 76.04416199 77.27828979 76.04400635 C78.7372316 76.03734451 78.7372316 76.03734451 80.22564697 76.0305481 C82.5541687 76.27105713 82.5541687 76.27105713 84.5541687 78.27105713 C84.78121948 80.97662354 84.78121948 80.97662354 84.7494812 84.37261963 C84.74303589 85.58433838 84.73659058 86.79605713 84.72994995 88.04449463 C84.70481323 89.95101807 84.70481323 89.95101807 84.6791687 91.89605713 C84.67014526 93.17480713 84.66112183 94.45355713 84.65182495 95.77105713 C84.62819173 98.9379088 84.59524499 102.10439137 84.5541687 105.27105713 C81.98283411 106.55672442 80.1569977 106.39115491 77.27828979 106.38458252 C75.62680435 106.38446922 75.62680435 106.38446922 73.94195557 106.38435364 C72.74922028 106.37919235 71.55648499 106.37403107 70.3276062 106.36871338 C69.10965363 106.36729843 67.89170105 106.36588348 66.63684082 106.36442566 C62.7342588 106.35881351 58.83173347 106.34625892 54.9291687 106.33355713 C52.28854453 106.32854369 49.64791946 106.32398052 47.0072937 106.31988525 C40.52289675 106.30884013 34.03854235 106.29156731 27.5541687 106.27105713 C27.5541687 113.86105713 27.5541687 121.45105713 27.5541687 129.27105713 C30.44658325 129.25534668 30.44658325 129.25534668 33.39743042 129.23931885 C39.75968562 129.20710324 46.12192155 129.18410333 52.48423576 129.16743279 C56.34271667 129.15698369 60.20110955 129.14280413 64.05953979 129.12017822 C67.78129062 129.09848973 71.50295665 129.08649699 75.22476578 129.08130264 C76.64658061 129.07759968 78.06839067 129.07036893 79.49016953 129.05959702 C81.47743984 129.04513594 83.46479501 129.04424067 85.45211792 129.04400635 C86.58462982 129.03956512 87.71714172 129.0351239 88.88397217 129.0305481 C91.5541687 129.27105713 91.5541687 129.27105713 93.5541687 131.27105713 C93.81295776 133.94488525 93.81295776 133.94488525 93.8197937 137.30230713 C93.82366089 139.1063501 93.82366089 139.1063501 93.8276062 140.94683838 C93.81987183 142.20883057 93.81213745 143.47082275 93.8041687 144.77105713 C93.81577026 146.66404541 93.81577026 146.66404541 93.8276062 148.59527588 C93.82502808 149.79797119 93.82244995 151.0006665 93.8197937 152.23980713 C93.81753784 153.34775635 93.81528198 154.45570557 93.81295776 155.597229 C93.5541687 158.27105713 93.5541687 158.27105713 91.5541687 160.27105713 C88.46092668 160.47006418 85.45717097 160.54367295 82.36276245 160.52984619 C80.93336838 160.53510315 80.93336838 160.53510315 79.47509766 160.54046631 C76.31388135 160.54929466 73.15288743 160.54343055 69.9916687 160.53668213 C67.80213376 160.53802846 65.6125991 160.53996872 63.42306519 160.54248047 C58.82969319 160.54543323 54.23639887 160.54112918 49.64303589 160.53179932 C43.74451007 160.52040474 37.84616623 160.52696339 31.94764709 160.53894424 C27.42504496 160.54615873 22.90248623 160.54387681 18.37988281 160.53868866 C16.2044879 160.53735102 14.0290891 160.53900384 11.85369873 160.54364777 C8.81755072 160.54870622 5.78170067 160.54101231 2.74557495 160.52984619 C1.83953522 160.53389465 0.93349548 160.53794312 0 160.54211426 C-6.21730382 160.4995846 -6.21730382 160.4995846 -8.4458313 158.27105713 C-8.69751358 155.59423828 -8.69751358 155.59423828 -8.69979858 152.12164307 C-8.70543823 150.80917603 -8.71107788 149.49670898 -8.71688843 148.14447021 C-8.71299945 146.68145697 -8.70890308 145.21844427 -8.70462036 143.75543213 C-8.7073291 142.2214542 -8.71088936 140.68747757 -8.71524048 139.15350342 C-8.72438078 134.98003468 -8.7208135 130.8066645 -8.71448231 126.63319397 C-8.70943078 122.27257006 -8.71411139 117.91195479 -8.71725464 113.55133057 C-8.72089676 106.22742187 -8.71608874 98.90355346 -8.70657349 91.57965088 C-8.69568846 83.10336452 -8.69921386 74.62717437 -8.7102263 66.15089035 C-8.71929217 58.88292999 -8.72058789 51.61499864 -8.71534896 44.34703445 C-8.7122254 40.00199048 -8.71183047 35.65699178 -8.71842194 31.31195068 C-8.72418462 27.22769145 -8.72021838 23.14355666 -8.70863342 19.05931091 C-8.70598104 17.557248 -8.70676173 16.05517467 -8.71115875 14.55311584 C-8.71659267 12.50890468 -8.70858247 10.46467071 -8.69979858 8.42047119 C-8.69904453 7.27451477 -8.69829048 6.12855835 -8.69751358 4.94787598 C-8.17514731 -0.60785832 -4.76658279 0.03260595 0 0 Z " fill="#20232A" transform="translate(1017.4458312988281,894.7289428710938)"/>
<path d="M0 0 C0.7027002 -0.00191345 1.40540039 -0.0038269 2.12939453 -0.00579834 C3.61556354 -0.00715975 5.10174445 -0.00346632 6.58789062 0.00488281 C8.86615646 0.01558346 11.14363377 0.00498661 13.421875 -0.0078125 C14.86458508 -0.0064909 16.30729466 -0.00392849 17.75 0 C19.06742188 0.00225586 20.38484375 0.00451172 21.7421875 0.00683594 C24.875 0.265625 24.875 0.265625 26.875 2.265625 C27.12947559 4.45043373 27.12947559 4.45043373 27.13569641 7.21987915 C27.14278122 8.26810349 27.14986603 9.31632782 27.15716553 10.39631653 C27.15468811 11.55153305 27.15221069 12.70674957 27.1496582 13.89697266 C27.15476913 15.11026749 27.15988007 16.32356232 27.16514587 17.57362366 C27.17669636 20.9113316 27.17910896 24.24879178 27.17658257 27.58650255 C27.17551273 30.38109826 27.18039799 33.17567112 27.185188 35.97026193 C27.19630231 42.57947579 27.19671367 49.18863287 27.19067383 55.79785156 C27.1846689 62.58115721 27.19685116 69.36425359 27.2182439 76.14752352 C27.23598136 81.98981713 27.24184124 87.83204497 27.23860615 93.67436445 C27.236808 97.15469811 27.23927773 100.63488346 27.25332069 104.11519241 C27.40624737 145.65238841 27.40624737 145.65238841 16.05859375 157.09765625 C8.3209842 163.52221691 -0.98165557 164.8095682 -10.75 164.703125 C-12.1726416 164.69611572 -12.1726416 164.69611572 -13.62402344 164.68896484 C-21.66589637 164.52238512 -34.15331903 164.23730597 -40.125 158.265625 C-40.45810772 149.84275839 -38.26988781 140.38335828 -36.125 132.265625 C-34.125 130.265625 -34.125 130.265625 -30.16796875 130.24609375 C-27.73076817 130.33636044 -25.29929772 130.45395739 -22.86523438 130.60742188 C-18.50049722 130.74683608 -16.71926501 130.71190184 -13.11328125 128.00390625 C-10.27193634 124.09077701 -10.0013055 121.04148035 -9.98023987 116.28036499 C-9.97334137 115.27647232 -9.96644287 114.27257965 -9.95933533 113.23826599 C-9.95672195 112.1430513 -9.95410858 111.04783661 -9.95141602 109.91943359 C-9.944729 108.76138718 -9.93804199 107.60334076 -9.93115234 106.41020203 C-9.91710225 103.89531888 -9.90520807 101.38042298 -9.89520454 98.86552048 C-9.87881041 94.89082586 -9.8557877 90.91620258 -9.83030701 86.94155884 C-9.75914343 75.64077752 -9.6992219 64.33995214 -9.64819336 53.0390625 C-9.61992247 46.79466782 -9.58456546 40.55035315 -9.54153961 34.30604231 C-9.51913039 31.00173161 -9.50178875 27.69751114 -9.49109077 24.39313889 C-9.47899998 20.71298621 -9.45487865 17.03309716 -9.42797852 13.35302734 C-9.42738937 12.25376419 -9.42680023 11.15450104 -9.42619324 10.02192688 C-9.41647491 9.02367386 -9.40675659 8.02542084 -9.39674377 6.99691772 C-9.39251184 6.12640966 -9.3882799 5.2559016 -9.38391972 4.35901451 C-8.72407613 -0.97588104 -4.31850591 0.0073947 0 0 Z " fill="#20242B" transform="translate(762.125,894.734375)"/>
<path d="M0 0 C35.62857143 0 35.62857143 0 52.25 11.1875 C62.27672658 21.44210673 66.11022123 34.15442454 66.375 48.25 C66.29093582 50.50190102 66.16774255 52.75278229 66 55 C65.92910156 56.00546875 65.85820313 57.0109375 65.78515625 58.046875 C64.49192104 69.03210892 59.42027615 79.89964696 51.1796875 87.38671875 C35.93414822 98.67060356 18.53525685 98 0 98 C0 65.66 0 33.32 0 0 Z " fill="#60D8F8" transform="translate(869,926)"/>
<path d="M0 0 C5.51363185 4.0311452 9.17743189 8.96392717 11.12109375 15.55078125 C12.20710675 24.06994987 10.87091837 30.3996564 6.12109375 37.55078125 C1.68204743 43.25812652 -4.73019035 46.92415229 -11.87890625 48.00390625 C-20.17758999 48.30028781 -26.53734897 46.19591067 -33.19140625 41.30078125 C-39.7628318 34.57653185 -41.24167506 27.0122386 -41.16015625 17.8515625 C-40.55728374 10.77618379 -37.21120077 6.12131941 -31.87890625 1.55078125 C-22.51513807 -5.3287219 -10.1600194 -5.9225072 0 0 Z " fill="#21282F" transform="translate(1078.87890625,510.44921875)"/>
<path d="M0 0 C4.08375 -0.0825 8.1675 -0.165 12.375 -0.25 C14.27451416 -0.30462402 14.27451416 -0.30462402 16.21240234 -0.36035156 C25.44718745 -0.4498555 32.96364578 0.96660522 39.9375 7.3125 C46.03324311 14.17021099 46.67878548 20.20099487 46.47265625 29.26171875 C45.6516692 35.75497995 43.04829689 40.44765617 38.03125 44.6484375 C32.30809334 48.45653789 26.62441026 50.26360802 19.7265625 50.1953125 C18.68580566 50.19031738 17.64504883 50.18532227 16.57275391 50.18017578 C14.61861572 50.15286377 14.61861572 50.15286377 12.625 50.125 C8.45875 50.08375 4.2925 50.0425 0 50 C0 33.5 0 17 0 0 Z " fill="#222931" transform="translate(1085,1392)"/>
<path d="M0 0 C28.33333333 0 28.33333333 0 37.8125 5.6875 C43.27749669 11.46478221 46.41183387 18.45536408 46.26953125 26.3984375 C45.44360682 34.37040371 42.55808276 40.36352654 36.48828125 45.5625 C24.33363359 52.58433727 14.89480191 50 0 50 C0 33.5 0 17 0 0 Z " fill="#21262D" transform="translate(719,507)"/>
<path d="M0 0 C7.858125 -0.1546875 7.858125 -0.1546875 15.875 -0.3125 C17.50679199 -0.35802002 19.13858398 -0.40354004 20.81982422 -0.45043945 C29.109902 -0.52916523 36.12163734 -0.18338968 43 5 C46.57229097 8.81032871 47.24635966 12.33213167 47.4375 17.5 C47.15894267 24.05957584 45.95350127 28.04649873 41.1875 32.8125 C35.67926109 36.59266396 31.02695497 37.24821564 24.4140625 37.1953125 C23.12967285 37.19031738 21.8452832 37.18532227 20.52197266 37.18017578 C18.90597168 37.16196777 17.2899707 37.14375977 15.625 37.125 C10.46875 37.08375 5.3125 37.0425 0 37 C0 24.79 0 12.58 0 0 Z " fill="#5FD6F6" transform="translate(1186,987)"/>
<path d="M0 0 C4.49625 -0.061875 8.9925 -0.12375 13.625 -0.1875 C15.03217285 -0.21481201 16.4393457 -0.24212402 17.88916016 -0.27026367 C19.01112793 -0.27775635 20.1330957 -0.28524902 21.2890625 -0.29296875 C23.00150146 -0.31653442 23.00150146 -0.31653442 24.74853516 -0.34057617 C29.07844642 0.11296236 32.44775101 1.55098847 35.64453125 4.53515625 C40.17451578 10.45898217 40.92219863 14.56093109 40 22 C38.33125566 25.77803719 36.18317459 28.26451309 32.6875 30.4375 C32.130625 30.623125 31.57375 30.80875 31 31 C32.89301536 36.17232986 35.70024214 40.65693138 38.5390625 45.35546875 C40 48 40 48 40 50 C36.04 50 32.08 50 28 50 C26.49480613 47.37785672 24.99568681 44.75255792 23.5 42.125 C23.07074219 41.37863281 22.64148437 40.63226562 22.19921875 39.86328125 C21.79316406 39.14785156 21.38710937 38.43242188 20.96875 37.6953125 C20.59169922 37.03547363 20.21464844 36.37563477 19.82617188 35.69580078 C19 34 19 34 19 32 C16.36 32 13.72 32 11 32 C11 37.94 11 43.88 11 50 C7.37 50 3.74 50 0 50 C0 33.5 0 17 0 0 Z " fill="#21282F" transform="translate(1243,507)"/>
<path d="M0 0 C4.29 -0.0825 8.58 -0.165 13 -0.25 C14.33675781 -0.28641602 15.67351563 -0.32283203 17.05078125 -0.36035156 C24.21109632 -0.42680958 28.95762796 0.05807158 35 4 C38.78008107 7.78008107 39.27901132 10.89576902 39.4375 16.0625 C39.43059397 21.42848144 38.05819649 24.68452895 34.5 28.6875 C33 30 33 30 30 32 C30.30292969 32.50974365 30.60585938 33.0194873 30.91796875 33.54467773 C32.28090053 35.84095568 33.64049064 38.13919431 35 40.4375 C35.47695313 41.23994141 35.95390625 42.04238281 36.4453125 42.86914062 C36.89648438 43.63291016 37.34765625 44.39667969 37.8125 45.18359375 C38.23144531 45.89056396 38.65039062 46.59753418 39.08203125 47.32592773 C40 49 40 49 40 50 C35.90398519 50.47035577 32.08012137 50.67824007 28 50 C25.38439954 47.79087799 24.30390027 45.12114711 23 42 C22.2585168 40.34073689 21.48769081 38.69426164 20.6875 37.0625 C20.36136719 36.31097656 20.03523437 35.55945312 19.69921875 34.78515625 C17.48116009 32.0776645 17.48116009 32.0776645 10 32 C10 37.94 10 43.88 10 50 C6.7 50 3.4 50 0 50 C0 33.5 0 17 0 0 Z " fill="#20252C" transform="translate(749,1392)"/>
<path d="M0 0 C1.79244141 0.01740234 1.79244141 0.01740234 3.62109375 0.03515625 C5.41740234 0.04869141 5.41740234 0.04869141 7.25 0.0625 C8.17683594 0.07410156 9.10367188 0.08570313 10.05859375 0.09765625 C12.80760251 6.14323736 15.34908165 12.2385224 17.73046875 18.4375 C18.05774963 19.28566788 18.38503052 20.13383575 18.722229 21.00770569 C19.40568176 22.78113084 20.08794141 24.55501623 20.76904297 26.3293457 C21.81578878 29.05388393 22.86864099 31.77601123 23.921875 34.49804688 C24.58760801 36.22772283 25.25298564 37.95753561 25.91796875 39.6875 C26.23352722 40.50202133 26.54908569 41.31654266 26.87420654 42.15574646 C29.05859375 47.86834994 29.05859375 47.86834994 29.05859375 50.09765625 C25.42859375 50.09765625 21.79859375 50.09765625 18.05859375 50.09765625 C17.06859375 47.12765625 16.07859375 44.15765625 15.05859375 41.09765625 C7.46859375 41.09765625 -0.12140625 41.09765625 -7.94140625 41.09765625 C-8.43640625 43.57265625 -8.43640625 43.57265625 -8.94140625 46.09765625 C-9.60140625 47.41765625 -10.26140625 48.73765625 -10.94140625 50.09765625 C-14.57140625 50.09765625 -18.20140625 50.09765625 -21.94140625 50.09765625 C-21.23295785 46.55541425 -20.5551085 43.79640416 -19.28320312 40.50683594 C-18.94615356 39.6295282 -18.609104 38.75222046 -18.26184082 37.84832764 C-17.89828491 36.91482483 -17.534729 35.98132202 -17.16015625 35.01953125 C-16.78661011 34.05235168 -16.41306396 33.08517212 -16.02819824 32.08868408 C-15.23998147 30.0505572 -14.44977574 28.01319855 -13.65771484 25.9765625 C-12.44115646 22.84701367 -11.23183741 19.71473805 -10.0234375 16.58203125 C-9.25693718 14.60269927 -8.49002445 12.62352693 -7.72265625 10.64453125 C-7.35910034 9.70293152 -6.99554443 8.76133179 -6.62097168 7.79119873 C-6.11539734 6.49415009 -6.11539734 6.49415009 -5.59960938 5.17089844 C-5.30284302 4.4065448 -5.00607666 3.64219116 -4.70031738 2.85467529 C-3.45415342 -0.03042379 -3.35491563 0.11138498 0 0 Z " fill="#21272F" transform="translate(884.94140625,1391.90234375)"/>
<path d="M0 0 C4.74375 -0.0825 9.4875 -0.165 14.375 -0.25 C15.8501709 -0.28641602 17.3253418 -0.32283203 18.84521484 -0.36035156 C26.58164679 -0.42512655 33.2272673 -0.02598901 40 4 C43.91970049 8.01530294 45.15940351 10.72361438 45.25 16.25 C45.18885521 20.92757656 44.83583468 24.12435927 42 28 C36.09017969 32.65241173 31.99570109 33.12696707 24.609375 33.09765625 C23.31999023 33.09515869 22.03060547 33.09266113 20.70214844 33.09008789 C18.25083496 33.07643188 18.25083496 33.07643188 15.75 33.0625 C7.95375 33.0315625 7.95375 33.0315625 0 33 C0 22.11 0 11.22 0 0 Z " fill="#5FD6F6" transform="translate(1186,926)"/>
<path d="M0 0 C4.455 -0.103125 8.91 -0.20625 13.5 -0.3125 C15.58344727 -0.38078003 15.58344727 -0.38078003 17.70898438 -0.45043945 C25.11312079 -0.53321795 30.37091917 -0.08107467 36 5 C39.53837607 8.88079956 40.37016056 12.5565317 40.2734375 17.80859375 C39.79272754 21.66114068 38.49706563 25.02104451 36 28 C30.43956153 32.02848093 26.30339673 32.5302249 19.5625 32.25 C15.3240625 32.12625 15.3240625 32.12625 11 32 C11 37.94 11 43.88 11 50 C7.37 50 3.74 50 0 50 C0 33.5 0 17 0 0 Z " fill="#21262E" transform="translate(1116,507)"/>
<path d="M0 0 C11.88 0 23.76 0 36 0 C36 2.97 36 5.94 36 9 C27.75 9 19.5 9 11 9 C11 12.63 11 16.26 11 20 C18.92 20 26.84 20 35 20 C35 22.97 35 25.94 35 29 C27.08 29 19.16 29 11 29 C11 32.96 11 36.92 11 41 C19.25 41 27.5 41 36 41 C36 43.97 36 46.94 36 50 C24.12 50 12.24 50 0 50 C0 33.5 0 17 0 0 Z " fill="#222830" transform="translate(810,1392)"/>
<path d="M0 0 C11.55 0 23.1 0 35 0 C35 2.97 35 5.94 35 9 C27.08 9 19.16 9 11 9 C11 12.63 11 16.26 11 20 C18.92 20 26.84 20 35 20 C35 22.97 35 25.94 35 29 C27.08 29 19.16 29 11 29 C11 32.96 11 36.92 11 41 C18.92 41 26.84 41 35 41 C35 43.97 35 46.94 35 50 C23.45 50 11.9 50 0 50 C0 33.5 0 17 0 0 Z " fill="#21272E" transform="translate(1181,507)"/>
<path d="M0 0 C11.55 0 23.1 0 35 0 C35 2.97 35 5.94 35 9 C26.75 9 18.5 9 10 9 C10 12.63 10 16.26 10 20 C18.25 20 26.5 20 35 20 C35 22.97 35 25.94 35 29 C26.75 29 18.5 29 10 29 C10 32.96 10 36.92 10 41 C18.25 41 26.5 41 35 41 C35 43.97 35 46.94 35 50 C23.45 50 11.9 50 0 50 C0 33.5 0 17 0 0 Z " fill="#20252C" transform="translate(791,507)"/>
<path d="M0 0 C11.55 0 23.1 0 35 0 C35 2.97 35 5.94 35 9 C26.75 9 18.5 9 10 9 C10 12.63 10 16.26 10 20 C17.92 20 25.84 20 34 20 C34 22.97 34 25.94 34 29 C26.08 29 18.16 29 10 29 C10 32.96 10 36.92 10 41 C18.25 41 26.5 41 35 41 C35 43.97 35 46.94 35 50 C23.45 50 11.9 50 0 50 C0 33.5 0 17 0 0 Z " fill="#20252C" transform="translate(1153,1392)"/>
<path d="M0 0 C11.55 0 23.1 0 35 0 C35 2.97 35 5.94 35 9 C26.75 9 18.5 9 10 9 C10 12.63 10 16.26 10 20 C17.92 20 25.84 20 34 20 C34 22.97 34 25.94 34 29 C26.08 29 18.16 29 10 29 C10 32.96 10 36.92 10 41 C18.25 41 26.5 41 35 41 C35 43.97 35 46.94 35 50 C23.45 50 11.9 50 0 50 C0 33.5 0 17 0 0 Z " fill="#20252C" transform="translate(923,507)"/>
<path d="M0 0 C3.96 0 7.92 0 12 0 C15.92939642 8.96393557 19.1749133 18.07536622 22.3203125 27.34008789 C22.65289063 28.31453857 22.98546875 29.28898926 23.328125 30.29296875 C23.6262207 31.1749292 23.92431641 32.05688965 24.23144531 32.96557617 C24.82699954 34.96419582 24.82699954 34.96419582 26 36 C30.29 24.12 34.58 12.24 39 0 C42.96 0 46.92 0 51 0 C50.2880992 3.55950398 49.58864443 6.37800909 48.32592773 9.69848633 C47.98565048 10.59904251 47.64537323 11.49959869 47.29478455 12.42744446 C46.92809158 13.3859581 46.56139862 14.34447174 46.18359375 15.33203125 C45.61971703 16.81965218 45.61971703 16.81965218 45.04444885 18.33732605 C43.84578363 21.49711807 42.6417181 24.65482059 41.4375 27.8125 C40.62268974 29.95754667 39.80823246 32.10272745 38.99414062 34.24804688 C37.00018265 39.50026157 35.00137969 44.75060914 33 50 C28.38 50 23.76 50 19 50 C14.55162475 38.93641915 10.13239176 27.86106925 5.75015259 16.77111816 C5.24986341 15.50656556 4.74837687 14.24248601 4.24569702 12.97888184 C3.5355482 11.1929392 2.8301717 9.40510118 2.125 7.6171875 C1.71507812 6.58190918 1.30515625 5.54663086 0.8828125 4.47998047 C0 2 0 2 0 0 Z " fill="#21282F" transform="translate(1205,1392)"/>
<path d="M0 0 C3.96 0 7.92 0 12 0 C12.32274902 0.88260498 12.64549805 1.76520996 12.97802734 2.67456055 C14.18136813 5.964168 15.38538112 9.25352782 16.58984375 12.54272461 C17.1099683 13.96352505 17.62982853 15.38442228 18.14941406 16.80541992 C18.89838488 18.85361119 19.64832083 20.9014469 20.3984375 22.94921875 C21.07398682 24.79519653 21.07398682 24.79519653 21.76318359 26.6784668 C22.80279241 29.47038901 23.87785836 32.2404476 25 35 C27.6028505 32.3971495 28.39681076 29.4997357 29.56640625 26.09375 C29.80536118 25.41324585 30.0443161 24.7327417 30.29051208 24.03161621 C31.05326672 21.85626351 31.80814778 19.6782791 32.5625 17.5 C33.32194053 15.32228088 34.0829847 13.14513334 34.84519958 10.96838379 C35.31904841 9.613516 35.79100101 8.25798324 36.26087952 6.9017334 C37.89071806 2.21856389 37.89071806 2.21856389 39 0 C42.96 0 46.92 0 51 0 C50.2915516 3.542242 49.61370225 6.30125209 48.34179688 9.59082031 C48.00474731 10.46812805 47.66769775 11.34543579 47.32043457 12.24932861 C46.95687866 13.18283142 46.59332275 14.11633423 46.21875 15.078125 C45.84520386 16.04530457 45.47165771 17.01248413 45.08679199 18.00897217 C44.29857522 20.04709905 43.50836949 22.0844577 42.71630859 24.12109375 C41.49975021 27.25064258 40.29043116 30.3829182 39.08203125 33.515625 C38.31553093 35.49495698 37.5486182 37.47412932 36.78125 39.453125 C36.41769409 40.39472473 36.05413818 41.33632446 35.67956543 42.30645752 C35.34251587 43.17115662 35.00546631 44.03585571 34.65820312 44.92675781 C34.36143677 45.69111145 34.06467041 46.45546509 33.75891113 47.24298096 C33 49 33 49 32 50 C27.66684941 50.1438629 23.33487639 50.04208618 19 50 C15.25907868 41.13504021 11.65902454 32.21878493 8.12353516 23.27026367 C7.53592104 21.78513387 6.9463681 20.30076988 6.35498047 18.81713867 C5.487738 16.64142093 4.62605686 14.46357493 3.765625 12.28515625 C3.50211243 11.62677261 3.23859985 10.96838898 2.96710205 10.29005432 C1.60054322 6.80962624 0.74134764 3.70673821 0 0 Z " fill="#21272F" transform="translate(848,507)"/>
<path d="M0 0 C3.70574309 2.27047716 6.59382178 5.10477005 9.4375 8.375 C9.4375 9.035 9.4375 9.695 9.4375 10.375 C6.4675 11.695 3.4975 13.015 0.4375 14.375 C-1.05989583 13.10546875 -2.55729167 11.8359375 -4.0546875 10.56640625 C-7.33381601 7.97538502 -10.18919026 8.04162142 -14.2421875 8.09375 C-18.79730628 8.64588561 -21.45607501 11.15793251 -24.4375 14.4375 C-26.62010529 20.13652492 -26.351796 26.09019579 -24.375 31.8125 C-22.20678198 34.87791168 -20.89780756 36.56837507 -17.5625 38.375 C-11.9312931 39.05345866 -6.67193638 39.055655 -1.5625 36.375 C-1.2325 35.385 -0.9025 34.395 -0.5625 33.375 C3.15638239 33.88212033 6.17204239 34.49108215 9.4375 36.375 C7.24616527 41.7537307 3.41270525 45.10546407 -1.6875 47.6875 C-8.19025153 50.29934896 -14.06217324 50.561992 -20.71875 48.3046875 C-28.47023101 44.79349684 -32.99797461 40.66433361 -36.6875 33.0546875 C-38.82139058 26.5196476 -38.83346205 18.08875147 -35.875 11.8125 C-28.5538211 -0.23533475 -13.2484513 -6.2118225 0 0 Z " fill="#21272F" transform="translate(965.5625,1393.625)"/>
<path d="M0 0 C3.91707096 1.94172402 6.41231337 4.43451435 8.34765625 8.35546875 C10.11530107 13.66886265 9.63030112 18.57188628 7.3828125 23.65234375 C5.18356935 27.46487254 3.12544576 29.54305833 -0.9921875 31.33984375 C-5.63741209 32.13977668 -9.93980583 32.43907308 -14.1875 30.1640625 C-18.4966675 26.67525952 -20.62864744 23.24393703 -21.328125 17.65625 C-21.41254833 11.70440516 -21.22474603 7.90655164 -16.9921875 3.33984375 C-11.81446797 -1.23581537 -6.51973567 -2.16046143 0 0 Z " fill="#60D7F8" transform="translate(1069.9921875,516.66015625)"/>
<path d="M0 0 C13.2 0 26.4 0 40 0 C40 2.97 40 5.94 40 9 C35.05 9 30.1 9 25 9 C25 22.53 25 36.06 25 50 C21.7 50 18.4 50 15 50 C15 36.47 15 22.94 15 9 C10.05 9 5.1 9 0 9 C0 6.03 0 3.06 0 0 Z " fill="#20252D" transform="translate(992,1392)"/>
<path d="M0 0 C14.91891892 0 14.91891892 0 20 4 C24.24275256 8.68935809 25.29815263 11.50011368 25.21875 17.68359375 C24.80676381 22.04623325 22.87088728 24.95493527 20.125 28.25 C13.69205903 33.54771609 8.73868193 32 0 32 C0 21.44 0 10.88 0 0 Z " fill="#5ED2F2" transform="translate(729,516)"/>
<path d="M0 0 C3.3 0 6.6 0 10 0 C10 13.53 10 27.06 10 41 C16.93 41 23.86 41 31 41 C31 43.97 31 46.94 31 50 C20.77 50 10.54 50 0 50 C0 33.5 0 17 0 0 Z " fill="#20232A" transform="translate(985,507)"/>
<path d="M0 0 C16.92307692 0 16.92307692 0 22.34375 5.28515625 C25.33862752 10.19421257 24.67854768 15.44570248 24 21 C21.63820774 26.38488636 18.42633152 28.82946739 13 31 C8.71 31 4.42 31 0 31 C0 20.77 0 10.54 0 0 Z " fill="#60D7F8" transform="translate(1096,1402)"/>
<path d="M0 0 C13.3107415 -0.4033558 13.3107415 -0.4033558 18 3 C19 4 19 4 19.3125 6.8125 C19 10 19 10 17.46484375 12.18359375 C14.12115678 14.64764199 11.22690087 14.44546205 7.25 14.25 C6.55261719 14.23195313 5.85523438 14.21390625 5.13671875 14.1953125 C3.42388461 14.14838554 1.71176176 14.07664605 0 14 C0 9.38 0 4.76 0 0 Z " fill="#5DCFEE" transform="translate(1126,516)"/>
<path d="M0 0 C12.70613183 -0.59374448 12.70613183 -0.59374448 16.04296875 0.9375 C18.13909574 2.90453999 18.95340084 4.78771492 19.5625 7.5625 C18.79622561 10.88302235 17.71174673 11.93699651 15 14 C12.26317029 14.2911521 9.96059961 14.38322418 7.25 14.25 C6.55261719 14.23195313 5.85523438 14.21390625 5.13671875 14.1953125 C3.42388461 14.14838554 1.71176176 14.07664605 0 14 C0 9.38 0 4.76 0 0 Z " fill="#5DD0F0" transform="translate(759,1401)"/>
<path d="M0 0 C12.24185013 -0.40357748 12.24185013 -0.40357748 17 3 C18 4 18 4 18.3125 6.8125 C18 10 18 10 16.43359375 12.18359375 C11.72799595 15.69579757 5.62137189 14.20819896 0 14 C0 9.38 0 4.76 0 0 Z " fill="#5FD5F5" transform="translate(1254,516)"/>
<path d="M0 0 C2.81083807 2.81083807 3.77143886 6.21585145 5.125 9.875 C5.40214844 10.59558594 5.67929687 11.31617188 5.96484375 12.05859375 C6.22652344 12.75855469 6.48820313 13.45851563 6.7578125 14.1796875 C6.9964502 14.81632324 7.23508789 15.45295898 7.48095703 16.10888672 C8 18 8 18 8 22 C3.05 22 -1.9 22 -7 22 C-5.875 15.25 -5.875 15.25 -4.58984375 11.9140625 C-4.32236328 11.21152344 -4.05488281 10.50898437 -3.77929688 9.78515625 C-3.50150391 9.07230469 -3.22371094 8.35945313 -2.9375 7.625 C-2.65583984 6.88894531 -2.37417969 6.15289063 -2.08398438 5.39453125 C-1.39433382 3.5944264 -0.69786068 1.7969379 0 0 Z " fill="#5ED2F2" transform="translate(888,1402)"/>
</svg>
