<?xml version="1.0" encoding="UTF-8"?>
<svg version="1.1" xmlns="http://www.w3.org/2000/svg" width="2000" height="2000">
<path d="M0 0 C660 0 1320 0 2000 0 C2000 660 2000 1320 2000 2000 C1340 2000 680 2000 0 2000 C0 1340 0 680 0 0 Z " fill="#000000" transform="translate(0,0)"/>
<path d="M0 0 C1.66409912 0.30623291 1.66409912 0.30623291 3.36181641 0.61865234 C19.33290281 3.73924918 32.88190505 6.704575 43.78369141 19.50683594 C48.31476783 24.60392257 53.2582623 29.31700483 58.10290527 34.11361694 C59.89808987 35.89831997 61.68195238 37.69353274 63.46191406 39.4934082 C64.02985184 40.06638641 64.59778961 40.63936462 65.18293762 41.22970581 C66.24379412 42.30063481 67.30294875 43.37325402 68.35990906 44.44802856 C71.1146197 47.22035407 73.94356894 49.84850671 76.90258789 52.40258789 C81.02981038 55.97706586 84.88376125 59.77270814 88.71875 63.65625 C89.77201477 64.7151947 89.77201477 64.7151947 90.84655762 65.79553223 C93.81383766 68.77897375 96.77505363 71.7684071 99.73681641 74.75732422 C101.91618465 76.95490579 104.09864947 79.14937938 106.28125 81.34375 C106.936698 82.00749634 107.592146 82.67124268 108.26745605 83.35510254 C112.12791 87.23566174 116.09377634 90.86268362 120.33062744 94.33126831 C123.251236 97.25075565 124.19084437 100.7194424 125.25 104.625 C125.60203491 105.80642578 125.60203491 105.80642578 125.96118164 107.01171875 C126.43256765 108.59642608 126.89446398 110.18399135 127.34619141 111.77441406 C127.93316944 113.77250659 128.60777215 115.74436114 129.29296875 117.7109375 C129.67066406 118.79632812 130.04835938 119.88171875 130.4375 121 C130.76621094 121.928125 131.09492187 122.85625 131.43359375 123.8125 C132.84543232 131.75774325 130.48727459 139.85416822 128.453125 147.51953125 C128.07350616 148.98842049 128.07350616 148.98842049 127.68621826 150.48698425 C126.88109955 153.5973459 126.06606832 156.70499518 125.25 159.8125 C124.18954775 163.88069226 123.13310794 167.94991752 122.078125 172.01953125 C121.68417038 173.53703224 121.68417038 173.53703224 121.28225708 175.08518982 C118.95400258 184.09258201 116.79547419 193.13565294 114.6628418 202.19094849 C112.6354857 210.78266334 110.57137025 219.36455034 108.453125 227.93432617 C107.89585838 230.20758628 107.34750951 232.48304906 106.80761719 234.76049805 C106.01124038 238.11314902 105.18457744 241.45707105 104.3515625 244.80078125 C104.11901764 245.80917557 103.88647278 246.81756989 103.6468811 247.85652161 C101.86976158 254.80641885 99.09592504 259.00494724 94 264 C93.30543701 264.76344727 92.61087402 265.52689453 91.89526367 266.31347656 C90.00909974 268.30867809 88.10162255 270.28161591 86.1875 272.25 C85.53974609 272.94351562 84.89199219 273.63703125 84.22460938 274.3515625 C76.4177726 282.33426338 66.89533305 284.48167407 56.375 287.3125 C54.14163061 287.92600507 51.90856439 288.54061475 49.67578125 289.15625 C48.55510254 289.46433594 47.43442383 289.77242187 46.27978516 290.08984375 C41.36142533 291.4547124 36.46080473 292.87755815 31.5625 294.3125 C30.60037598 294.59399902 29.63825195 294.87549805 28.64697266 295.16552734 C22.02333226 297.10688404 15.40312369 299.05988587 8.78282166 301.0125885 C2.98747998 302.72146343 -2.80991965 304.42326613 -8.60826111 306.12193298 C-12.78797057 307.34737254 -16.96429789 308.58352291 -21.13806152 309.82905579 C-23.07819906 310.40636727 -25.019708 310.97876195 -26.96191406 311.54907227 C-29.33351568 312.24566306 -31.70283893 312.9500783 -34.06933594 313.66381836 C-35.66310059 314.12800171 -35.66310059 314.12800171 -37.2890625 314.6015625 C-38.20381348 314.87307129 -39.11856445 315.14458008 -40.06103516 315.42431641 C-48.66380022 317.10942357 -56.54754567 315.02473009 -64.89086914 312.96655273 C-67.05566097 312.43916612 -69.22685571 311.94889536 -71.40039062 311.45898438 C-79.41784778 309.55727414 -84.69373656 307.5251628 -90 301 C-91.14628783 299.9767037 -92.31482476 298.97799323 -93.5 298 C-101.08940335 291.44883872 -107.97006742 284.08103494 -115.01855469 276.9609375 C-123.27293977 268.47979281 -123.27293977 268.47979281 -132 260.5 C-139.46469884 254.1799958 -146.14351343 246.90582678 -153.01855469 239.9609375 C-154.98941476 237.97183761 -156.96282188 235.98530912 -158.9375 234 C-159.56480515 233.36747818 -160.19211029 232.73495636 -160.83842468 232.08326721 C-164.03557772 228.88131128 -167.27204829 225.84299321 -170.76953125 222.96484375 C-174.02933723 220.19475734 -175.42498541 217.7193168 -176.6875 213.5625 C-177.06648438 212.35207031 -177.44546875 211.14164063 -177.8359375 209.89453125 C-178.0225293 209.26111816 -178.20912109 208.62770508 -178.40136719 207.97509766 C-179.02247519 205.92584654 -179.7097056 203.90876634 -180.4140625 201.88671875 C-184.07337352 191.08790397 -185.10273696 182.53246136 -182.01953125 171.41796875 C-181.55639792 169.65814702 -181.09370241 167.89821004 -180.63134766 166.13818359 C-180.37226624 165.16830505 -180.11318481 164.19842651 -179.84625244 163.19915771 C-178.38768153 157.68520213 -176.99872769 152.153442 -175.59945297 146.62421036 C-174.70530089 143.09443094 -173.80658867 139.56581322 -172.90820312 136.03710938 C-172.72556349 135.31936403 -172.54292385 134.60161869 -172.35474968 133.86212349 C-171.43471539 130.24664625 -170.5139668 126.63135282 -169.59204102 123.01635742 C-168.68235273 119.44925994 -167.77508081 115.88155288 -166.86853409 112.31365585 C-166.32565703 110.18143031 -165.77949386 108.05006448 -165.23312378 105.91873169 C-163.35513412 98.56162535 -161.57371337 91.1936949 -159.92041016 83.78271484 C-159.40869507 81.5308352 -158.89530451 79.27934356 -158.38147926 77.02794456 C-158.06174397 75.60147364 -157.75083802 74.17298923 -157.44965172 72.74248695 C-155.60396012 63.97674989 -153.61345317 58.13325359 -147 52 C-146.31292969 51.19167725 -145.62585938 50.38335449 -144.91796875 49.55053711 C-142.993154 47.30012235 -141.00020396 45.12105599 -139 42.9375 C-138.36578125 42.17373047 -137.7315625 41.40996094 -137.078125 40.62304688 C-129.50458999 32.54507021 -119.4968372 30.59537513 -109.14892578 27.84378052 C-105.04481238 26.74404963 -100.96674211 25.56135481 -96.88574219 24.3792572 C-90.73372351 22.60107817 -84.56877555 20.86807353 -78.40673828 19.125 C-64.3710845 15.1509296 -50.38995806 11.03180098 -36.44494629 6.75048828 C-31.18083599 5.13464375 -25.9113612 3.54185535 -20.625 2 C-19.61179687 1.68933594 -18.59859375 1.37867188 -17.5546875 1.05859375 C-11.22095477 -0.77096894 -6.44182176 -1.3225753 0 0 Z " fill="#266ECF" transform="translate(457,839)"/>
<path d="M0 0 C2.08417089 1.74556609 3.81335508 3.38418141 5.625 5.375 C9.51228766 9.51816822 9.51228766 9.51816822 14 13 C14 13.66 14 14.32 14 15 C14.87764008 15.38917351 14.87764008 15.38917351 15.77301025 15.78620911 C18.1628227 17.08874433 19.72236974 18.48771054 21.63183594 20.4206543 C22.67377106 21.46765755 22.67377106 21.46765755 23.73675537 22.53581238 C24.47846985 23.29098648 25.22018433 24.04616058 25.984375 24.82421875 C26.75879944 25.60384476 27.53322388 26.38347076 28.33111572 27.1867218 C30.80886979 29.68228362 33.27986043 32.18440278 35.75 34.6875 C38.20666521 37.17191732 40.66481455 39.65481747 43.1260376 42.13471985 C44.65602399 43.67681301 46.18333153 45.22157039 47.7074585 46.76945496 C52.29694584 51.40132379 57.03764463 55.77107971 62 60 C64.75314728 62.37310272 67.45477111 64.78396509 70.125 67.25 C70.82109375 67.84167969 71.5171875 68.43335938 72.234375 69.04296875 C74.25691754 70.94867118 75.63632577 72.579092 77 75 C77.01890564 77.06474304 77.01890564 77.06474304 76.49975586 79.4362793 C76.18494263 80.8991185 76.18494263 80.8991185 75.86376953 82.39151001 C75.57872559 83.58231171 75.29368164 84.7731134 75 86 C74.74561913 87.07256861 74.74561913 87.07256861 74.48609924 88.16680527 C72.97717258 94.50015166 71.39510414 100.81463574 69.80859375 107.12890625 C69.2979415 109.17099594 68.78753389 111.21314683 68.27735901 113.25535583 C67.2129254 117.51300099 66.14608074 121.77003214 65.07739258 126.02661133 C63.70584927 131.48997325 62.33958478 136.95463866 60.97498989 142.41973972 C59.92420245 146.62622294 58.87107631 150.83211775 57.81718636 155.03782463 C57.31218724 157.05396745 56.80782514 159.07026993 56.30410576 161.08673286 C55.60276234 163.89247581 54.89837788 166.6974373 54.19311523 169.50219727 C53.98478561 170.33799316 53.77645599 171.17378906 53.56181335 172.03491211 C52.11437894 177.77124211 52.11437894 177.77124211 51 180 C48.45336914 180.92626953 48.45336914 180.92626953 45.03515625 181.8828125 C43.7733252 182.24133301 42.51149414 182.59985352 41.21142578 182.96923828 C40.53565491 183.15746155 39.85988403 183.34568481 39.16363525 183.53961182 C35.60332713 184.53153383 32.05014653 185.54843821 28.49609375 186.5625 C27.77518555 186.76747101 27.05427734 186.97244202 26.31152344 187.18362427 C19.71795163 189.06443281 13.16891568 191.078418 6.625 193.125 C-2.86636048 196.08062058 -12.39722304 198.84487086 -21.98266602 201.47900391 C-26.96862842 202.85320421 -31.93254929 204.26788224 -36.87109375 205.8046875 C-38.25095459 206.23273682 -38.25095459 206.23273682 -39.65869141 206.66943359 C-41.37862761 207.20772458 -43.0959662 207.75441591 -44.81005859 208.31103516 C-45.57012207 208.54870605 -46.33018555 208.78637695 -47.11328125 209.03125 C-47.77110596 209.24330078 -48.42893066 209.45535156 -49.10668945 209.67382812 C-51.39398088 210.06787343 -52.82347018 209.77779472 -55 209 C-57.078125 207.1796875 -57.078125 207.1796875 -59.25 204.875 C-61.95347363 202.02352599 -64.71348981 199.35505298 -67.69482422 196.80078125 C-71.80411412 193.22083645 -75.66511161 189.44775672 -79.4921875 185.5703125 C-80.16420197 184.89451141 -80.83621643 184.21871033 -81.52859497 183.52243042 C-83.64654199 181.39239759 -85.76117003 179.2591181 -87.875 177.125 C-90.68204089 174.29141798 -93.49234838 171.46113492 -96.3046875 168.6328125 C-97.26868973 167.65636276 -97.26868973 167.65636276 -98.25216675 166.66018677 C-98.84683746 166.06221283 -99.44150818 165.46423889 -100.05419922 164.84814453 C-100.57634003 164.32076691 -101.09848083 163.79338928 -101.63644409 163.25003052 C-102.99895469 161.88603887 -102.99895469 161.88603887 -105 161 C-105 160.34 -105 159.68 -105 159 C-105.55196045 158.76603516 -106.1039209 158.53207031 -106.67260742 158.29101562 C-111.32050626 155.71280425 -114.96612299 151.68474786 -118.75610352 147.99902344 C-119.79125714 147.00202841 -120.83789355 146.01681617 -121.89575195 145.04394531 C-123.43354458 143.62857238 -124.93126444 142.17959149 -126.42578125 140.71875 C-127.32723877 139.86216797 -128.22869629 139.00558594 -129.1574707 138.12304688 C-133.02455203 131.56842857 -129.59825262 122.51692887 -127.80688477 115.48291016 C-127.5856192 114.59054657 -127.36435364 113.69818298 -127.13638306 112.77877808 C-126.4116442 109.86376231 -125.67682065 106.95140163 -124.94140625 104.0390625 C-124.43147974 102.00039499 -123.92204238 99.96160507 -123.41307068 97.92269897 C-122.34907658 93.66690132 -121.28025869 89.41235451 -120.20776367 85.15869141 C-118.83335551 79.70658655 -117.46946362 74.25191769 -116.10893345 68.79633522 C-115.0599192 64.59359967 -114.00621824 60.39205064 -112.95100212 56.19086838 C-112.44619378 54.17932921 -111.94265185 52.16747179 -111.44040108 50.15529251 C-110.73907436 47.34924448 -110.03165572 44.54480328 -109.32250977 41.74072266 C-109.11620438 40.91054626 -108.90989899 40.08036987 -108.69734192 39.22503662 C-108.50251221 38.45988739 -108.3076825 37.69473816 -108.10694885 36.90640259 C-107.94048135 36.24463831 -107.77401384 35.58287403 -107.60250187 34.90105629 C-106.9305054 32.78072575 -106.11077446 30.92738924 -105 29 C-103.16792297 28.07255554 -103.16792297 28.07255554 -100.9152832 27.46362305 C-100.06790085 27.22599747 -99.22051849 26.98837189 -98.34745789 26.74354553 C-97.4245546 26.50204269 -96.50165131 26.26053986 -95.55078125 26.01171875 C-94.59448318 25.7476976 -93.63818512 25.48367645 -92.65290833 25.21165466 C-89.54314688 24.35600443 -86.42799304 23.52201238 -83.3125 22.6875 C-80.12282189 21.81422202 -76.93471294 20.93536457 -73.74658203 20.05645752 C-71.6592128 19.48160356 -69.57132379 18.9086335 -67.48291016 18.33758545 C-60.32604283 16.37938059 -53.20970227 14.33178591 -46.125 12.125 C-44.44018983 11.60258822 -42.75529602 11.08044611 -41.0703125 10.55859375 C-40.26239258 10.30835449 -39.45447266 10.05811523 -38.62207031 9.80029297 C-30.58757281 7.34805062 -22.5113071 5.02766198 -14.4375 2.70849609 C-12.93363773 2.27137587 -11.43281616 1.82342643 -9.9375 1.35791016 C-3.40482669 -0.65011254 -3.40482669 -0.65011254 0 0 Z " fill="#000000" transform="translate(458,892)"/>
<path d="M0 0 C47.5426009 0 47.5426009 0 60.99609375 11.7421875 C69.83622852 20.90550999 72.18505191 32.39852156 72.25 44.625 C72.270625 45.57246094 72.29125 46.51992188 72.3125 47.49609375 C72.37555198 59.01884297 69.03864069 69.46126484 61.11328125 78.04296875 C44.26466287 93.56753067 21.89419313 90 0 90 C0 60.3 0 30.6 0 0 Z " fill="#F9F9F9" transform="translate(688,947)"/>
<path d="M0 0 C50.80952381 0 50.80952381 0 59.125 7.9375 C63.78501497 14.11683858 64.89142599 19.31145081 64 27 C62.26299639 33.80984368 59.80794267 38.04003909 54 42 C54.57492187 42.42539062 55.14984375 42.85078125 55.7421875 43.2890625 C57.91671472 44.93688762 60.03625018 46.61981479 62.125 48.375 C62.80820312 48.93960938 63.49140625 49.50421875 64.1953125 50.0859375 C68.69825218 54.86178261 68.42844689 60.4082619 68.30859375 66.640625 C67.69291866 73.34291079 65.70339576 78.82829849 60.6875 83.4375 C43.93384658 96.13727154 18.13559833 90 0 90 C0 60.3 0 30.6 0 0 Z " fill="#FAFAFA" transform="translate(849,947)"/>
<path d="M0 0 C2.64 0 5.28 0 8 0 C8 29.7 8 59.4 8 90 C5.36 90 2.72 90 0 90 C-0.495 85.545 -0.495 85.545 -1 81 C-1.49628906 81.47050781 -1.99257812 81.94101562 -2.50390625 82.42578125 C-10.43126731 89.69127536 -15.84279246 91.61787392 -26.625 91.34375 C-33.88617432 90.60418595 -38.55205478 87.159199 -43.46484375 81.921875 C-50.8771571 72.64233768 -51.89766447 61.49476842 -51 50 C-49.35994163 40.73201913 -45.12775999 34.10292858 -38 28 C-31.83419695 23.77264657 -25.32427322 22.9787281 -18 24 C-11.67208432 25.70507238 -6.63274867 28.36725133 -2 33 C-2 33.66 -2 34.32 -2 35 C-1.34 35 -0.68 35 0 35 C0 23.45 0 11.9 0 0 Z " fill="#020202" transform="translate(1241,866)"/>
<path d="M0 0 C7.64044951 5.37178361 12.52966462 13.45064024 14.2890625 22.609375 C15.1444802 34.40292063 14.01145244 45.12186736 6.2890625 54.609375 C-0.00613078 60.99899618 -5.55225928 63.73496697 -14.5234375 64.171875 C-21.54724144 64.01496023 -26.40978326 62.21824971 -31.7109375 57.609375 C-33.3609375 55.629375 -35.0109375 53.649375 -36.7109375 51.609375 C-37.0409375 63.489375 -37.3709375 75.369375 -37.7109375 87.609375 C-40.0209375 87.609375 -42.3309375 87.609375 -44.7109375 87.609375 C-44.7109375 57.909375 -44.7109375 28.209375 -44.7109375 -2.390625 C-42.4009375 -2.390625 -40.0909375 -2.390625 -37.7109375 -2.390625 C-37.3809375 1.239375 -37.0509375 4.869375 -36.7109375 8.609375 C-36.0715625 7.7225 -35.4321875 6.835625 -34.7734375 5.921875 C-26.19731835 -4.41847438 -11.43721341 -6.46293329 0 0 Z " fill="#030303" transform="translate(1612.7109375,893.390625)"/>
<path d="M0 0 C7.79876966 4.45940286 13.19559705 9.6185262 16.671875 18.01953125 C19.17871181 27.64006726 19.19503751 38.25832812 14.875 47.3125 C12.5455585 51.23864787 10.1160287 54.52178414 6.5625 57.4375 C5.4178125 58.489375 5.4178125 58.489375 4.25 59.5625 C-3.723572 65.12545721 -11.9332444 65.47341357 -21.4375 64.4375 C-30.15516351 62.01527672 -36.17347164 55.81132061 -40.78515625 48.21875 C-45.22074318 39.69733569 -45.93971227 29.86696852 -43.75390625 20.51171875 C-39.80358458 9.97206385 -33.17455773 3.14005238 -23.0703125 -1.6953125 C-15.38590382 -4.22637886 -7.23529622 -3.41717391 0 0 Z " fill="#020202" transform="translate(1535.4375,892.5625)"/>
<path d="M0 0 C8.24718465 4.3021731 14.49766349 10.59157045 17.859375 19.34765625 C18.984375 24.03515625 18.984375 24.03515625 18.984375 35.03515625 C2.154375 35.03515625 -14.675625 35.03515625 -32.015625 35.03515625 C-28.283414 45.78970182 -28.283414 45.78970182 -21.015625 52.03515625 C-16.00039719 53.57751755 -10.68107903 54.14653068 -5.7578125 52.09375 C-2.45393757 50.14921845 -0.43634819 48.91005464 1.26171875 45.37890625 C1.83019531 44.60546875 2.39867187 43.83203125 2.984375 43.03515625 C6.33984375 42.546875 6.33984375 42.546875 10.171875 42.72265625 C11.44417969 42.76777344 12.71648438 42.81289063 14.02734375 42.859375 C15.49107422 42.94638672 15.49107422 42.94638672 16.984375 43.03515625 C15.77385748 50.46567338 11.80347455 56.1096969 5.90234375 60.71484375 C-3.20662938 66.98537922 -13.04407969 67.4052656 -23.765625 65.5625 C-32.07634473 63.15296841 -38.84796197 57.57815094 -43.015625 50.03515625 C-47.58101718 40.02567716 -48.51239096 29.56187878 -45.015625 19.03515625 C-40.9036443 9.49407603 -34.66099606 2.93524107 -25.015625 -0.96484375 C-17.56923386 -3.44697413 -7.28311951 -2.94336597 0 0 Z " fill="#F9F9F9" transform="translate(817.015625,971.96484375)"/>
<path d="M0 0 C9.38712513 5.33728686 14.38188938 12.86786283 17.3125 23.125 C17.63975625 26.23393435 17.5625 29.37388909 17.5625 32.5 C-0.2575 32.5 -18.0775 32.5 -36.4375 32.5 C-32.66335925 46.801595 -32.66335925 46.801595 -22.4375 55.5 C-15.90117635 57.53922494 -8.56184249 57.28818336 -2.2578125 54.62109375 C2.08708929 51.94515638 4.78249335 47.67000998 7.5625 43.5 C9.5078125 43.20703125 9.5078125 43.20703125 11.6875 43.3125 C12.96625 43.374375 14.245 43.43625 15.5625 43.5 C13.97678698 50.3714231 9.92875474 56.34253673 3.984375 60.15234375 C-4.97267705 64.67015509 -14.56307116 66.51975973 -24.40234375 63.62890625 C-33.99944609 59.11871177 -39.50079666 52.21161939 -43.4375 42.5 C-46.42325867 33.37046867 -45.11468232 22.72068812 -41.05078125 14.2265625 C-32.33694787 -0.50044888 -16.31846039 -7.60291905 0 0 Z " fill="#F6F6F6" transform="translate(1272.4375,1055.5)"/>
<path d="M0 0 C9.38712513 5.33728686 14.38188938 12.86786283 17.3125 23.125 C17.63975625 26.23393435 17.5625 29.37388909 17.5625 32.5 C-0.2575 32.5 -18.0775 32.5 -36.4375 32.5 C-32.66335925 46.801595 -32.66335925 46.801595 -22.4375 55.5 C-15.90117635 57.53922494 -8.56184249 57.28818336 -2.2578125 54.62109375 C2.08708929 51.94515638 4.78249335 47.67000998 7.5625 43.5 C9.5078125 43.20703125 9.5078125 43.20703125 11.6875 43.3125 C12.96625 43.374375 14.245 43.43625 15.5625 43.5 C13.97678698 50.3714231 9.92875474 56.34253673 3.984375 60.15234375 C-4.97267705 64.67015509 -14.56307116 66.51975973 -24.40234375 63.62890625 C-33.99944609 59.11871177 -39.50079666 52.21161939 -43.4375 42.5 C-46.42325867 33.37046867 -45.11468232 22.72068812 -41.05078125 14.2265625 C-32.33694787 -0.50044888 -16.31846039 -7.60291905 0 0 Z " fill="#F6F6F6" transform="translate(1682.4375,892.5)"/>
<path d="M0 0 C8.65142241 5.60585398 13.93438401 12.63426484 16.6796875 22.73828125 C17.09810375 25.90285469 17.01953125 29.1164789 17.01953125 32.30859375 C-0.80046875 32.30859375 -18.62046875 32.30859375 -36.98046875 32.30859375 C-32.75775993 46.08409036 -32.75775993 46.08409036 -23.35546875 55.30859375 C-17.27075446 57.11147206 -10.51985737 57.66303695 -4.5 55.359375 C0.6481452 52.29753255 3.72829502 48.24544809 7.01953125 43.30859375 C8.96484375 43.015625 8.96484375 43.015625 11.14453125 43.12109375 C12.42328125 43.18296875 13.70203125 43.24484375 15.01953125 43.30859375 C12.78998181 51.1120168 8.71550765 56.78680889 2.01953125 61.30859375 C-5.61615423 65.36980495 -15.30897476 65.73069971 -23.59765625 63.65234375 C-33.14621895 59.81970266 -38.46479 53.36971507 -42.8515625 44.2734375 C-46.05350553 35.86418227 -46.08607268 25.76963911 -42.98046875 17.30859375 C-39.29435186 9.98741423 -35.06504684 4.49105551 -27.98046875 0.30859375 C-26.94921875 -0.31015625 -25.91796875 -0.92890625 -24.85546875 -1.56640625 C-17.16577981 -4.51176876 -7.21038738 -3.86605186 0 0 Z " fill="#F6F6F6" transform="translate(1434.98046875,892.69140625)"/>
<path d="M0 0 C8.65142241 5.60585398 13.93438401 12.63426484 16.6796875 22.73828125 C17.09810375 25.90285469 17.01953125 29.1164789 17.01953125 32.30859375 C-0.80046875 32.30859375 -18.62046875 32.30859375 -36.98046875 32.30859375 C-32.75775993 46.08409036 -32.75775993 46.08409036 -23.35546875 55.30859375 C-17.27075446 57.11147206 -10.51985737 57.66303695 -4.5 55.359375 C0.6481452 52.29753255 3.72829502 48.24544809 7.01953125 43.30859375 C8.96484375 43.015625 8.96484375 43.015625 11.14453125 43.12109375 C12.42328125 43.18296875 13.70203125 43.24484375 15.01953125 43.30859375 C12.78998181 51.1120168 8.71550765 56.78680889 2.01953125 61.30859375 C-5.61615423 65.36980495 -15.30897476 65.73069971 -23.59765625 63.65234375 C-33.14621895 59.81970266 -38.46479 53.36971507 -42.8515625 44.2734375 C-46.05350553 35.86418227 -46.08607268 25.76963911 -42.98046875 17.30859375 C-39.29435186 9.98741423 -35.06504684 4.49105551 -27.98046875 0.30859375 C-26.94921875 -0.31015625 -25.91796875 -0.92890625 -24.85546875 -1.56640625 C-17.16577981 -4.51176876 -7.21038738 -3.86605186 0 0 Z " fill="#F6F6F6" transform="translate(1304.98046875,892.69140625)"/>
<path d="M0 0 C25.78172589 0 25.78172589 0 33.9140625 6.5390625 C40.71751519 13.61063155 42.60655683 22.33943155 42.47045898 31.88427734 C42.09783219 40.30464918 40.58189918 48.76595224 34.6875 55.125 C24.64366159 63.81388805 13.01571288 62 0 62 C0 41.54 0 21.08 0 0 Z " fill="#010101" transform="translate(703,961)"/>
<path d="M0 0 C6.25615613 3.98119026 9.11036179 10.0010541 11 17 C11.26899063 20.55155686 11.232994 24.08847354 11.1953125 27.6484375 C11.1924826 28.66096588 11.18965271 29.67349426 11.18673706 30.71670532 C11.17558254 33.93625938 11.15048646 37.15553065 11.125 40.375 C11.1149641 42.56379805 11.10583931 44.75260049 11.09765625 46.94140625 C11.0756587 52.29436658 11.04222824 57.64716308 11 63 C8.36 63 5.72 63 3 63 C2.67 59.7 2.34 56.4 2 53 C1.38125 53.886875 0.7625 54.77375 0.125 55.6875 C-4.41866134 61.00105951 -9.7855887 63.61006614 -16.703125 64.44921875 C-23.81991616 64.65478343 -30.27905983 64.61912947 -36 60 C-40.26113419 55.88913251 -42.13774367 52.17331983 -42.3125 46.25 C-42.23236596 41.24526486 -41.42265901 37.73727669 -38 34 C-32.06519534 29.34136419 -25.7820349 26.99414304 -18.38671875 25.7109375 C-17.13955078 25.49179688 -15.89238281 25.27265625 -14.60742188 25.046875 C-13.31384766 24.82515625 -12.02027344 24.6034375 -10.6875 24.375 C-9.36124128 24.14372665 -8.03506835 23.91196075 -6.70898438 23.6796875 C-3.47346695 23.11494264 -0.2371611 22.55523198 3 22 C2.72261882 20.56982415 2.43394254 19.14183643 2.140625 17.71484375 C1.90134277 16.52169556 1.90134277 16.52169556 1.65722656 15.30444336 C0.57195929 11.49915445 -1.09991135 9.70235533 -4 7 C-8.96492205 4.45980732 -14.53533922 4.19042063 -20 5 C-26.22866115 7.38907551 -29.21844176 11.08918874 -32 17 C-34.31 17 -36.62 17 -39 17 C-38.87836428 11.16148556 -37.1712311 8.07355535 -33.13671875 3.8671875 C-23.57816406 -4.48562629 -11.30926977 -5.65463488 0 0 Z " fill="#F4F4F4" transform="translate(1343,1056)"/>
<path d="M0 0 C2.64 0 5.28 0 8 0 C8 29.7 8 59.4 8 90 C5.36 90 2.72 90 0 90 C-0.495 85.545 -0.495 85.545 -1 81 C-1.49628906 81.47050781 -1.99257812 81.94101562 -2.50390625 82.42578125 C-10.43126731 89.69127536 -15.84279246 91.61787392 -26.625 91.34375 C-33.88617432 90.60418595 -38.55205478 87.159199 -43.46484375 81.921875 C-50.8771571 72.64233768 -51.89766447 61.49476842 -51 50 C-49.35994163 40.73201913 -45.12775999 34.10292858 -38 28 C-31.83419695 23.77264657 -25.32427322 22.9787281 -18 24 C-11.67208432 25.70507238 -6.63274867 28.36725133 -2 33 C-2 33.66 -2 34.32 -2 35 C-1.34 35 -0.68 35 0 35 C0 23.45 0 11.9 0 0 Z M-38.7109375 40.10546875 C-43.71105027 47.45411934 -43.87202385 55.29892688 -43 64 C-41.13784761 71.75419355 -38.36802472 77.45679766 -31.9375 82.3125 C-26.57947531 85.12948723 -20.50177744 84.97780871 -14.76171875 83.375 C-8.59662493 80.69348346 -3.99315705 75.69398439 -0.828125 69.828125 C0.36051529 65.76880627 0.36844843 61.89688205 0.375 57.6875 C0.41173828 56.46256836 0.41173828 56.46256836 0.44921875 55.21289062 C0.48279981 48.18885299 -1.31615346 43.06267975 -5.96484375 37.7578125 C-12.13022641 32.65458487 -16.38184997 30.48644874 -24.5078125 30.69140625 C-30.76879853 31.46666941 -34.91182388 35.2803913 -38.7109375 40.10546875 Z " fill="#F4F4F4" transform="translate(1241,866)"/>
<path d="M0 0 C7.64044951 5.37178361 12.52966462 13.45064024 14.2890625 22.609375 C15.1444802 34.40292063 14.01145244 45.12186736 6.2890625 54.609375 C-0.00613078 60.99899618 -5.55225928 63.73496697 -14.5234375 64.171875 C-21.54724144 64.01496023 -26.40978326 62.21824971 -31.7109375 57.609375 C-33.3609375 55.629375 -35.0109375 53.649375 -36.7109375 51.609375 C-37.0409375 63.489375 -37.3709375 75.369375 -37.7109375 87.609375 C-40.0209375 87.609375 -42.3309375 87.609375 -44.7109375 87.609375 C-44.7109375 57.909375 -44.7109375 28.209375 -44.7109375 -2.390625 C-42.4009375 -2.390625 -40.0909375 -2.390625 -37.7109375 -2.390625 C-37.3809375 1.239375 -37.0509375 4.869375 -36.7109375 8.609375 C-36.0715625 7.7225 -35.4321875 6.835625 -34.7734375 5.921875 C-26.19731835 -4.41847438 -11.43721341 -6.46293329 0 0 Z M-33.45703125 13.74609375 C-38.21014727 20.80913532 -38.62274839 28.25277846 -37.7109375 36.609375 C-35.68554456 44.27470829 -32.39814353 50.09821989 -25.6484375 54.421875 C-19.682347 57.52267204 -13.90592333 57.7087506 -7.4453125 56.015625 C-1.60950205 53.61002375 1.49121797 49.11596072 4.2890625 43.609375 C7.59495755 35.3899236 7.69470282 25.49201874 4.7890625 17.109375 C1.91671283 10.95434 -3.41214232 6.15494072 -9.7109375 3.609375 C-20.14919523 2.0695699 -27.06132256 5.60768514 -33.45703125 13.74609375 Z " fill="#F8F8F8" transform="translate(1612.7109375,893.390625)"/>
<path d="M0 0 C4.95 0 9.9 0 15 0 C15.04525468 9.527503 15.0819184 19.05493415 15.10362434 28.58252048 C15.11404414 33.00695871 15.1281703 37.43131932 15.15087891 41.85571289 C15.17267174 46.12861324 15.18458219 50.40143913 15.18975449 54.67439079 C15.1934387 56.30140288 15.20063299 57.92841108 15.21146011 59.55539131 C15.22606079 61.84113372 15.22797439 64.12657169 15.22705078 66.41235352 C15.231492 67.71141129 15.23593323 69.01046906 15.24050903 70.34889221 C14.83191213 76.55170014 13.58009183 81.65478468 9 86 C2.39981325 89.96489865 -3.49843954 90.52371687 -11.0625 90.25 C-12.02349609 90.23195313 -12.98449219 90.21390625 -13.97460938 90.1953125 C-16.3168473 90.1487008 -18.65856338 90.07697874 -21 90 C-21 85.38 -21 80.76 -21 76 C-19.89140625 75.96261719 -18.7828125 75.92523437 -17.640625 75.88671875 C-16.17705026 75.82104552 -14.71351009 75.75459865 -13.25 75.6875 C-12.52039063 75.66494141 -11.79078125 75.64238281 -11.0390625 75.61914062 C-6.7375789 75.40406644 -3.99372018 75.17999236 -1 72 C-0.37836238 68.79492895 -0.37836238 68.79492895 -0.45410156 65.05004883 C-0.44376389 64.34735367 -0.43342621 63.64465851 -0.42277527 62.92066956 C-0.39328952 60.59922448 -0.39184698 58.27864906 -0.390625 55.95703125 C-0.37564713 54.34704418 -0.3589208 52.7370725 -0.34051514 51.12712097 C-0.29678472 46.89058741 -0.27683012 42.6542611 -0.26177979 38.4175415 C-0.24222904 34.09399124 -0.20025685 29.77066549 -0.16015625 25.44726562 C-0.08479235 16.96487491 -0.03661075 8.4826466 0 0 Z " fill="#FAFAFA" transform="translate(656,947)"/>
<path d="M0 0 C7.79876966 4.45940286 13.19559705 9.6185262 16.671875 18.01953125 C19.17871181 27.64006726 19.19503751 38.25832812 14.875 47.3125 C12.5455585 51.23864787 10.1160287 54.52178414 6.5625 57.4375 C5.4178125 58.489375 5.4178125 58.489375 4.25 59.5625 C-3.723572 65.12545721 -11.9332444 65.47341357 -21.4375 64.4375 C-30.15516351 62.01527672 -36.17347164 55.81132061 -40.78515625 48.21875 C-45.22074318 39.69733569 -45.93971227 29.86696852 -43.75390625 20.51171875 C-39.80358458 9.97206385 -33.17455773 3.14005238 -23.0703125 -1.6953125 C-15.38590382 -4.22637886 -7.23529622 -3.41717391 0 0 Z M-31.9609375 14.390625 C-37.34708054 21.85713017 -37.54372086 29.38660207 -36.4375 38.4375 C-33.93993578 46.4699593 -29.90744912 52.4078686 -22.4375 56.4375 C-16.30970578 58.48009807 -9.63191848 58.26144979 -3.625 55.875 C2.57282326 52.715108 6.90882531 47.5963181 9.09375 40.9375 C10.87871684 31.41767686 10.66140105 21.79605163 5.34375 13.546875 C1.1398893 7.98843697 -4.07776567 5.09314997 -10.95703125 4.05859375 C-20.27646245 3.61481131 -26.23285271 7.2239801 -31.9609375 14.390625 Z " fill="#F4F4F4" transform="translate(1535.4375,892.5625)"/>
<path d="M0 0 C5.47102347 3.19298639 10.72630515 7.40956112 13.2890625 13.3359375 C13.2890625 14.6559375 13.2890625 15.9759375 13.2890625 17.3359375 C10.6490625 17.3359375 8.0090625 17.3359375 5.2890625 17.3359375 C4.7734375 16.2634375 4.2578125 15.1909375 3.7265625 14.0859375 C1.07647981 9.42707327 -2.47502744 7.29885001 -7.640625 5.76171875 C-13.87958381 4.47861213 -19.22400518 4.63081073 -24.9609375 7.5859375 C-30.85336469 11.57308461 -33.71525902 16.58311846 -35.7109375 23.3359375 C-37.27622317 33.46740983 -35.76368294 41.97046181 -29.7109375 50.3359375 C-25.21948659 54.74210769 -20.68597278 56.4816073 -14.4609375 56.5859375 C-7.88453534 56.50785357 -4.0142392 55.28094783 1.1015625 50.9609375 C3.20204249 48.44036151 4.31216077 46.44426117 5.2890625 43.3359375 C8.2590625 43.3359375 11.2290625 43.3359375 14.2890625 43.3359375 C11.75938476 51.81035792 9.12428789 56.74011634 1.33984375 61.265625 C-6.37509864 65.29209017 -16.25905157 65.99071046 -24.59375 63.4609375 C-34.25175237 58.97159083 -39.75675817 52.09066916 -43.7109375 42.3359375 C-46.45536049 34.03274693 -45.66508869 23.37571618 -41.98046875 15.55078125 C-33.02637507 -0.07066834 -17.42758296 -8.00419934 0 0 Z " fill="#F5F5F5" transform="translate(1411.7109375,1055.6640625)"/>
<path d="M0 0 C0.66 0.66 1.32 1.32 2 2 C1.61315194 4.41602277 1.11906369 6.63291096 0.48046875 8.984375 C0.21342888 10.02419525 0.21342888 10.02419525 -0.05900574 11.08502197 C-0.63251788 13.30970351 -1.22190347 15.52979896 -1.8125 17.75 C-2.38922134 19.95662792 -2.96262246 22.16407756 -3.53385925 24.37213135 C-3.89057379 25.74664158 -4.25098749 27.12019889 -4.61567688 28.49261475 C-5.61854816 32.30883179 -6.41380941 36.09808651 -7 40 C-4.60280568 40.67958603 -4.60280568 40.67958603 -2 41 C-1.34 40.34 -0.68 39.68 0 39 C0.22816406 39.87938232 0.45632813 40.75876465 0.69140625 41.66479492 C2.2042121 45.52047415 3.99426488 47.46781563 6.9375 50.36328125 C7.41823975 50.84073288 7.89897949 51.31818451 8.39428711 51.81010437 C9.40503138 52.81048241 10.42050636 53.80610118 11.44042969 54.79711914 C13.0041295 56.3165125 14.55387241 57.84908263 16.1015625 59.38476562 C20.64200869 64.24144953 20.64200869 64.24144953 26 68 C26 68.66 26 69.32 26 70 C26.58698669 70.26134232 27.17397339 70.52268463 27.77874756 70.79194641 C30.13180327 72.07168272 31.66208484 73.42711638 33.54003906 75.32885742 C34.21464172 76.00683884 34.88924438 76.68482025 35.58428955 77.38334656 C36.30413025 78.11664688 37.02397095 78.8499472 37.765625 79.60546875 C38.51785339 80.36289871 39.27008179 81.12032867 40.04510498 81.90071106 C42.45153225 84.32494306 44.85119238 86.75572983 47.25 89.1875 C49.63533204 91.60059092 52.02215052 94.01216121 54.41204834 96.42073059 C55.89752375 97.91830564 57.38032038 99.41854445 58.85992432 100.92192078 C62.86122514 104.96124798 66.9585118 108.79698002 71.29754639 112.47261047 C73.48976226 114.43939978 75.27059002 116.62206128 77 119 C74.03 119.99 71.06 120.98 68 122 C67.360625 121.360625 66.72125 120.72125 66.0625 120.0625 C65.60746094 119.60875 65.15242188 119.155 64.68359375 118.6875 C63.42071997 117.42169612 62.16390639 116.14984126 60.91015625 114.875 C56.97644997 110.89422373 53.03646534 107.02983528 48.703125 103.484375 C46.35327794 101.43634316 44.18711991 99.21815756 42 97 C39.06562349 94.03855495 36.12693362 91.08142456 33.1875 88.125 C32.41857422 87.34769531 31.64964844 86.57039063 30.85742188 85.76953125 C26.53776396 81.43164693 22.15083565 77.30276584 17.42700195 73.40576172 C16.72063599 72.70990967 16.72063599 72.70990967 16 72 C16 71.34 16 70.68 16 70 C15.34 70 14.68 70 14 70 C14 69.34 14 68.68 14 68 C13.42854248 67.74726318 12.85708496 67.49452637 12.26831055 67.23413086 C7.83087044 64.81983102 4.42314858 61.04835005 0.8125 57.5625 C-0.43563477 56.42651367 -0.43563477 56.42651367 -1.70898438 55.26757812 C-5.51038543 51.57770962 -8.47918869 48.45157055 -9.328125 43.1015625 C-9.43872342 34.52228509 -6.71854077 26.04487066 -4.5625 17.8125 C-4.12272955 16.0804885 -3.68456483 14.34806846 -3.24804688 12.61523438 C-2.18382492 8.40521622 -1.09800557 4.20132779 0 0 Z " fill="#3255CB" transform="translate(327,983)"/>
<path d="M0 0 C2.97 0 5.94 0 9 0 C14.94 17.16 20.88 34.32 27 52 C34.89866509 29.96278599 34.89866509 29.96278599 42.57421875 7.84741211 C42.88101562 6.95546143 43.1878125 6.06351074 43.50390625 5.14453125 C43.77017822 4.36440674 44.0364502 3.58428223 44.31079102 2.78051758 C45 1 45 1 46 0 C48.67058851 -0.14115161 51.32432238 -0.04247107 54 0 C53.37325008 3.53307587 52.45203803 6.74965865 51.18994141 10.10644531 C50.81930573 11.09807678 50.44867004 12.08970825 50.06680298 13.11138916 C49.66577362 14.17291199 49.26474426 15.23443481 48.8515625 16.328125 C48.43836761 17.43170349 48.02517273 18.53528198 47.59945679 19.67230225 C46.27822277 23.19955828 44.95191278 26.72487675 43.625 30.25 C42.30598112 33.76111642 40.9880766 37.27264325 39.67196655 40.78485107 C38.85353986 42.96820913 38.03334136 45.15090411 37.21109009 47.33282471 C35.01424893 53.18562885 32.93590287 59.05561215 31 65 C28.69 65 26.38 65 24 65 C20.66690609 57.15182099 17.53814985 49.2573555 14.609375 41.25 C14.0242514 39.65828979 14.0242514 39.65828979 13.42730713 38.03442383 C12.61270865 35.81654469 11.79938563 33.5981967 10.98730469 31.37939453 C9.74248645 27.97947857 8.4926144 24.58145042 7.2421875 21.18359375 C6.44761796 19.01833876 5.65333666 16.85297796 4.859375 14.6875 C4.48649353 13.67397461 4.11361206 12.66044922 3.72943115 11.61621094 C3.38527161 10.67422852 3.04111206 9.73224609 2.68652344 8.76171875 C2.38405701 7.93631592 2.08159058 7.11091309 1.7699585 6.26049805 C1.07074 4.20768344 0.52596993 2.10387974 0 0 Z " fill="#F3F3F3" transform="translate(1329,891)"/>
<path d="M0 0 C2.31 0 4.62 0 7 0 C7 8.25 7 16.5 7 25 C12.28 25 17.56 25 23 25 C23 27.31 23 29.62 23 32 C17.72 32 12.44 32 7 32 C7.06882851 38.47824609 7.15677274 44.95584378 7.26245117 51.43359375 C7.29570788 53.63729667 7.32373746 55.84108491 7.34643555 58.04492188 C7.37996738 61.21260955 7.43228336 64.37951469 7.48828125 67.546875 C7.49467117 68.53242371 7.5010611 69.51797241 7.50764465 70.53338623 C7.52743881 71.4540387 7.54723297 72.37469116 7.56762695 73.32324219 C7.57873001 74.1315448 7.58983307 74.93984741 7.60127258 75.77264404 C8.09955241 78.55611588 9.07436769 79.95224936 11 82 C13.72489473 82.69749589 13.72489473 82.69749589 16.6875 82.75 C18.17830078 82.83507813 18.17830078 82.83507813 19.69921875 82.921875 C20.45847656 82.94765625 21.21773437 82.9734375 22 83 C22 85.31 22 87.62 22 90 C19.77144426 90.0814222 17.54202345 90.13938079 15.3125 90.1875 C13.45044922 90.23970703 13.45044922 90.23970703 11.55078125 90.29296875 C6.84552239 89.90474607 4.43270687 88.67782058 1.37890625 85.1015625 C-0.74093308 80.33342531 -0.36775042 75.73172232 -0.29296875 70.57421875 C-0.28872391 69.47149124 -0.28447906 68.36876373 -0.28010559 67.23262024 C-0.26333905 63.71732977 -0.22568951 60.20261664 -0.1875 56.6875 C-0.17245059 54.30144058 -0.15876264 51.91537216 -0.14648438 49.52929688 C-0.11344198 43.68597612 -0.06167263 37.84308589 0 32 C-3.63 32 -7.26 32 -11 32 C-11 29.69 -11 27.38 -11 25 C-7.37 25 -3.74 25 0 25 C0 16.75 0 8.5 0 0 Z " fill="#FAFAFA" transform="translate(1445,1029)"/>
<path d="M0 0 C4.18153431 -0.06905286 8.3610734 -0.12872548 12.54272461 -0.16479492 C13.96369141 -0.1798376 15.38461213 -0.20027704 16.80541992 -0.22631836 C18.85346886 -0.26290347 20.9009015 -0.27977097 22.94921875 -0.29296875 C24.79519653 -0.31653442 24.79519653 -0.31653442 26.6784668 -0.34057617 C31.13340548 0.11621467 33.70684063 1.65863074 36.78125 4.84765625 C39.10463695 8.95081717 38.72252271 13.44878219 38 18 C35.20521437 21.91269989 32.49953919 23.53533238 28 25 C24.86206055 25.22705078 24.86206055 25.22705078 21.38671875 25.1953125 C20.13955078 25.18886719 18.89238281 25.18242188 17.60742188 25.17578125 C16.31384766 25.15902344 15.02027344 25.14226563 13.6875 25.125 C12.37458984 25.11597656 11.06167969 25.10695313 9.70898438 25.09765625 C6.47257813 25.07411875 3.23626581 25.03824871 0 25 C0 16.75 0 8.5 0 0 Z " fill="#000000" transform="translate(864,998)"/>
<path d="M0 0 C5.0562915 2.81138199 9.57686351 6.66632736 11.8828125 12.046875 C12.3778125 16.006875 12.3778125 16.006875 12.8828125 20.046875 C-2.2971875 20.046875 -17.4771875 20.046875 -33.1171875 20.046875 C-31.15766189 11.22900975 -29.35496063 5.75707058 -21.9296875 0.609375 C-15.06839568 -3.20245379 -7.17091178 -3.07739534 0 0 Z " fill="#080808" transform="translate(1269.1171875,1061.953125)"/>
<path d="M0 0 C5.0562915 2.81138199 9.57686351 6.66632736 11.8828125 12.046875 C12.3778125 16.006875 12.3778125 16.006875 12.8828125 20.046875 C-2.2971875 20.046875 -17.4771875 20.046875 -33.1171875 20.046875 C-31.15766189 11.22900975 -29.35496063 5.75707058 -21.9296875 0.609375 C-15.06839568 -3.20245379 -7.17091178 -3.07739534 0 0 Z " fill="#080808" transform="translate(1679.1171875,898.953125)"/>
<path d="M0 0 C5.28574925 3.10082576 9.25721682 7.82599231 12.125 13.1875 C12.6875 15.5 12.6875 15.5 12.6875 20.5 C-2.1625 20.5 -17.0125 20.5 -32.3125 20.5 C-31.25559836 12.04478688 -29.81183984 7.32354966 -23.3359375 1.8203125 C-16.31626677 -2.69780284 -7.69934839 -3.32743157 0 0 Z " fill="#070707" transform="translate(1431.3125,898.5)"/>
<path d="M0 0 C5.28574925 3.10082576 9.25721682 7.82599231 12.125 13.1875 C12.6875 15.5 12.6875 15.5 12.6875 20.5 C-2.1625 20.5 -17.0125 20.5 -32.3125 20.5 C-31.25559836 12.04478688 -29.81183984 7.32354966 -23.3359375 1.8203125 C-16.31626677 -2.69780284 -7.69934839 -3.32743157 0 0 Z " fill="#070707" transform="translate(1301.3125,898.5)"/>
<path d="M0 0 C4.04207139 -0.08108167 8.08250908 -0.14054629 12.125 -0.1875 C13.26710938 -0.21263672 14.40921875 -0.23777344 15.5859375 -0.26367188 C26.2348398 -0.35654021 26.2348398 -0.35654021 31 3 C33.40777323 5.88932788 33.96115399 7.69478136 34.4375 11.4375 C33.91233829 15.71381679 32.76012209 17.71769265 30 21 C26.23626079 23.73899277 23.66741403 24.36411406 19.04296875 24.29296875 C17.93115234 24.28330078 16.81933594 24.27363281 15.67382812 24.26367188 C14.52333984 24.23853516 13.37285156 24.21339844 12.1875 24.1875 C10.43276367 24.16719727 10.43276367 24.16719727 8.64257812 24.14648438 C5.76152096 24.11120612 2.8807013 24.05740143 0 24 C0 16.08 0 8.16 0 0 Z " fill="#020202" transform="translate(864,961)"/>
<path d="M0 0 C-0.30098443 8.05133339 -1.04076058 15.61756397 -6.64453125 21.8203125 C-11.48827613 26.18918043 -15.88165821 28.2871817 -22.5 28.25 C-23.4178125 28.25515625 -24.335625 28.2603125 -25.28125 28.265625 C-29.45206822 27.85813127 -32.19022052 26.72223575 -35.3125 23.9375 C-37.26079064 20.54603112 -37.58423612 18.21177172 -37.82421875 14.37890625 C-36.40570028 10.2846989 -33.67918161 8.16594833 -30 6 C-25.67883693 4.475873 -21.29828899 3.53458381 -16.8125 2.625 C-15.63751953 2.36589844 -14.46253906 2.10679688 -13.25195312 1.83984375 C-8.72779269 0.86318319 -4.64153713 0 0 0 Z " fill="#020202" transform="translate(1346,1085)"/>
<path d="M0 0 C2.31 0 4.62 0 7 0 C7.00808685 0.98305618 7.01617371 1.96611237 7.02450562 2.97895813 C7.10192527 12.23459445 7.18965389 21.49008301 7.28752708 30.74552631 C7.33751432 35.50406785 7.38384411 40.26258693 7.421875 45.02124023 C7.45869719 49.61193883 7.5050487 54.20245057 7.55806351 58.79298973 C7.57662379 60.54607052 7.59172569 62.29919138 7.60334396 64.05233192 C7.62017856 66.5042403 7.6492064 68.95571923 7.68115234 71.4074707 C7.68331253 72.13539322 7.68547272 72.86331573 7.68769836 73.61329651 C7.74902401 77.28752448 7.90529608 78.85794412 10 82 C12.19454681 82.57993699 12.19454681 82.57993699 14.625 82.6875 C15.44226562 82.75324219 16.25953125 82.81898438 17.1015625 82.88671875 C17.72804688 82.92410156 18.35453125 82.96148438 19 83 C19 85.31 19 87.62 19 90 C7.17488474 90.86105208 7.17488474 90.86105208 3.3125 87.625 C-0.35271708 83.46448332 -0.13845038 80.4845088 -0.11352539 75.15380859 C-0.11367142 74.34397018 -0.11381744 73.53413177 -0.1139679 72.69975281 C-0.11326977 70.01595404 -0.10548204 67.33222419 -0.09765625 64.6484375 C-0.09579171 62.79041583 -0.09436798 60.93239367 -0.09336853 59.07437134 C-0.08954615 54.17857512 -0.07971823 49.28280845 -0.06866455 44.38702393 C-0.05844444 39.39343669 -0.05386962 34.39984468 -0.04882812 29.40625 C-0.03809573 19.60415366 -0.02102264 9.80207929 0 0 Z " fill="#FDFDFD" transform="translate(1466,866)"/>
<path d="M0 0 C0 2.64 0 5.28 0 8 C-0.56847656 8.02578125 -1.13695312 8.0515625 -1.72265625 8.078125 C-7.18506257 8.47937021 -11.83949453 9.2177223 -16 13 C-20.76317904 19.92036347 -21.1560462 27.09055093 -21.31640625 35.23828125 C-21.33718735 36.11904831 -21.35796844 36.99981537 -21.37937927 37.90727234 C-21.44453937 40.70893879 -21.50360321 43.51069557 -21.5625 46.3125 C-21.60571715 48.21680606 -21.64933244 50.12110312 -21.69335938 52.02539062 C-21.80018623 56.68350218 -21.9015474 61.34170422 -22 66 C-24.31 66 -26.62 66 -29 66 C-29 44.55 -29 23.1 -29 1 C-26.69 1 -24.38 1 -22 1 C-21.67 3.64 -21.34 6.28 -21 9 C-20.48050781 8.51789063 -19.96101563 8.03578125 -19.42578125 7.5390625 C-12.81906427 1.55515988 -8.89131485 -0.3014005 0 0 Z " fill="#FBFBFB" transform="translate(1222,1053)"/>
<path d="M0 0 C0 2.64 0 5.28 0 8 C-0.56847656 8.02578125 -1.13695312 8.0515625 -1.72265625 8.078125 C-7.18506257 8.47937021 -11.83949453 9.2177223 -16 13 C-20.76317904 19.92036347 -21.1560462 27.09055093 -21.31640625 35.23828125 C-21.33718735 36.11904831 -21.35796844 36.99981537 -21.37937927 37.90727234 C-21.44453937 40.70893879 -21.50360321 43.51069557 -21.5625 46.3125 C-21.60571715 48.21680606 -21.64933244 50.12110312 -21.69335938 52.02539062 C-21.80018623 56.68350218 -21.9015474 61.34170422 -22 66 C-24.31 66 -26.62 66 -29 66 C-29 44.55 -29 23.1 -29 1 C-26.69 1 -24.38 1 -22 1 C-21.67 3.64 -21.34 6.28 -21 9 C-20.48050781 8.51789062 -19.96101563 8.03578125 -19.42578125 7.5390625 C-12.81906427 1.55515988 -8.89131485 -0.3014005 0 0 Z " fill="#FBFBFB" transform="translate(1743,890)"/>
<path d="M0 0 C0.33 0 0.66 0 1 0 C1.2803059 7.42810644 0.48951001 14.65916451 -1.93408203 21.72216797 C-3.05745218 25.1766727 -3.88643251 28.61306685 -4.6875 32.15625 C-6.45442864 39.83024678 -8.36272841 47.46430236 -10.3125 55.09375 C-10.61027344 56.25938477 -10.90804688 57.42501953 -11.21484375 58.62597656 C-12.45353713 63.46874058 -13.69510107 68.310767 -14.93652344 73.15283203 C-16.43902343 79.0169965 -17.93475863 84.8826191 -19.41210938 90.75317383 C-20.37279986 94.56756351 -21.36737708 98.36784458 -22.41601562 102.15893555 C-24.52603069 109.97717259 -25.77737055 116.09440088 -22.5 123.8125 C-22.20681885 124.60092285 -21.9136377 125.3893457 -21.61157227 126.20166016 C-21.03096239 127.76154089 -20.43465546 129.31569305 -19.82080078 130.86279297 C-18.35480696 134.67995833 -17.30142074 138.63296205 -16.15234375 142.5546875 C-14.63792222 145.76834132 -12.60032139 147.5812653 -10 150 C-8.90814222 151.0943701 -7.82113857 152.19359836 -6.73828125 153.296875 C-5.59638556 154.44794781 -4.45445805 155.59898906 -3.3125 156.75 C-2.73177734 157.33910156 -2.15105469 157.92820312 -1.55273438 158.53515625 C1.43155316 161.64906764 1.43155316 161.64906764 5 164 C5 164.66 5 165.32 5 166 C5.66 166 6.32 166 7 166 C7 166.66 7 167.32 7 168 C7.928125 168.37125 7.928125 168.37125 8.875 168.75 C11.40358627 170.23740369 11.71839004 171.43678009 13 174 C14.33193205 174.66946191 15.66545068 175.33577087 17 176 C18.64746094 177.42041016 18.64746094 177.42041016 20.234375 179.0390625 C20.80800781 179.61914062 21.38164062 180.19921875 21.97265625 180.796875 C22.55917969 181.40015625 23.14570313 182.0034375 23.75 182.625 C24.35199219 183.23601562 24.95398438 183.84703125 25.57421875 184.4765625 C27.05405305 185.97988624 28.52764676 187.48934856 30 189 C29.67 189.99 29.34 190.98 29 192 C20.11064393 184.56196737 12.12755086 176.18980464 3.98144531 167.9609375 C2.01058524 165.97183761 0.03717812 163.98530912 -1.9375 162 C-2.56480515 161.36747818 -3.19211029 160.73495636 -3.83842468 160.08326721 C-7.03557772 156.88131128 -10.27204829 153.84299321 -13.76953125 150.96484375 C-17.02933723 148.19475734 -18.42498541 145.7193168 -19.6875 141.5625 C-20.06648438 140.35207031 -20.44546875 139.14164063 -20.8359375 137.89453125 C-21.0225293 137.26111816 -21.20912109 136.62770508 -21.40136719 135.97509766 C-22.02247519 133.92584654 -22.7097056 131.90876634 -23.4140625 129.88671875 C-27.06569417 119.11056615 -28.10951219 110.55714264 -25.03125 99.46484375 C-24.56856457 97.70698578 -24.10636201 95.94900067 -23.64453125 94.19091797 C-23.38430176 93.21644714 -23.12407227 92.24197632 -22.85595703 91.23797607 C-21.36260266 85.58880731 -19.94064341 79.92136471 -18.50756836 74.25667191 C-17.59527623 70.65407777 -16.67834797 67.05266446 -15.76171875 63.45117188 C-15.57612396 62.72160593 -15.39052917 61.99203999 -15.1993103 61.24036598 C-14.2555154 57.53041794 -13.31108063 53.82063405 -12.36572266 50.11108398 C-8.11695085 33.43676295 -3.90255786 16.7596642 0 0 Z " fill="#5956CF" transform="translate(300,911)"/>
<path d="M0 0 C0.33 0 0.66 0 1 0 C1.29790206 6.52866377 0.23654683 12.03402558 -1.44921875 18.32421875 C-1.70371292 19.30630814 -1.95820709 20.28839752 -2.22041321 21.30024719 C-3.03369534 24.43178384 -3.86001277 27.55969017 -4.6875 30.6875 C-5.75747078 34.77381246 -6.82240373 38.86143 -7.88671875 42.94921875 C-8.1524469 43.96706955 -8.41817505 44.98492035 -8.69195557 46.03361511 C-11.0381181 55.05696056 -13.20300734 64.11783989 -15.33816528 73.19296265 C-17.36381136 81.78432854 -19.4288067 90.36526625 -21.546875 98.93432617 C-22.10414162 101.20758628 -22.65249049 103.48304906 -23.19238281 105.76049805 C-23.98875962 109.11314902 -24.81542256 112.45707105 -25.6484375 115.80078125 C-25.88098236 116.80917557 -26.11352722 117.81756989 -26.3531189 118.85652161 C-28.13023842 125.80641885 -30.90407496 130.00494724 -36 135 C-36.69456299 135.76344727 -37.38912598 136.52689453 -38.10473633 137.31347656 C-39.99090026 139.30867809 -41.89837745 141.28161591 -43.8125 143.25 C-44.78413086 144.29027344 -44.78413086 144.29027344 -45.77539062 145.3515625 C-53.83366573 153.59136584 -63.89866457 155.71922648 -74.75 158.6875 C-75.84699219 158.99494141 -76.94398438 159.30238281 -78.07421875 159.61914062 C-83.04124679 160.99485688 -87.90051726 162.21492079 -93 163 C-92.67 162.01 -92.34 161.02 -92 160 C-89.44549613 159.05197612 -87.01394104 158.30595547 -84.38671875 157.625 C-83.23777885 157.30909912 -83.23777885 157.30909912 -82.06562805 156.98681641 C-79.6093284 156.31256441 -77.14901591 155.65493177 -74.6875 155 C-72.23710286 154.34380255 -69.7879741 153.68389212 -67.34150696 153.01318359 C-65.81799996 152.59585932 -64.29215162 152.18696701 -62.76383972 151.78759766 C-58.89357645 150.73122003 -56.08111819 149.56381637 -53 147 C-52.34 147 -51.68 147 -51 147 C-50.60748047 146.09894531 -50.60748047 146.09894531 -50.20703125 145.1796875 C-48.92577201 142.86595723 -47.75192918 141.7454167 -45.6875 140.125 C-43.22532346 138.11422249 -41.16213193 136.11679743 -39.1875 133.625 C-38.465625 132.75875 -37.74375 131.8925 -37 131 C-36.34 131 -35.68 131 -35 131 C-34.71125 130.401875 -34.4225 129.80375 -34.125 129.1875 C-33 127 -33 127 -31 124 C-30.39634958 122.00451834 -29.86207089 119.98772068 -29.36767578 117.96240234 C-29.06040558 116.71615082 -28.75313538 115.46989929 -28.43655396 114.18588257 C-28.10599718 112.81926878 -27.77558731 111.45261946 -27.4453125 110.0859375 C-27.0995267 108.67351304 -26.75323524 107.26121229 -26.40646362 105.84902954 C-25.4919347 102.11842997 -24.58469451 98.38609353 -23.67883301 94.65338135 C-22.77102892 90.91881899 -21.85575739 87.18608862 -20.94140625 83.453125 C-18.12994007 71.962415 -15.32291486 60.47091049 -12.640625 48.94921875 C-11.42356802 43.73440728 -10.11272977 38.58124655 -8.625 33.4375 C-5.47095472 22.36363315 -2.74873112 11.17997629 0 0 Z " fill="#575BCE" transform="translate(587,968)"/>
<path d="M0 0 C3.98085008 2.23723775 6.84693814 5.26540285 8.75 9.4375 C8.75 10.7575 8.75 12.0775 8.75 13.4375 C-2.8 13.4375 -14.35 13.4375 -26.25 13.4375 C-25.03061224 6.12117347 -25.03061224 6.12117347 -21.25 2.4375 C-14.54318793 -2.22085137 -7.5682525 -3.2862149 0 0 Z " fill="#070707" transform="translate(812.25,982.5625)"/>
<path d="M0 0 C5.84759599 4.13074423 10.93069604 8.67104542 15.9375 13.77734375 C16.66187256 14.50691788 17.38624512 15.236492 18.13256836 15.98817444 C20.42658583 18.29984936 22.71375221 20.6181427 25 22.9375 C27.28710427 25.25240734 29.5757317 27.56575577 31.86743164 29.87611389 C33.28615448 31.30689808 34.70220012 32.74034409 36.11499023 34.17698669 C39.94160467 38.04179778 43.88378123 41.67894014 48.00170898 45.23002625 C51.47780871 48.30895981 54.72999814 51.60754202 58 54.90234375 C58.7211499 55.6249086 59.4422998 56.34747345 60.18530273 57.0919342 C62.45925415 59.37142604 64.72967954 61.6543924 67 63.9375 C68.55315235 65.49567506 70.10653567 67.05361993 71.66015625 68.61132812 C75.44277586 72.40489759 79.2225169 76.20131615 83 80 C82.505 81.485 82.505 81.485 82 83 C80.2925002 81.71937515 78.62626404 80.38232443 77 79 C77 78.34 77 77.68 77 77 C76.4225 76.773125 75.845 76.54625 75.25 76.3125 C72.40469122 74.65273655 71.06346666 72.57933333 69 70 C67.87277794 68.97906687 66.72422202 67.9814968 65.5625 67 C61.55752341 63.56499162 57.76173414 59.94681496 54 56.25 C53.41162354 55.6828125 52.82324707 55.115625 52.21704102 54.53125 C50.75190389 53.07843586 49.36872289 51.54398619 48 50 C48 49.01 48 48.02 48 47 C47.360625 46.896875 46.72125 46.79375 46.0625 46.6875 C45.381875 46.460625 44.70125 46.23375 44 46 C43.67 45.01 43.34 44.02 43 43 C40.49552484 41.78130071 40.49552484 41.78130071 38 41 C38 40.34 38 39.68 38 39 C37.43796875 38.7628125 36.8759375 38.525625 36.296875 38.28125 C33.48105958 36.71052303 31.52044584 34.78528536 29.25 32.5 C28.45078125 31.7059375 27.6515625 30.911875 26.828125 30.09375 C25 28 25 28 25 26 C24.4225 25.7525 23.845 25.505 23.25 25.25 C20.67060021 23.81700012 18.93878408 22.21575324 17 20 C17 19.34 17 18.68 17 18 C16.42121094 17.73703125 15.84242188 17.4740625 15.24609375 17.203125 C9.18040868 13.95402761 4.01774948 8.52440554 0 3 C0 2.01 0 1.02 0 0 Z " fill="#3A83CE" transform="translate(488,848)"/>
<path d="M0 0 C-2.23093267 2.54309593 -3.96181816 3.53696473 -7.20703125 4.4375 C-8.08472168 4.68709473 -8.96241211 4.93668945 -9.86669922 5.19384766 C-10.83881348 5.45987793 -11.81092773 5.7259082 -12.8125 6 C-14.97800122 6.61149549 -17.14335534 7.22351207 -19.30859375 7.8359375 C-20.51757324 8.17463867 -21.72655273 8.51333984 -22.97216797 8.86230469 C-27.45906992 10.12437264 -31.9347649 11.42436084 -36.41015625 12.7265625 C-37.2296022 12.96485779 -38.04904816 13.20315308 -38.89332581 13.44866943 C-40.56191002 13.93397131 -42.23047382 14.41934338 -43.89901733 14.90478516 C-58.98143172 19.29196398 -74.08110325 23.6076267 -89.25 27.6875 C-91.93261029 28.41429548 -94.54890791 29.1829693 -97.1875 30.0625 C-100.75217009 31.25072336 -104.34759939 32.11838606 -108 33 C-108 32.01 -108 31.02 -108 30 C-96.77787135 26.4148382 -85.49328408 23.09884348 -74.15710449 19.894104 C-61.82358197 16.4061845 -49.49465027 12.91550826 -37.25 9.125 C-29.82003993 6.83166563 -22.3679512 4.64168945 -14.875 2.5625 C-13.95493164 2.30291504 -13.03486328 2.04333008 -12.08691406 1.77587891 C-11.2306543 1.54175293 -10.37439453 1.30762695 -9.4921875 1.06640625 C-8.74308105 0.85959229 -7.99397461 0.65277832 -7.22216797 0.43969727 C-4.76798215 -0.04590905 -2.49557456 -0.0749496 0 0 Z " fill="#417ED2" transform="translate(450,839)"/>
<path d="M0 0 C-1 2 -1 2 -3.93530273 3.04638672 C-5.2657345 3.43228591 -6.59875673 3.8093134 -7.93359375 4.1796875 C-8.66237732 4.38874725 -9.39116089 4.59780701 -10.14202881 4.8132019 C-12.57172854 5.50817943 -15.00447089 6.19177736 -17.4375 6.875 C-19.12884424 7.35515317 -20.8200037 7.83595766 -22.51098633 8.31738281 C-25.18299146 9.07761936 -27.85526642 9.83682475 -30.52848816 10.59277344 C-37.28438121 12.50417334 -44.0266052 14.45972394 -50.765625 16.4296875 C-53.6372761 17.26510159 -56.5092384 18.09943412 -59.38137817 18.9331665 C-61.25135767 19.4774985 -63.12056377 20.0244945 -64.98898315 20.57415771 C-67.60889264 21.34391696 -70.23170686 22.10286882 -72.85546875 22.859375 C-73.63815125 23.09212128 -74.42083374 23.32486755 -75.22723389 23.56466675 C-80.657999 25.11400033 -80.657999 25.11400033 -84 24 C-83 22 -83 22 -80.3581543 21.04199219 C-79.19195557 20.71360352 -78.02575684 20.38521484 -76.82421875 20.046875 C-76.1921048 19.86630051 -75.55999084 19.68572601 -74.90872192 19.49967957 C-72.83692663 18.90934254 -70.76226618 18.32980003 -68.6875 17.75 C-67.2525922 17.34277962 -65.81794119 16.93465334 -64.38354492 16.52563477 C-62.23616276 15.91335578 -60.08866263 15.30155364 -57.94032288 14.69264221 C-52.54699409 13.16336475 -47.17535755 11.57047487 -41.8125 9.9375 C-38.54311099 8.95348181 -35.2717105 7.97626873 -32 7 C-30.84677246 6.65485352 -29.69354492 6.30970703 -28.50537109 5.95410156 C-25.30999895 5.0022537 -22.11253306 4.05876843 -18.91220093 3.12380981 C-17.03557928 2.57294399 -15.16191651 2.01203009 -13.28833008 1.45092773 C-12.14130615 1.11778564 -10.99428223 0.78464355 -9.8125 0.44140625 C-8.78769531 0.13920166 -7.76289063 -0.16300293 -6.70703125 -0.47436523 C-4.00854447 -0.99834089 -2.55409179 -0.92082933 0 0 Z " fill="#3E84D3" transform="translate(495,1130)"/>
<path d="M0 0 C0.33 0 0.66 0 1 0 C1.28024303 7.42644023 0.49063343 14.65719435 -1.93310547 21.71850586 C-3.06274901 25.19299987 -3.89651896 28.65142847 -4.703125 32.21484375 C-7.50591215 44.3836368 -10.65172591 56.46637092 -13.75 68.5625 C-14.35822021 70.94201965 -14.96629416 73.32157668 -15.57421875 75.70117188 C-17.04779587 81.46787939 -18.52316799 87.23412524 -20 93 C-20.33 93 -20.66 93 -21 93 C-21.20685727 87.06715752 -20.54204772 82.02289739 -19.07226562 76.2890625 C-18.86744064 75.45884079 -18.66261566 74.62861908 -18.45158386 73.77323914 C-17.77862252 71.05488016 -17.09256136 68.34001617 -16.40625 65.625 C-15.93460989 63.73091562 -15.46379693 61.83662511 -14.99377441 59.94213867 C-13.75915732 54.97530985 -12.51337402 50.01134869 -11.26519775 45.0479126 C-9.99162121 39.97504096 -8.7286896 34.89952167 -7.46484375 29.82421875 C-4.98693887 19.88020126 -2.49722247 9.9391825 0 0 Z " fill="#535ED1" transform="translate(300,911)"/>
<path d="M0 0 C3.93748458 -0.02898816 7.87494179 -0.04679464 11.8125 -0.0625 C12.93205078 -0.07087891 14.05160156 -0.07925781 15.20507812 -0.08789062 C16.81479492 -0.09272461 16.81479492 -0.09272461 18.45703125 -0.09765625 C19.9416687 -0.10551147 19.9416687 -0.10551147 21.45629883 -0.11352539 C24 0 24 0 27 1 C27 1.66 27 2.32 27 3 C27.92619141 3.07347656 27.92619141 3.07347656 28.87109375 3.1484375 C37.01981963 3.86780752 44.44105115 5.26909103 52.05078125 8.2890625 C54.54990907 9.20056804 57.11553359 9.72780379 59.703125 10.328125 C64.62726206 11.76851883 69.30455486 13.94965562 74 16 C74 16.66 74 17.32 74 18 C72.53984709 17.71758359 71.08190207 17.42373386 69.625 17.125 C68.81289063 16.96257813 68.00078125 16.80015625 67.1640625 16.6328125 C65 16 65 16 63 14 C60.82037649 13.23460327 60.82037649 13.23460327 58.25 12.625 C53.84077562 11.49103498 49.48460995 10.2492842 45.125 8.9375 C34.39912581 5.88132842 24.1402866 4.63869341 13 5 C13 4.34 13 3.68 13 3 C8.71 2.34 4.42 1.68 0 1 C0 0.67 0 0.34 0 0 Z " fill="#1878CD" transform="translate(420,872)"/>
<path d="M0 0 C0.99 0.33 1.98 0.66 3 1 C3 1.66 3 2.32 3 3 C3.639375 3.268125 4.27875 3.53625 4.9375 3.8125 C7 5 7 5 8 8 C9.32245276 8.68799777 10.65786727 9.35123043 12 10 C13.43013413 11.28114389 14.81085895 12.61849473 16.15234375 13.9921875 C17.31733398 15.17361328 17.31733398 15.17361328 18.50585938 16.37890625 C19.30830078 17.20261719 20.11074219 18.02632812 20.9375 18.875 C22.527573 20.4997235 24.11995413 22.12219191 25.71484375 23.7421875 C26.41730225 24.4626123 27.11976074 25.18303711 27.84350586 25.92529297 C30.02580329 28.09918595 30.02580329 28.09918595 32.76782227 30.14111328 C33.50444092 30.7545459 34.24105957 31.36797852 35 32 C35 32.66 35 33.32 35 34 C35.66 34 36.32 34 37 34 C37 34.66 37 35.32 37 36 C37.66 36 38.32 36 39 36 C39 36.66 39 37.32 39 38 C39.66 38 40.32 38 41 38 C42.6875 40.375 42.6875 40.375 44 43 C43.505 43.99 43.505 43.99 43 45 C33.05956699 35.83486539 23.32139464 26.47086037 13.71990967 16.9520874 C12.53063909 15.77470831 11.33877517 14.59994306 10.14434814 13.42779541 C8.45198046 11.76525746 6.76974125 10.09309431 5.08984375 8.41796875 C4.57500931 7.91544083 4.06017487 7.4129129 3.52973938 6.89515686 C0 3.34300135 0 3.34300135 0 0 Z " fill="#457FD7" transform="translate(330,1101)"/>
<path d="M0 0 C6.625 -0.25 6.625 -0.25 10 2 C19.03590053 5.80215917 28.36443932 6.82375604 38.01635742 7.91894531 C46.13245781 8.84679176 54.03240404 10.19962976 62 12 C60 14 60 14 56.18359375 14.046875 C54.60079026 13.9611503 53.01870252 13.86141907 51.4375 13.75 C50.61918701 13.6977124 49.80087402 13.6454248 48.95776367 13.59155273 C39.48874472 12.92065363 30.80252691 10.46580726 21.73828125 7.7109375 C21.01189453 7.49179688 20.28550781 7.27265625 19.53710938 7.046875 C18.04112987 6.5950603 16.54634855 6.13926109 15.05273438 5.6796875 C11.52449957 4.62216128 8.71421576 4 5 4 C4.34 4 3.68 4 3 4 C1.375 2 1.375 2 0 0 Z " fill="#1678CD" transform="translate(379,1108)"/>
<path d="M0 0 C0.67095703 0.58007812 0.67095703 0.58007812 1.35546875 1.171875 C1.96003906 1.69265625 2.56460937 2.2134375 3.1875 2.75 C3.82171875 3.2965625 4.4559375 3.843125 5.109375 4.40625 C6.68220486 5.73210658 8.30440766 6.99912076 9.9375 8.25 C10.618125 8.8275 11.29875 9.405 12 10 C12 10.66 12 11.32 12 12 C12.66 12 13.32 12 14 12 C14 12.66 14 13.32 14 14 C14.61875 14.2475 15.2375 14.495 15.875 14.75 C18.40358627 16.23740369 18.71839004 17.43678009 20 20 C21.33193205 20.66946191 22.66545068 21.33577087 24 22 C25.64746094 23.42041016 25.64746094 23.42041016 27.234375 25.0390625 C27.80800781 25.61914062 28.38164062 26.19921875 28.97265625 26.796875 C29.55917969 27.40015625 30.14570313 28.0034375 30.75 28.625 C31.35199219 29.23601562 31.95398438 29.84703125 32.57421875 30.4765625 C34.05405305 31.97988624 35.52764676 33.48934856 37 35 C36.67 35.99 36.34 36.98 36 38 C28.74787725 31.97559882 22.10420321 25.3239756 15.43359375 18.67382812 C13.48357936 16.73366229 11.52315272 14.80440726 9.5625 12.875 C8.32226324 11.64128154 7.08265623 10.40692958 5.84375 9.171875 C5.25638062 8.59685242 4.66901123 8.02182983 4.06384277 7.42938232 C0 3.34273305 0 3.34273305 0 0 Z " fill="#546CD4" transform="translate(293,1065)"/>
<path d="M0 0 C-3.76478927 2.125373 -7.81266535 3.23045862 -11.94140625 4.41796875 C-12.70549301 4.63947098 -13.46957977 4.86097321 -14.25682068 5.08918762 C-15.86746499 5.55432443 -17.47873258 6.01730772 -19.09057617 6.47827148 C-21.55985126 7.18674004 -24.02499123 7.90850408 -26.49023438 8.63085938 C-28.05705589 9.08154964 -29.6241058 9.53144683 -31.19140625 9.98046875 C-31.92895645 10.19809372 -32.66650665 10.41571869 -33.42640686 10.63993835 C-38.65686772 12.11437743 -38.65686772 12.11437743 -42 11 C-41 9 -41 9 -38.07250977 7.96264648 C-36.7810749 7.59083176 -35.48715843 7.22757167 -34.19140625 6.87109375 C-33.50948715 6.67653091 -32.82756805 6.48196808 -32.12498474 6.2815094 C-29.93952074 5.65939191 -27.75121395 5.04807514 -25.5625 4.4375 C-23.37797899 3.82134074 -21.19410384 3.20297971 -19.01072693 2.58277893 C-17.65040576 2.19710634 -16.28930794 1.81416074 -14.92738342 1.43418884 C-8.89797034 -0.26207391 -6.29232393 -0.91340186 0 0 Z " fill="#2D8FD4" transform="translate(453,1143)"/>
<path d="M0 0 C-0.66 0 -1.32 0 -2 0 C-2 0.66 -2 1.32 -2 2 C-14.58259287 6.06327003 -27.16442495 9.81475902 -40 13 C-40 12.01 -40 11.02 -40 10 C-35.50376041 8.58079588 -31.00343091 7.1755086 -26.5 5.77929688 C-24.77993855 5.24312147 -23.06125823 4.70250169 -21.34375 4.15820312 C-18.64868992 3.30438021 -15.94976936 2.46379689 -13.25 1.625 C-12.3930957 1.35026855 -11.53619141 1.07553711 -10.65332031 0.79248047 C-9.84475586 0.54385254 -9.03619141 0.29522461 -8.203125 0.0390625 C-7.48801758 -0.18571777 -6.77291016 -0.41049805 -6.03613281 -0.64208984 C-3.7199146 -1.04923324 -2.21774254 -0.72117148 0 0 Z " fill="#456ECD" transform="translate(382,859)"/>
<path d="M0 0 C0.33 0 0.66 0 1 0 C1.23183995 6.10526379 0.46149235 11.27848201 -1.08203125 17.171875 C-1.40429939 18.43913422 -1.40429939 18.43913422 -1.733078 19.73199463 C-2.18655808 21.50467176 -2.64482741 23.27613001 -3.10766602 25.04638672 C-3.81321658 27.75274867 -4.49835494 30.46372302 -5.18164062 33.17578125 C-5.62639399 34.90395773 -6.07231712 36.63183368 -6.51953125 38.359375 C-6.72278519 39.16671082 -6.92603912 39.97404663 -7.13545227 40.80584717 C-8.19227031 44.79405467 -9.13421904 47.88920491 -12 51 C-11.50178832 45.08062778 -10.51628749 39.62122337 -8.8125 33.9375 C-6.60083485 26.28996492 -4.60359748 18.60179048 -2.6875 10.875 C-2.42106689 9.80113037 -2.15463379 8.72726074 -1.88012695 7.62084961 C-1.2515197 5.08102859 -0.6246833 2.54078852 0 0 Z " fill="#426DD2" transform="translate(587,968)"/>
<path d="M0 0 C4.58498566 1.25149923 7.2191446 2.73274299 10.5234375 6.1328125 C11.31621094 6.93847656 12.10898437 7.74414062 12.92578125 8.57421875 C13.73402344 9.41597656 14.54226563 10.25773438 15.375 11.125 C16.20644531 11.97449219 17.03789063 12.82398438 17.89453125 13.69921875 C19.9390326 15.79072013 21.97359359 17.89098687 24 20 C23.67 20.99 23.34 21.98 23 23 C21.2925002 21.71937515 19.62626404 20.38232443 18 19 C18 18.34 18 17.68 18 17 C17.4225 16.773125 16.845 16.54625 16.25 16.3125 C13.40469122 14.65273655 12.06346666 12.57933333 10 10 C7.97470222 8.16432174 5.90380548 6.39902269 3.8046875 4.6484375 C2 3 2 3 0 0 Z " fill="#4286D9" transform="translate(547,908)"/>
<path d="M0 0 C0.66 0.33 1.32 0.66 2 1 C1.44570313 1.47050781 0.89140625 1.94101563 0.3203125 2.42578125 C-0.40414062 3.04839844 -1.12859375 3.67101563 -1.875 4.3125 C-2.59429687 4.92738281 -3.31359375 5.54226563 -4.0546875 6.17578125 C-6.19179331 8.0412324 -6.19179331 8.0412324 -8 11 C-18.88529859 10.54050414 -29.31408771 9.07963287 -40 7 C-40 6.67 -40 6.34 -40 6 C-34.6285031 5.77824095 -29.44743037 5.88287461 -24.1328125 6.7265625 C-14.70672973 8.51342507 -14.70672973 8.51342507 -5.7109375 6.3515625 C-3.50525074 4.35594115 -1.69535937 2.43838724 0 0 Z " fill="#1573CA" transform="translate(482,1115)"/>
<path d="M0 0 C3.36335594 1.45745424 5.54534005 3.31117854 8.109375 5.9140625 C8.86347656 6.67460938 9.61757813 7.43515625 10.39453125 8.21875 C11.17183594 9.0128125 11.94914063 9.806875 12.75 10.625 C13.54277344 11.42679688 14.33554687 12.22859375 15.15234375 13.0546875 C17.10614493 15.03202846 19.05512103 17.01388909 21 19 C20.34 19.33 19.68 19.66 19 20 C13.85468731 17.73000911 9.51518977 13.32638741 6 9 C6 8.01 6 7.02 6 6 C5.071875 5.9071875 5.071875 5.9071875 4.125 5.8125 C2 5 2 5 0.75 2.4375 C0.5025 1.633125 0.255 0.82875 0 0 Z " fill="#3E81CF" transform="translate(530,889)"/>
<path d="M0 0 C4.48599743 1.25190626 7.59347128 2.79385533 11 6 C11 6.66 11 7.32 11 8 C11.66 8 12.32 8 13 8 C13 8.66 13 9.32 13 10 C13.66 10 14.32 10 15 10 C15 10.66 15 11.32 15 12 C15.66 12 16.32 12 17 12 C18.6875 14.375 18.6875 14.375 20 17 C19.67 17.66 19.34 18.32 19 19 C16.20377171 16.40069548 13.41382835 13.79474065 10.625 11.1875 C9.8309375 10.44951172 9.036875 9.71152344 8.21875 8.95117188 C7.45820313 8.23896484 6.69765625 7.52675781 5.9140625 6.79296875 C5.2123291 6.1383667 4.5105957 5.48376465 3.78759766 4.80932617 C2 3 2 3 0 0 Z " fill="#307BC1" transform="translate(354,1127)"/>
<path d="M0 0 C0.33 0 0.66 0 1 0 C1.32893119 8.7166766 -0.12868652 16.76890137 -3 25 C-3.36920191 26.99369031 -3.71325582 28.99279077 -4 31 C-4.66 31 -5.32 31 -6 31 C-6.495 32.485 -6.495 32.485 -7 34 C-8.561377 30.87724601 -7.19210884 28.03733804 -6.34765625 24.8046875 C-6.16867294 24.09724396 -5.98968964 23.38980042 -5.80528259 22.66091919 C-5.23094482 20.39720844 -4.64684891 18.13614493 -4.0625 15.875 C-3.67188178 14.342612 -3.28189962 12.81006171 -2.89257812 11.27734375 C-1.93576156 7.51630485 -0.97018489 3.75761164 0 0 Z " fill="#4468D2" transform="translate(300,911)"/>
<path d="M0 0 C6.89066877 0.53005144 12.74853623 2.49423974 19.1875 4.9375 C20.64446289 5.47793945 20.64446289 5.47793945 22.13085938 6.02929688 C26.44262795 7.63401952 30.7323926 9.28104301 35 11 C35 11.99 35 12.98 35 14 C31.20028957 13.05007239 27.85920204 12.01040752 24.40625 10.15625 C19.5972196 7.7048936 14.60468807 5.97876791 9.5 4.25 C8.5821875 3.93417969 7.664375 3.61835937 6.71875 3.29296875 C4.48081411 2.52367829 2.241282 1.75947442 0 1 C0 0.67 0 0.34 0 0 Z " fill="#137ACC" transform="translate(494,890)"/>
<path d="M0 0 C9.86674975 -0.19538118 19.34346884 -0.38222795 29 2 C27 4 27 4 23.18359375 4.046875 C21.60080495 3.96087938 20.01871921 3.86118195 18.4375 3.75 C17.6242627 3.6991626 16.81102539 3.6483252 15.97314453 3.59594727 C10.48453734 3.21285501 5.31309143 2.47585873 0 1 C0 0.67 0 0.34 0 0 Z " fill="#1987D1" transform="translate(412,1118)"/>
<path d="M0 0 C-3.80283823 2.10938683 -7.87395111 3.37568554 -12 4.6875 C-13.06734375 5.04424805 -13.06734375 5.04424805 -14.15625 5.40820312 C-17.87634409 6.59155395 -20.27904269 7.17566198 -24 6 C-23 4 -23 4 -20.15625 2.9296875 C-13.21097693 0.92624335 -7.23102065 -0.49869108 0 0 Z " fill="#4B69C8" transform="translate(518,1124)"/>
<path d="M0 0 C5.25687856 1.29472083 8.26398026 3.75885386 11.875 7.625 C12.37257813 8.140625 12.87015625 8.65625 13.3828125 9.1875 C14.5979334 10.44935632 15.80031125 11.72346286 17 13 C16.67 13.99 16.34 14.98 16 16 C15.01 15.34 14.02 14.68 13 14 C13 13.34 13 12.68 13 12 C12.43796875 11.76410156 11.8759375 11.52820313 11.296875 11.28515625 C8.46734314 9.70196581 6.51976385 7.74806026 4.25 5.4375 C3.45078125 4.63183594 2.6515625 3.82617188 1.828125 2.99609375 C0 1 0 1 0 0 Z " fill="#408CDB" transform="translate(513,875)"/>
<path d="M0 0 C-1 2 -1 2 -2.73413086 2.68603516 C-3.83833374 2.98453369 -3.83833374 2.98453369 -4.96484375 3.2890625 C-5.76470703 3.50820312 -6.56457031 3.72734375 -7.38867188 3.953125 C-8.22978516 4.17484375 -9.07089844 4.3965625 -9.9375 4.625 C-11.19336914 4.96917969 -11.19336914 4.96917969 -12.47460938 5.3203125 C-18.68845331 7 -18.68845331 7 -21 7 C-21 6.34 -21 5.68 -21 5 C-20.01 5 -19.02 5 -18 5 C-18 4.34 -18 3.68 -18 3 C-15.75376301 2.30030318 -13.50283586 1.61564957 -11.25 0.9375 C-9.99703125 0.55464844 -8.7440625 0.17179687 -7.453125 -0.22265625 C-4.3261992 -0.92656828 -2.90533954 -1.16653785 0 0 Z " fill="#4779D0" transform="translate(495,1130)"/>
<path d="M0 0 C5.11790246 1.30574051 7.7614885 3.31616356 11.375 7.125 C12.24898438 8.03507812 13.12296875 8.94515625 14.0234375 9.8828125 C14.67570312 10.58148437 15.32796875 11.28015625 16 12 C15.67 12.99 15.34 13.98 15 15 C9.80208038 10.55814142 4.59230925 6.0802421 0 1 C0 0.67 0 0.34 0 0 Z " fill="#4469C0" transform="translate(314,1088)"/>
<path d="M0 0 C1.18857105 3.56571316 0.717232 4.94781941 -0.21484375 8.54296875 C-0.48876953 9.61611328 -0.76269531 10.68925781 -1.04492188 11.79492188 C-1.33947266 12.91447266 -1.63402344 14.03402344 -1.9375 15.1875 C-2.22818359 16.31865234 -2.51886719 17.44980469 -2.81835938 18.61523438 C-3.53823848 21.4121417 -4.26572486 24.20684393 -5 27 C-7.18998254 23.28688796 -6.9021276 21.09902971 -5.90039062 16.8984375 C-5.70638672 16.14820313 -5.51238281 15.39796875 -5.3125 14.625 C-5.13783203 13.8825 -4.96316406 13.14 -4.78320312 12.375 C-3.68465789 7.91782004 -2.2297846 4.0483121 0 0 Z " fill="#4C64D2" transform="translate(294,942)"/>
<path d="M0 0 C-3.52106829 1.94539023 -7.1475537 3.05706819 -11 4.1875 C-12.216875 4.55230469 -13.43375 4.91710938 -14.6875 5.29296875 C-17.72881752 5.94211789 -19.16511645 6.11269179 -22 5 C-21 3 -21 3 -18.33984375 1.89453125 C-11.73604449 -0.20564372 -6.8049848 -1.6011729 0 0 Z " fill="#3388D0" transform="translate(453,1143)"/>
<path d="M0 0 C0.66 0 1.32 0 2 0 C2 0.99 2 1.98 2 3 C0.41800369 3.64910154 -1.16565724 4.29414694 -2.75 4.9375 C-3.63171875 5.29714844 -4.5134375 5.65679688 -5.421875 6.02734375 C-9.34902108 7.50894886 -12.54749356 8.12430157 -16.75 8.0625 C-17.54921875 8.05347656 -18.3484375 8.04445313 -19.171875 8.03515625 C-19.77515625 8.02355469 -20.3784375 8.01195312 -21 8 C-17.14980116 5.82731561 -13.02251158 4.69863236 -8.8125 3.4375 C-4.03586268 2.355887 -4.03586268 2.355887 0 0 Z " fill="#5565D3" transform="translate(533,1116)"/>
<path d="M0 0 C1.25414522 3.58752521 0.73271684 6.00508642 -0.21484375 9.640625 C-0.48876953 10.71054688 -0.76269531 11.78046875 -1.04492188 12.8828125 C-1.33947266 13.99398438 -1.63402344 15.10515625 -1.9375 16.25 C-2.22818359 17.37664062 -2.51886719 18.50328125 -2.81835938 19.6640625 C-3.53716405 22.44501174 -4.26465981 25.22338584 -5 28 C-5.33 28 -5.66 28 -6 28 C-6.19435366 22.22121771 -5.61838758 17.32107708 -4.125 11.75 C-3.95097656 11.05648438 -3.77695312 10.36296875 -3.59765625 9.6484375 C-2.71328687 6.2288759 -1.75889445 3.07410382 0 0 Z " fill="#5061CB" transform="translate(576,1016)"/>
<path d="M0 0 C5.11790246 1.30574051 7.7614885 3.31616356 11.375 7.125 C12.24898438 8.03507812 13.12296875 8.94515625 14.0234375 9.8828125 C14.67570312 10.58148437 15.32796875 11.28015625 16 12 C15.01 12.495 15.01 12.495 14 13 C10.07996526 11.06304166 7.23371043 8.47677977 4.1875 5.375 C3.39730469 4.57835937 2.60710937 3.78171875 1.79296875 2.9609375 C0 1 0 1 0 0 Z " fill="#3B80D1" transform="translate(342,1115)"/>
<path d="M0 0 C-2.30389824 2.30389824 -3.12854212 2.32941723 -6.25 2.8125 C-11.08303901 3.77286155 -13.50225844 5.59194412 -17 9 C-16.67339377 5.9516752 -15.99477806 4.99492311 -13.75 2.8125 C-9.2350222 -0.16328082 -5.31055197 -0.12350121 0 0 Z " fill="#3F70D3" transform="translate(341,871)"/>
<path d="M0 0 C4.05819183 0.65503282 7.53971282 1.94559121 11.3125 3.5625 C12.38113281 4.01753906 13.44976562 4.47257813 14.55078125 4.94140625 C15.76314453 5.46541016 15.76314453 5.46541016 17 6 C17 6.66 17 7.32 17 8 C15.53984709 7.71758359 14.08190207 7.42373386 12.625 7.125 C11.81289063 6.96257813 11.00078125 6.80015625 10.1640625 6.6328125 C8 6 8 6 6 4 C3.93125966 3.3574765 3.93125966 3.3574765 2 3 C2 2.34 2 1.68 2 1 C1.34 0.67 0.68 0.34 0 0 Z " fill="#1B87D3" transform="translate(477,882)"/>
<path d="M0 0 C-2.66977878 3.45500783 -5.86164003 4.05616352 -10 5 C-11.32 5 -12.64 5 -14 5 C-13.67 4.01 -13.34 3.02 -13 2 C-8.56204759 0.5946484 -4.67869431 -0.29241839 0 0 Z " fill="#3A85D5" transform="translate(450,839)"/>
<path d="M0 0 C0.94631376 2.55504715 1.1555969 3.63694056 0.0625 6.1875 C-1.42820267 10.13347767 -1.16358685 13.82853532 -1 18 C-3.7565845 13.86512325 -4.22804627 9.93838126 -4 5 C-2.0625 1.875 -2.0625 1.875 0 0 Z " fill="#3161D6" transform="translate(299,956)"/>
<path d="M0 0 C2.29430792 2.80059375 3.5840159 5.22708583 4.625 8.6875 C5.36679452 11.6036157 5.36679452 11.6036157 7 14 C7.04092937 16.33297433 7.04241723 18.66705225 7 21 C2.55829031 14.33743546 1.20195274 7.81976312 0 0 Z " fill="#1C7ED1" transform="translate(539,935)"/>
<path d="M0 0 C3 0 3 0 5.5 2.3125 C6.325 3.199375 7.15 4.08625 8 5 C8.598125 5.598125 9.19625 6.19625 9.8125 6.8125 C10.204375 7.204375 10.59625 7.59625 11 8 C10.67 8.99 10.34 9.98 10 11 C8.51450044 9.73657512 7.03678811 8.4639897 5.5625 7.1875 C4.73878906 6.47980469 3.91507812 5.77210937 3.06640625 5.04296875 C1 3 1 3 0 0 Z " fill="#5356C3" transform="translate(282,1056)"/>
<path d="M0 0 C0.66 0 1.32 0 2 0 C0.9611908 6.1112924 -0.15730278 12.07704464 -2 18 C-2.33 18 -2.66 18 -3 18 C-3.36517527 11.42684522 -2.13619737 6.20514474 0 0 Z " fill="#5A60DB" transform="translate(282,986)"/>
<path d="M0 0 C0.33 0 0.66 0 1 0 C1.36517527 6.57315478 0.13619737 11.79485526 -2 18 C-2.66 18 -3.32 18 -4 18 C-2.68 12.06 -1.36 6.12 0 0 Z " fill="#3B64C9" transform="translate(300,911)"/>
<path d="M0 0 C0.33 0 0.66 0 1 0 C1.44895473 7.03362418 -0.06756918 13.10135377 -4 19 C-3.46048934 12.31006781 -2.11293829 6.36539272 0 0 Z " fill="#4F6ED9" transform="translate(579,1000)"/>
<path d="M0 0 C-0.66 0 -1.32 0 -2 0 C-2 0.66 -2 1.32 -2 2 C-9.44230769 4.23269231 -9.44230769 4.23269231 -12.265625 3.0546875 C-12.83796875 2.70664062 -13.4103125 2.35859375 -14 2 C-12.42085985 1.46658816 -10.83645613 0.94874237 -9.25 0.4375 C-8.36828125 0.14746094 -7.4865625 -0.14257812 -6.578125 -0.44140625 C-3.92165684 -1.01697435 -2.52968894 -0.89248371 0 0 Z " fill="#3F6EC3" transform="translate(382,859)"/>
<path d="M0 0 C-1 3 -1 3 -3 4 C-5.204364 4.22950319 -7.41392173 4.41075933 -9.625 4.5625 C-10.81351562 4.64628906 -12.00203125 4.73007812 -13.2265625 4.81640625 C-14.14179688 4.87699219 -15.05703125 4.93757812 -16 5 C-13.20083611 3.13389074 -11.18061731 2.31214617 -8 1.375 C-6.700625 0.98441406 -6.700625 0.98441406 -5.375 0.5859375 C-3 0 -3 0 0 0 Z " fill="#3E74C6" transform="translate(405,851)"/>
<path d="M0 0 C-2.1755306 2.1755306 -3.55973892 2.71879553 -6.4375 3.6875 C-7.61119141 4.09548828 -7.61119141 4.09548828 -8.80859375 4.51171875 C-11 5 -11 5 -14 4 C-12.68 3.67 -11.36 3.34 -10 3 C-10 2.34 -10 1.68 -10 1 C-6.78548731 -0.60725635 -3.56387464 -0.05748185 0 0 Z " fill="#4777D3" transform="translate(372,862)"/>
<path d="M0 0 C1.12588014 0.95729916 2.2506715 1.91587895 3.375 2.875 C4.00148438 3.40867187 4.62796875 3.94234375 5.2734375 4.4921875 C6.55836651 5.61432007 7.79371975 6.79371975 9 8 C8.67 8.99 8.34 9.98 8 11 C6.65772182 9.73861805 5.32641323 8.46555441 4 7.1875 C3.2575 6.47980469 2.515 5.77210937 1.75 5.04296875 C0 3 0 3 0 0 Z " fill="#5765D6" transform="translate(293,1065)"/>
<path d="M0 0 C4.2742558 1.5830577 6.26531794 4.50568404 9 8 C8.01 8 7.02 8 6 8 C6 7.34 6 6.68 6 6 C5.071875 5.9071875 5.071875 5.9071875 4.125 5.8125 C2 5 2 5 0.75 2.4375 C0.5025 1.633125 0.255 0.82875 0 0 Z " fill="#3A73BD" transform="translate(530,889)"/>
<path d="M0 0 C2.1793144 1.75864246 2.93686419 2.69396 3.51171875 5.48046875 C3.56972656 6.37378906 3.62773437 7.26710938 3.6875 8.1875 C3.75324219 9.08855469 3.81898438 9.98960937 3.88671875 10.91796875 C3.92410156 11.60503906 3.96148437 12.29210937 4 13 C0.90576832 9.90576832 0.06293995 6.4476188 -0.125 2.125 C-0.08375 1.42375 -0.0425 0.7225 0 0 Z " fill="#3D4ED7" transform="translate(307,1007)"/>
<path d="M0 0 C2.475 0.495 2.475 0.495 5 1 C5 1.66 5 2.32 5 3 C5.639375 3.28875 6.27875 3.5775 6.9375 3.875 C9 5 9 5 10 7 C5.04303419 5.76075855 2.88341534 4.21422242 0 0 Z " fill="#4D6ACB" transform="translate(308,1082)"/>
<path d="M0 0 C0.33 0.66 0.66 1.32 1 2 C1.66 2 2.32 2 3 2 C4.6875 4.375 4.6875 4.375 6 7 C5.67 7.66 5.34 8.32 5 9 C2.69 6.69 0.38 4.38 -2 2 C-1.34 1.34 -0.68 0.68 0 0 Z " fill="#2F8ED8" transform="translate(368,1137)"/>
<path d="M0 0 C1.485 0.99 1.485 0.99 3 2 C3 2.66 3 3.32 3 4 C3.66 4 4.32 4 5 4 C5.33 4.99 5.66 5.98 6 7 C5.01 7.33 4.02 7.66 3 8 C0.4345406 5.4345406 0.45953913 3.52313332 0 0 Z " fill="#2E85C9" transform="translate(362,1131)"/>
<path d="M0 0 C2.46800047 1.15173355 4.04783565 2.04783565 6 4 C6 4.99 6 5.98 6 7 C3.00675737 5.9024777 2.15389099 5.32317108 0.75 2.375 C0.5025 1.59125 0.255 0.8075 0 0 Z " fill="#3974C2" transform="translate(571,929)"/>
<path d="M0 0 C0 0.99 0 1.98 0 3 C-2.8125 5.0625 -2.8125 5.0625 -6 7 C-6.99 7.66 -7.98 8.32 -9 9 C-8.31267043 6.25068173 -7.64439778 4.46581179 -5.30859375 2.77734375 C-3.56883675 1.79675344 -1.7862389 0.89311945 0 0 Z " fill="#235ECF" transform="translate(358,897)"/>
<path d="M0 0 C1.41687119 4.25061356 0.19320039 6.71851625 -1 11 C-1.66 10.01 -2.32 9.02 -3 8 C-2.24451463 5.1524013 -1.31613642 2.63227284 0 0 Z " fill="#4B6EDD" transform="translate(294,942)"/>
<path d="M0 0 C0 0.99 0 1.98 0 3 C-2.97 3 -5.94 3 -9 3 C-5.87496336 0.91664224 -3.72863529 0 0 0 Z " fill="#3B78C7" transform="translate(436,842)"/>
</svg>
